<svg xmlns="http://www.w3.org/2000/svg" width="43.362" height="42.975" viewBox="0 0 43.362 42.975"><g transform="translate(-167.252 -325.866)"><path d="M210.394,338.908c-.375-2.881-.92-5.71-2.874-8.029a8.646,8.646,0,0,0-5.944-3.3,10.634,10.634,0,0,0-7.406,2.328,44.551,44.551,0,0,0-12.821,15.039,1.8,1.8,0,0,0-.084,1.743c.984,2.084,1.942,4.179,2.907,6.271q.882,1.911,1.753,3.826a.784.784,0,0,0,1.207.467,3.915,3.915,0,0,1,.81-.324,28.923,28.923,0,0,1,3.774-.83c1.79-.179,3.075.911,4.295,2.066a6.029,6.029,0,0,0,8.288.359,15.554,15.554,0,0,0,2.35-3.267,26.2,26.2,0,0,0,3.965-13.412c-.071-.979-.093-1.964-.22-2.935m-18.784,3.95a2.191,2.191,0,0,1-2.226-2.206,2.14,2.14,0,0,1,2.186-2.219,2.213,2.213,0,1,1,.04,4.425m9.066-4.435a2.7,2.7,0,0,1-2.7-2.746,2.568,2.568,0,0,1,2.647-2.666,2.614,2.614,0,0,1,2.757,2.565,2.782,2.782,0,0,1-2.7,2.847m2.686,9.273a2.27,2.27,0,0,1-2.23-2.227,2.323,2.323,0,0,1,2.3-2.252,2.347,2.347,0,0,1,2.231,2.328,2.294,2.294,0,0,1-2.3,2.151" fill="#e9dfcf"/><path d="M182.409,355.785q-2.681-5.807-5.37-11.608c-.434-.932-.7-.987-1.617-.6a9.342,9.342,0,0,1-1.215.346,1.151,1.151,0,0,0-.96,1.589c.13.539.344,1.057.479,1.594q2.32,9.249,4.627,18.5a4.034,4.034,0,0,0,4.063,3.217,4.183,4.183,0,0,0,3.88-4.039,19.542,19.542,0,0,0-.642-1.933c-1.06-2.366-2.158-4.715-3.245-7.069" fill="#e9dfcf"/><path d="M176.744,335.961a23.385,23.385,0,0,0-7.446-9.739,1.209,1.209,0,0,0-1.96.311,2.083,2.083,0,0,0,.1,1.427,9.463,9.463,0,0,1,.887,4.311c-.056,1.113-.128,2.224-.216,3.722.043.408.072,1.207.221,1.984.506,2.648,1.953,3.8,4.311,3.464a7.4,7.4,0,0,0,1.462-.35c2.573-.923,3.554-2.748,2.643-5.13" fill="#e9dfcf"/></g></svg>