<svg id="_f2f2f2ff" data-name="#f2f2f2ff" xmlns="http://www.w3.org/2000/svg" width="51.78" height="40.971" viewBox="0 0 51.78 40.971">
  <path id="Path_24901" data-name="Path 24901" d="M90.127,72.059a20.69,20.69,0,0,1,15.132,1.8,20.473,20.473,0,1,1-29.4,11.993c-3.418-.067-6.837.087-10.25-.063a1.325,1.325,0,0,1-1.078-2.128c.351-.722,1.348-.5,2-.607,3.457,0,6.914.024,10.366,0A21.108,21.108,0,0,1,90.127,72.059m.144,2.817a10.7,10.7,0,0,1,.794,8.19c2.812-.01,5.619,0,8.43-.01a8.179,8.179,0,0,0-.867-8.377c-2.658-1.04-5.643-.313-8.358.2m12,.559a11.267,11.267,0,0,1,.26,7.631c2.8-.019,5.6,0,8.406-.014a19,19,0,0,0-8.666-7.617M80.05,83.07c2.667-.019,5.335,0,8.007-.019a7.663,7.663,0,0,0-.4-7.087,18.669,18.669,0,0,0-7.6,7.106m-1.261,2.792a17.737,17.737,0,1,0,33.765,10.814,17.525,17.525,0,0,0-.38-10.838C101.047,85.858,89.92,85.81,78.789,85.863Z" transform="translate(-64.257 -71.39)" fill="#fff"/>
  <path id="Path_24902" data-name="Path 24902" d="M110.61,112.555c.794-.409,1.651-.019,2.451.144a3.115,3.115,0,0,1-.019,3.346c-.756.12-1.55.506-2.306.164A2.015,2.015,0,0,1,110.61,112.555Z" transform="translate(-87.72 -92.642)" fill="#fff"/>
  <path id="Path_24903" data-name="Path 24903" d="M141.782,112.383a2.032,2.032,0,0,1,2.547,2.48,2.1,2.1,0,0,1-3.688.607A2,2,0,0,1,141.782,112.383Z" transform="translate(-103.678 -92.595)" fill="#fff"/>
  <path id="Path_24904" data-name="Path 24904" d="M113.655,132.285c.169-.063.506-.193.669-.255,1.5.669,2.749,1.868,4.41,2.157a9.326,9.326,0,0,0,7.934-1.839,1.355,1.355,0,0,1,2.056,1.488,6.515,6.515,0,0,1-2.975,2.316,11.312,11.312,0,0,1-12.383-1.7A1.271,1.271,0,0,1,113.655,132.285Z" transform="translate(-89.475 -102.834)" fill="#fff"/>
</svg>
