<svg xmlns="http://www.w3.org/2000/svg" width="108.165" height="95.586" viewBox="0 0 108.165 95.586">
  <g id="Group_9211" data-name="Group 9211" transform="translate(-7.269 -1.429)">
    <path id="Path_24804" data-name="Path 24804" d="M412.121,161.845q-1.069-4.14-3.334-5.364a5.525,5.525,0,0,0-3.463-.99,2.734,2.734,0,0,0-1.561.65,6.225,6.225,0,0,1,2.942,1.954,8.807,8.807,0,0,1,1.849,3.073,18.781,18.781,0,0,1,.626,7.137,65.592,65.592,0,0,1-1.8,11.535l-1.172,4.453q-3.333,8.125-2.84,12.866a23.863,23.863,0,0,0,2.84,9.035,20.982,20.982,0,0,0,5.729,6.9,54.948,54.948,0,0,1,.73-9.87,28.731,28.731,0,0,1,2.76-7.968q2.007-4.036,3.959-4.478a5.627,5.627,0,0,1,3.671.39q.99-5.7-3.2-4.714-4.271.964-6.275,6.98-2.033,5.991-2.475,7.37.1-2.29.313-4.843.391-4.3.859-7.005a67.355,67.355,0,0,1,3.359-12.578,44.969,44.969,0,0,1,6.615-11.8q.417-.573.807-1.015-4.922-1.746-7.735,6.9a101.507,101.507,0,0,0-3.984,14.973,99.572,99.572,0,0,0-1.38,11.25q-.287,5.1-.39,9.74a71.37,71.37,0,0,1-1.666-7.735,41.177,41.177,0,0,1,.285-15.442,65,65,0,0,1,3.021-11.9,16.165,16.165,0,0,0,.911-9.5m-3.073-12.786q.808-2.16-1.3-4.975-.156-.235-4.9-5.079l-.807,3.2a16.408,16.408,0,0,0-.494,2.579,11.7,11.7,0,0,0-.077,2.552,6.573,6.573,0,0,0,1.978,3.828,6.768,6.768,0,0,0,3.463,2.006,24.818,24.818,0,0,0,2.135-4.116Z" transform="translate(-325.057 -128.564)" fill="#adc880"/>
    <path id="Path_24806" data-name="Path 24806" d="M286.462,422a3.151,3.151,0,0,0-1.315-2.116,2.189,2.189,0,0,0-1.366-.391,1.087,1.087,0,0,0-.617.257,2.473,2.473,0,0,1,1.16.77,3.5,3.5,0,0,1,.73,1.211,7.417,7.417,0,0,1,.247,2.813,25.856,25.856,0,0,1-.709,4.548l-.462,1.756a11.253,11.253,0,0,0-1.119,5.073,9.442,9.442,0,0,0,1.119,3.563,8.29,8.29,0,0,0,2.259,2.721,21.756,21.756,0,0,1,.287-3.892,11.309,11.309,0,0,1,1.088-3.143q.79-1.592,1.56-1.767a2.216,2.216,0,0,1,1.447.155q.391-2.249-1.263-1.859-1.683.38-2.474,2.752t-.975,2.907c.028-.6.068-1.239.123-1.909q.154-1.694.339-2.762a26.584,26.584,0,0,1,1.324-4.96,17.71,17.71,0,0,1,2.608-4.651q.164-.227.318-.4-1.941-.688-3.049,2.721a39.892,39.892,0,0,0-1.571,5.9,39.383,39.383,0,0,0-.544,4.435q-.112,2.012-.155,3.839a28.3,28.3,0,0,1-.657-3.049,16.245,16.245,0,0,1,.113-6.089,25.654,25.654,0,0,1,1.192-4.693,6.382,6.382,0,0,0,.36-3.747m-1.211-5.042a2.061,2.061,0,0,0-.514-1.961q-.063-.091-1.93-2l-.318,1.263a6.492,6.492,0,0,0-.195,1.016,4.656,4.656,0,0,0-.031,1.006,2.587,2.587,0,0,0,.78,1.51,2.664,2.664,0,0,0,1.366.791,9.965,9.965,0,0,0,.843-1.623Z" transform="translate(-240.185 -353.911)" fill="#adc880"/>
    <path id="Path_24809" data-name="Path 24809" d="M412.478,673.57a13.218,13.218,0,0,0,.542,2.123,14.853,14.853,0,0,0,.558,1.383.954.954,0,0,0,.589.578,1.54,1.54,0,0,0,.8-.042,1.006,1.006,0,0,0,.646-.479.691.691,0,0,0-.094-.761.749.749,0,0,0-.841-.271,1.266,1.266,0,0,0-.82.563,5.406,5.406,0,0,1-.62-1.472,9.173,9.173,0,0,1-.307-1.518L416.18,673a12.147,12.147,0,0,0,.506,1.935,14.846,14.846,0,0,0,.558,1.383.975.975,0,0,0,.589.584,1.619,1.619,0,0,0,.8-.042,1.024,1.024,0,0,0,.646-.485.682.682,0,0,0-.094-.756.739.739,0,0,0-.841-.271,1.269,1.269,0,0,0-.773.49,9.548,9.548,0,0,1-1.086-4.055l-4.17.831q.068.505.151.961Z" transform="translate(-348.853 -587.188)" fill="#cd3e5a"/>
    <path id="Path_24814" data-name="Path 24814" d="M170.231,440.043a1.52,1.52,0,1,0-.2,1.141,1.458,1.458,0,0,0,.2-1.141" transform="translate(-145.155 -375.282)" fill="#c6629b"/>
    <path id="Path_24820" data-name="Path 24820" d="M144.621,444.093a.736.736,0,1,0-.1.554.706.706,0,0,0,.1-.554" transform="translate(-125.269 -379.135)" fill="#fa8536"/>
    <g id="Group_9052" data-name="Group 9052" transform="translate(99.581 28.143)">
      <path id="Path_24822" data-name="Path 24822" d="M343.185,245.427a1.009,1.009,0,1,0,.639.426.973.973,0,0,0-.639-.426" transform="translate(-341.987 -240.917)" fill="#fa8536"/>
      <path id="Path_24823" data-name="Path 24823" d="M357.135,229.117a1,1,0,0,0-1.023,1.546.961.961,0,0,0,.639.426,1,1,0,0,0,.384-1.972" transform="translate(-353.514 -227.441)" fill="#fa8536"/>
      <path id="Path_24824" data-name="Path 24824" d="M379.939,219.592a1.469,1.469,0,1,0,.931.62,1.414,1.414,0,0,0-.931-.62" transform="translate(-371.903 -219.563)" fill="#fa8536"/>
      <path id="Path_24825" data-name="Path 24825" d="M361.434,243.121a3.665,3.665,0,1,0,2.325,1.548,3.513,3.513,0,0,0-2.325-1.548" transform="translate(-354.456 -238.968)" fill="#fa8536"/>
    </g>
    <g id="Group_9055" data-name="Group 9055" transform="translate(93.664 72.044)">
      <path id="Path_24834" data-name="Path 24834" d="M660.72,689.07a2.212,2.212,0,1,1-1.4.933,2.132,2.132,0,0,1,1.4-.933" transform="translate(-641.575 -679.191)" fill="#fa8536"/>
      <path id="Path_24835" data-name="Path 24835" d="M646.78,672.77a2.212,2.212,0,1,1-1.4.933,2.134,2.134,0,0,1,1.4-.933" transform="translate(-632.943 -669.097)" fill="#fa8536"/>
      <path id="Path_24836" data-name="Path 24836" d="M620.049,663.257a3.218,3.218,0,1,1-2.041,1.359,3.1,3.1,0,0,1,2.041-1.359" transform="translate(-615.886 -663.193)" fill="#fa8536"/>
      <path id="Path_24837" data-name="Path 24837" d="M619.819,686.839a8.033,8.033,0,1,1-5.095,3.393,7.7,7.7,0,0,1,5.095-3.393" transform="translate(-613.338 -677.736)" fill="#fa8536"/>
    </g>
    <path id="Path_24864" data-name="Path 24864" d="M71.048,80.214l-4.105-1.638,2.323,3.652L65.9,85.941l4.988-1.128,2.861,4.5.134-5.254,4.335-.924-4.223-1.689.142-4.574-3.089,3.344" transform="translate(-58.631 -49.774)" fill="#ec8b4a"/>
    <path id="Path_24865" data-name="Path 24865" d="M121.077,372.712a19.544,19.544,0,0,1-1.6,2.794,21.574,21.574,0,0,1-1.331,1.739,1.4,1.4,0,0,1-1.06.589,2.25,2.25,0,0,1-1.121-.374,1.475,1.475,0,0,1-.728-.931,1.016,1.016,0,0,1,.431-1.041,1.1,1.1,0,0,1,1.294-.056,1.853,1.853,0,0,1,.94,1.117,7.935,7.935,0,0,0,1.452-1.84,13.375,13.375,0,0,0,1.028-2.029l-4.328-2.227A17.894,17.894,0,0,1,114.588,373a21.572,21.572,0,0,1-1.331,1.739,1.427,1.427,0,0,1-1.063.6,2.371,2.371,0,0,1-1.121-.374,1.509,1.509,0,0,1-.726-.94,1,1,0,0,1,.429-1.034,1.084,1.084,0,0,1,1.294-.056,1.845,1.845,0,0,1,.9,1,14,14,0,0,0,3.119-5.313l5.575,2.8Q121.372,372.1,121.077,372.712Z" transform="translate(-99.586 -293.241)" fill="#fa8536"/>
    <path id="Path_24869" data-name="Path 24869" d="M111.12,88.358c.005,3.734.005,7.187,0,10.327-.005,5.679-.017,10.3-.017,10.3,0,3.438-.01,6.875-.01,10.313,0,.622,0,2.123.017,4.1.007.863.016,1.581.023,2.078a1.207,1.207,0,0,0,1.185,1.306A1.194,1.194,0,0,0,113.4,125.7c-.017-1.053-.04-2.644-.059-4.576-.026-2.731-.043-5.954-.005-16.437.019-5.332.033-7.121,0-10.417-.024-2.436-.063-4.442-.09-5.787a1.095,1.095,0,1,0-2.13-.123Zm26.864-8.77a121.883,121.883,0,0,0-29.265,2.717,131.042,131.042,0,0,0-15.94,4.625S81.336,90.789,73.474,97.411a9.883,9.883,0,0,0-3.061,4.406,7.63,7.63,0,0,0,.115,4.434,16.77,16.77,0,0,0,1.289,3.063,2.105,2.105,0,0,1,.49,1.539c-.05,1.044,0,2.1,0,3.146q0,3.143-.007,6.287-.008,6.288-.016,12.577,0,2.27-.005,4.538c-.007,5.019-.012.375-.014,6.9a1.143,1.143,0,0,0,2.285-.063c-.082-12.389-.089-13.614-.021-26q.016-2.65.033-5.3a51.426,51.426,0,0,0,5.04,4.166,64.618,64.618,0,0,0,5.521,3.49A75.852,75.852,0,0,0,96.3,125.848v.115c0,11.769.019,12.371.054,24.137a1.169,1.169,0,0,0,.919.877,1.22,1.22,0,0,0,1.275-1.141c-.01-11.225-.017-11.819-.017-23.044v-.085a30.088,30.088,0,0,1,6.15,3.662,13.839,13.839,0,0,1,4.173,4.256c.858,1.425.751,1.89,1.378,2.552.7.737,1.941,1.333,2.549.929.676-.448.351-1.987.169-2.846a12.491,12.491,0,0,0-2.689-5.292,19.7,19.7,0,0,0-5.235-4.206,36.612,36.612,0,0,0-6.494-3.176V105.493q.008-4.2,0-8.409-.005-3.37-.019-6.741a1.011,1.011,0,1,0-2.017,0c-.03,1.47-.068,3.709-.1,6.444-.042,4.018-.031,7-.036,8.207-.017,3.991-.052,12.83-.066,16.821q-1.545-.545-3.72-1.287a49.309,49.309,0,0,1-8.61-4.206q-19.138-12.246-.486-22.514a124.084,124.084,0,0,1,28.694-9.555,127.208,127.208,0,0,1,31.64-2.432q4.005.143,4.863-1.744-7.208-.4-10.7-.486Z" transform="translate(-42.424 -78.121)" fill="#5db6b4"/>
  </g>
</svg>
