<svg xmlns="http://www.w3.org/2000/svg" xmlns:xlink="http://www.w3.org/1999/xlink" width="115.329" height="102.94" viewBox="0 0 115.329 102.94">
  <defs>
    <clipPath id="clip-path">
      <rect id="Rectangle_6041" data-name="Rectangle 6041" width="106.259" height="92.339" transform="translate(0 0)" fill="#fff"/>
    </clipPath>
  </defs>
  <g id="Group_9188" data-name="Group 9188" transform="matrix(0.978, -0.208, 0.208, 0.978, -18.259, 5.933)">
    <g id="bg-3_1" data-name="bg-3 1" transform="translate(28.534 0) rotate(18)" clip-path="url(#clip-path)">
      <g id="Group_9093" data-name="Group 9093" transform="translate(-2.936 -4.116)">
        <g id="Group_9092" data-name="Group 9092" transform="translate(0 0)">
          <path id="Path_24884" data-name="Path 24884" d="M47.018,3.236q-9.345.128-13.415-2.09Q29.467-1.055,20.63.97,11.693,3.02,3.439,11.081A19.2,19.2,0,0,0,0,15.953Q17.291,7.8,28.392,7.312A114.767,114.767,0,0,0,44.835,5.735q9.33-1.474,11.487-3.787a53.4,53.4,0,0,1-9.3,1.289" transform="translate(16.636 87.844)" fill="#5db6b4"/>
          <path id="Path_24885" data-name="Path 24885" d="M0,74.847a18.844,18.844,0,0,0,5.377-3.365,145.32,145.32,0,0,1,13.656-9.193,36.842,36.842,0,0,1,22.622-5.71l14.87.946a35.083,35.083,0,0,0,10.432-.611q13.276-3.168,23.1-20.32a92.7,92.7,0,0,0,7.65-17.322A197.223,197.223,0,0,0,102.349,0a72.336,72.336,0,0,1-8.605,21.041Q87.325,31.627,82.391,36.905a70.352,70.352,0,0,1-13.33,10.64,28.394,28.394,0,0,1-18.041,4.568A74.151,74.151,0,0,0,31.8,53.1a45.412,45.412,0,0,0-18.2,7.769A48.294,48.294,0,0,0,0,74.847Z" transform="translate(9.368 25.292)" fill="#5db6b4"/>
          <path id="Path_24886" data-name="Path 24886" d="M5.409,82.126a17.312,17.312,0,0,0-4.2,4.385A6.113,6.113,0,0,0,.271,91.86q8.29-10.2,26.038-15.512,4.507-1.3,14.939-3.617,9.723-2.175,14.889-3.818A83.049,83.049,0,0,0,83.463,54.429,69.208,69.208,0,0,0,102.727,30.7q5.215-10.711,7.849-26.641.486-2.892-.407-4.054l-3.627,13.8q-1.635,6.267-2.589,8.992A58.393,58.393,0,0,1,93.309,41.07,72.168,72.168,0,0,1,77.227,55.06Q61.072,65.48,37.522,69.894q-9.112,1.633-9.346,1.69a58.949,58.949,0,0,0-9.138,2.527,54.81,54.81,0,0,0-13.63,8.015" fill="#5db6b4"/>
        </g>
      </g>
    </g>
  </g>
</svg>
