<svg xmlns="http://www.w3.org/2000/svg" xmlns:xlink="http://www.w3.org/1999/xlink" width="217.717" height="208.582" viewBox="0 0 217.717 208.582">
  <defs>
    <clipPath id="clip-path">
      <rect id="Rectangle_6059" data-name="Rectangle 6059" width="168.653" height="146.559" transform="translate(-0.072 0.108)" fill="#fff"/>
    </clipPath>
  </defs>
  <g id="bg-3_1" data-name="bg-3 1" transform="matrix(0.883, 0.469, -0.469, 0.883, 68.92, -0.062)" clip-path="url(#clip-path)">
    <g id="Group_9232" data-name="Group 9232" transform="translate(-4.732 -6.424)">
      <g id="Group_9231" data-name="Group 9231">
        <path id="Path_25026" data-name="Path 25026" d="M259.67,1145.774q-14.832.2-21.292-3.317-6.565-3.494-20.591-.28-14.185,3.254-27.287,16.047a30.473,30.473,0,0,0-5.458,7.733q27.444-12.932,45.064-13.715,17.513-.758,26.1-2.5,14.808-2.339,18.233-6.011a84.756,84.756,0,0,1-14.768,2.046" transform="translate(-158.639 -1001.212)" fill="#5db6b4"/>
        <path id="Path_25027" data-name="Path 25027" d="M86.13,408.174q3.184-1.018,8.534-5.34,5.323-4.426,21.674-14.592a58.475,58.475,0,0,1,35.906-9.062q19.648,1.247,23.6,1.5a55.684,55.684,0,0,0,16.558-.97q21.072-5.028,36.663-32.252a147.13,147.13,0,0,0,12.142-27.493q3.257-10.226,7.369-30.587a114.81,114.81,0,0,1-13.659,33.4q-10.187,16.8-18.018,25.18-7.794,8.313-21.158,16.887a45.067,45.067,0,0,1-28.635,7.251,117.691,117.691,0,0,0-30.5,1.571,72.076,72.076,0,0,0-28.89,12.331A76.652,76.652,0,0,0,86.13,408.174Z" transform="translate(-71.261 -249.235)" fill="#5db6b4"/>
        <path id="Path_25028" data-name="Path 25028" d="M-32.767,75.533a27.478,27.478,0,0,0-6.664,6.96q-2.828,4.482-1.491,8.489Q-27.765,74.794.405,66.362,7.558,64.3,24.117,60.621q15.432-3.452,23.632-6.06a131.814,131.814,0,0,0,43.37-22.988A109.846,109.846,0,0,0,121.695-6.1q8.277-17,12.457-42.284.771-4.589-.646-6.435l-5.757,21.9q-2.594,9.948-4.109,14.271a92.681,92.681,0,0,1-16.893,29.016,114.544,114.544,0,0,1-25.526,22.2Q55.581,49.115,18.2,56.119,3.74,58.71,3.369,58.8a93.562,93.562,0,0,0-14.5,4.01A86.993,86.993,0,0,0-32.768,75.535" transform="translate(41.352 54.815)" fill="#5db6b4"/>
      </g>
    </g>
  </g>
</svg>
