<svg width="375" height="337" viewBox="0 0 375 337" fill="none" xmlns="http://www.w3.org/2000/svg">
<g clip-path="url(#clip0_2_4149)">
<path d="M202.65 317.11C202.65 318.97 202.65 320.57 202.65 322.18C202.65 322.69 202.63 323.2 202.65 323.71C202.72 325 203.57 325.88 204.72 325.88C205.87 325.88 206.78 325.01 206.81 323.72C206.86 321.6 206.82 319.48 206.82 317.1C208.75 318.21 210.45 319.21 212.17 320.18C213.58 320.98 214.79 320.78 215.45 319.66C216.11 318.54 215.7 317.41 214.27 316.57C212.56 315.56 210.82 314.57 208.96 313.49C209.46 313.18 209.84 312.94 210.22 312.71C211.7 311.84 213.2 311.01 214.66 310.11C215.54 309.57 216.08 308.67 215.58 307.75C215.22 307.09 214.38 306.54 213.64 306.28C213.21 306.13 212.51 306.57 212 306.85C210.31 307.78 208.65 308.75 206.8 309.81V305.55C206.8 302.07 206.31 301.04 204.67 301.06C203.07 301.08 202.61 302.06 202.61 305.47C202.61 306.84 202.61 308.21 202.61 309.82C200.72 308.74 199.06 307.76 197.37 306.82C196.89 306.55 196.25 306.13 195.85 306.27C195.1 306.53 194.21 307 193.85 307.65C193.32 308.59 193.82 309.56 194.77 310.13C196.62 311.23 198.5 312.3 200.51 313.47C198.47 314.65 196.58 315.64 194.81 316.83C194.26 317.2 193.78 318.09 193.78 318.75C193.78 319.34 194.37 320.22 194.91 320.44C195.53 320.69 196.48 320.54 197.12 320.23C198.93 319.33 200.65 318.25 202.62 317.12L202.65 317.11ZM170.6 309.79C169.99 309.45 169.59 309.24 169.19 309.02C167.78 308.21 166.39 307.37 164.96 306.6C163.72 305.93 162.55 306.23 161.95 307.29C161.34 308.36 161.7 309.46 162.92 310.23C163.39 310.53 163.88 310.79 164.36 311.07C165.69 311.84 167.02 312.6 168.51 313.46C166.49 314.63 164.72 315.63 162.97 316.68C161.71 317.43 161.34 318.53 161.93 319.59C162.55 320.71 163.74 320.98 165.06 320.29C165.59 320.01 166.11 319.69 166.63 319.39C167.9 318.67 169.17 317.94 170.59 317.13C170.59 319.43 170.57 321.47 170.59 323.5C170.61 324.91 171.42 325.83 172.61 325.87C173.85 325.92 174.74 324.96 174.76 323.5C174.78 321.44 174.76 319.39 174.76 317.09C176.7 318.2 178.37 319.17 180.06 320.13C181.55 320.98 182.78 320.78 183.44 319.59C184.07 318.46 183.64 317.38 182.18 316.52C180.48 315.51 178.76 314.53 176.91 313.46C178.89 312.31 180.75 311.28 182.56 310.15C183.95 309.29 184.09 307.56 182.9 306.66C181.99 305.97 181.09 306.17 180.18 306.71C178.44 307.73 176.69 308.73 174.78 309.83C174.78 307.56 174.79 305.57 174.78 303.57C174.77 301.96 173.96 301.03 172.64 301.06C171.38 301.09 170.62 302 170.6 303.54C170.58 305.54 170.6 307.53 170.6 309.78V309.79ZM142.74 317.09C144.7 318.21 146.38 319.19 148.06 320.14C149.5 320.96 150.69 320.79 151.36 319.71C152.07 318.56 151.64 317.4 150.15 316.51C148.45 315.51 146.73 314.53 144.89 313.47C145.51 313.1 145.98 312.81 146.46 312.53C147.86 311.71 149.29 310.94 150.66 310.06C151.7 309.4 151.95 308.25 151.4 307.27C150.85 306.29 149.72 305.92 148.63 306.46C147.67 306.93 146.77 307.52 145.85 308.04C144.87 308.6 143.88 309.15 142.73 309.79C142.73 307.43 142.76 305.34 142.73 303.26C142.71 301.93 141.89 301.09 140.72 301.06C139.54 301.04 138.69 301.85 138.58 303.16C138.53 303.71 138.56 304.27 138.56 304.83C138.56 306.42 138.56 308.01 138.56 309.8C136.53 308.64 134.78 307.6 132.99 306.62C131.59 305.85 130.25 306.28 129.78 307.61C129.34 308.85 129.94 309.67 130.96 310.26C132.74 311.3 134.53 312.32 136.46 313.43C135.86 313.79 135.47 314.03 135.07 314.27C133.63 315.11 132.16 315.91 130.74 316.79C129.66 317.46 129.36 318.56 129.88 319.55C130.43 320.6 131.57 320.96 132.75 320.41C133.34 320.14 133.89 319.78 134.45 319.46C135.76 318.71 137.07 317.96 138.55 317.11C138.55 319.37 138.53 321.36 138.55 323.35C138.57 324.93 139.44 325.91 140.72 325.87C141.95 325.83 142.71 324.89 142.72 323.35C142.74 321.36 142.72 319.37 142.72 317.08L142.74 317.09ZM238.89 309.8C238.89 307.6 238.9 305.62 238.89 303.64C238.87 301.99 238.1 301.07 236.79 301.06C235.48 301.06 234.72 301.97 234.71 303.62C234.7 305.6 234.71 307.58 234.71 309.82C232.79 308.72 231.08 307.72 229.36 306.75C227.92 305.94 226.73 306.12 226.08 307.22C225.38 308.39 225.81 309.51 227.32 310.4C229.03 311.4 230.75 312.39 232.59 313.46C230.62 314.6 228.8 315.63 227.01 316.7C225.79 317.43 225.44 318.58 226.05 319.64C226.66 320.69 227.83 320.98 229.08 320.31C230.23 319.7 231.33 319.01 232.46 318.37C233.15 317.98 233.86 317.61 234.72 317.14C234.72 319.56 234.7 321.69 234.72 323.83C234.74 324.97 235.42 325.66 236.5 325.83C237.53 325.99 238.33 325.51 238.69 324.51C238.86 324.05 238.88 323.51 238.89 323.01C238.91 321.13 238.89 319.24 238.89 317.17C239.52 317.5 239.97 317.72 240.4 317.96C241.77 318.74 243.12 319.57 244.51 320.32C245.9 321.07 247.27 320.59 247.7 319.24C248.07 318.07 247.52 317.26 246.55 316.68C244.76 315.62 242.96 314.59 241 313.45C242.8 312.41 244.44 311.47 246.08 310.51C247.71 309.56 248.2 308.46 247.53 307.28C246.85 306.09 245.62 305.95 244.03 306.86C242.39 307.8 240.75 308.73 238.9 309.79L238.89 309.8Z" fill="white"/>
<path d="M117.31 295.79C117.41 295.59 117.53 295.4 117.6 295.19C118.87 291.02 122.11 288.58 126.51 288.57C134.18 288.55 141.85 288.57 149.52 288.57H151.15C151.15 287.87 151.15 287.32 151.15 286.78C151.15 276.04 151.15 265.31 151.15 254.57C151.15 250.14 153.45 247.61 158.03 247.2C158.03 246.74 158.03 246.25 158.03 245.77C158.11 240.94 157.87 236.08 158.33 231.29C159.57 218.3 169.78 207.39 182.68 204.87C201.81 201.13 219.31 215.49 219.39 235C219.41 239.04 219.39 243.07 219.39 247.18C219.97 247.25 220.47 247.28 220.96 247.38C224.01 248 226.09 250.45 226.25 253.7C226.33 255.28 226.3 256.86 226.26 258.44C226.22 259.93 225.35 260.89 224.13 260.86C222.9 260.84 222.12 259.91 222.09 258.37C222.07 256.98 222.11 255.58 222.07 254.19C222.02 252.3 221.18 251.46 219.32 251.46C198.92 251.46 178.51 251.46 158.11 251.46C156.28 251.46 155.36 252.27 155.36 254.05C155.33 265.34 155.35 276.64 155.36 287.93C155.36 288.11 155.43 288.28 155.48 288.51H179.19C179.56 285.35 179.94 282.19 180.27 279.03C180.31 278.66 180.03 278.25 179.86 277.88C178.2 274.17 178.44 270.6 180.95 267.38C183.47 264.15 186.91 262.96 190.87 263.83C194.78 264.69 197.29 267.24 198.29 271.14C198.89 273.47 198.58 275.73 197.56 277.93C197.31 278.48 197.2 279.17 197.25 279.77C197.53 282.67 197.88 285.57 198.22 288.52H222.01C222.03 288.03 222.08 287.54 222.08 287.05C222.08 281.24 222.08 275.43 222.08 269.62C222.08 269.11 222.06 268.59 222.16 268.09C222.36 267.11 223.04 266.39 224 266.56C224.75 266.69 225.53 267.26 226.04 267.86C226.36 268.23 226.26 269.01 226.26 269.61C226.27 275.37 226.26 281.14 226.26 286.9C226.26 287.4 226.26 287.91 226.26 288.58H227.86C235.44 288.58 243.01 288.58 250.59 288.58C256.38 288.58 260.09 292.3 260.09 298.08C260.09 307.56 260.09 317.04 260.09 326.52C260.09 332.33 256.43 336.01 250.6 336.01C217.46 336.02 184.32 336.01 151.18 336.01C150.81 336.01 150.43 336.02 150.07 335.96C149.01 335.78 148.27 335.05 148.39 334.07C148.48 333.34 149.1 332.51 149.72 332.05C150.2 331.7 151.06 331.81 151.74 331.81C184.55 331.81 217.37 331.76 250.18 331.85C254.11 331.86 256 329.44 255.95 326.05C255.81 316.76 255.9 307.46 255.9 298.16C255.9 294.57 254.09 292.74 250.51 292.74C209.28 292.74 168.06 292.74 126.83 292.74C123.32 292.74 121.48 294.57 121.48 298.05C121.48 307.53 121.48 317.01 121.48 326.49C121.48 330.01 123.28 331.79 126.81 331.79C131.09 331.79 135.36 331.79 139.64 331.79C140.1 331.79 140.58 331.77 141.02 331.88C142.16 332.16 142.79 332.91 142.68 334.11C142.58 335.23 141.89 335.95 140.77 335.95C135.47 335.97 130.16 336.16 124.88 335.83C121.43 335.62 119.07 333.37 117.81 330.09C117.63 329.62 117.46 329.15 117.29 328.68C117.29 317.71 117.29 306.74 117.29 295.77L117.31 295.79ZM162.16 247.14H171.74C171.74 242.89 171.68 238.75 171.75 234.62C171.9 226.05 178.5 218.93 187.05 218.03C195.41 217.15 203.27 222.76 205.17 231.06C205.54 232.67 205.64 234.37 205.67 236.03C205.74 239.73 205.69 243.43 205.69 247.16H214.97C214.97 241.92 215.39 236.73 214.89 231.63C213.69 219.37 203.49 209.64 191.22 208.53C178.64 207.39 166.91 215.29 163.34 227.28C161.4 233.8 162.57 240.47 162.16 247.14ZM201.46 247.2C201.46 242.72 201.67 238.39 201.41 234.09C201.02 227.47 195.64 222.37 189.25 222.18C182.54 221.98 176.85 226.59 176.14 233.31C175.69 237.54 175.96 241.85 175.92 246.12C175.92 246.47 175.99 246.83 176.03 247.2H201.46ZM194 288.51C193.82 286.98 193.65 285.6 193.49 284.22C193.33 282.84 193.26 281.44 193.03 280.07C192.8 278.68 192.99 277.44 193.66 276.19C195.02 273.65 194.43 270.77 192.3 269.03C190.2 267.31 187.21 267.32 185.12 269.04C182.97 270.81 182.39 273.65 183.75 276.2C184.42 277.46 184.57 278.69 184.38 280.08C184 282.86 183.75 285.65 183.43 288.51H194Z" fill="white"/>
<path d="M202.65 317.11C200.68 318.24 198.96 319.32 197.15 320.22C196.51 320.54 195.56 320.68 194.94 320.43C194.4 320.21 193.81 319.33 193.81 318.74C193.81 318.09 194.29 317.19 194.84 316.82C196.61 315.63 198.5 314.64 200.54 313.46C198.53 312.29 196.66 311.23 194.8 310.12C193.85 309.55 193.35 308.59 193.88 307.64C194.24 306.99 195.13 306.52 195.88 306.26C196.28 306.12 196.92 306.55 197.4 306.81C199.09 307.75 200.76 308.73 202.64 309.81C202.64 308.2 202.64 306.83 202.64 305.46C202.64 302.06 203.1 301.07 204.7 301.05C206.34 301.03 206.83 302.06 206.83 305.54V309.8C208.68 308.74 210.34 307.76 212.03 306.84C212.55 306.56 213.25 306.11 213.67 306.27C214.41 306.54 215.25 307.08 215.61 307.74C216.1 308.65 215.56 309.56 214.69 310.1C213.23 311 211.73 311.84 210.25 312.7C209.86 312.93 209.48 313.17 208.99 313.48C210.85 314.56 212.58 315.54 214.3 316.56C215.72 317.4 216.14 318.53 215.48 319.65C214.82 320.77 213.61 320.98 212.2 320.17C210.48 319.2 208.77 318.2 206.85 317.09C206.85 319.47 206.89 321.59 206.84 323.71C206.81 325 205.9 325.87 204.75 325.87C203.6 325.87 202.75 324.98 202.68 323.7C202.65 323.19 202.68 322.68 202.68 322.17C202.68 320.56 202.68 318.96 202.68 317.1L202.65 317.11Z" fill="white"/>
<path d="M170.59 309.8C170.59 307.56 170.58 305.56 170.59 303.56C170.6 302.02 171.37 301.11 172.63 301.08C173.95 301.04 174.76 301.97 174.77 303.59C174.78 305.58 174.77 307.58 174.77 309.85C176.68 308.75 178.43 307.75 180.17 306.73C181.08 306.2 181.99 306 182.89 306.68C184.08 307.58 183.95 309.31 182.55 310.17C180.74 311.29 178.88 312.32 176.9 313.48C178.75 314.55 180.47 315.54 182.17 316.54C183.63 317.4 184.06 318.48 183.43 319.61C182.77 320.8 181.54 321 180.05 320.15C178.37 319.19 176.69 318.22 174.75 317.11C174.75 319.4 174.77 321.46 174.75 323.52C174.73 324.99 173.84 325.94 172.6 325.89C171.41 325.84 170.6 324.93 170.58 323.52C170.55 321.48 170.58 319.44 170.58 317.15C169.15 317.96 167.88 318.69 166.62 319.41C166.1 319.71 165.58 320.03 165.05 320.31C163.73 321 162.53 320.73 161.92 319.61C161.33 318.55 161.71 317.45 162.96 316.7C164.71 315.66 166.49 314.65 168.5 313.48C167.01 312.62 165.68 311.86 164.35 311.09C163.87 310.81 163.38 310.55 162.91 310.25C161.69 309.48 161.33 308.37 161.94 307.31C162.54 306.25 163.71 305.95 164.95 306.62C166.38 307.39 167.77 308.23 169.18 309.04C169.57 309.26 169.97 309.48 170.59 309.81V309.8Z" fill="white"/>
<path d="M142.73 317.1C142.73 319.39 142.74 321.38 142.73 323.37C142.72 324.91 141.95 325.84 140.73 325.89C139.45 325.93 138.58 324.95 138.56 323.37C138.54 321.38 138.56 319.39 138.56 317.13C137.07 317.98 135.77 318.74 134.46 319.48C133.9 319.8 133.35 320.16 132.76 320.43C131.58 320.98 130.44 320.61 129.89 319.57C129.37 318.58 129.66 317.49 130.75 316.81C132.17 315.93 133.64 315.13 135.08 314.29C135.48 314.06 135.87 313.81 136.47 313.45C134.55 312.34 132.76 311.32 130.97 310.28C129.95 309.68 129.35 308.86 129.79 307.63C130.26 306.3 131.6 305.87 133 306.64C134.78 307.62 136.54 308.66 138.57 309.82C138.57 308.03 138.57 306.44 138.57 304.85C138.57 304.29 138.54 303.73 138.59 303.18C138.7 301.87 139.55 301.06 140.73 301.08C141.91 301.1 142.72 301.94 142.74 303.28C142.78 305.37 142.74 307.46 142.74 309.81C143.89 309.17 144.88 308.62 145.86 308.06C146.79 307.53 147.69 306.95 148.64 306.48C149.73 305.94 150.86 306.32 151.41 307.29C151.96 308.27 151.71 309.42 150.67 310.08C149.3 310.95 147.87 311.73 146.47 312.55C145.99 312.83 145.52 313.12 144.9 313.49C146.74 314.55 148.46 315.53 150.16 316.53C151.66 317.41 152.09 318.58 151.37 319.73C150.69 320.82 149.51 320.98 148.07 320.16C146.38 319.2 144.7 318.23 142.75 317.11L142.73 317.1Z" fill="white"/>
<path d="M238.88 309.81C240.73 308.75 242.37 307.82 244.01 306.88C245.61 305.97 246.84 306.11 247.51 307.3C248.18 308.48 247.69 309.58 246.06 310.53C244.42 311.48 242.78 312.43 240.98 313.47C242.94 314.61 244.74 315.64 246.53 316.7C247.5 317.27 248.05 318.08 247.68 319.26C247.25 320.61 245.89 321.09 244.49 320.34C243.1 319.59 241.75 318.77 240.38 317.98C239.95 317.73 239.5 317.52 238.87 317.19C238.87 319.26 238.88 321.15 238.87 323.03C238.87 323.53 238.84 324.07 238.67 324.53C238.31 325.53 237.51 326.01 236.48 325.85C235.4 325.68 234.72 324.99 234.7 323.85C234.67 321.71 234.7 319.58 234.7 317.16C233.84 317.63 233.13 318 232.44 318.39C231.31 319.03 230.2 319.71 229.06 320.33C227.81 321 226.63 320.71 226.03 319.66C225.42 318.6 225.78 317.45 226.99 316.72C228.78 315.65 230.6 314.62 232.57 313.48C230.73 312.41 229.01 311.42 227.3 310.42C225.79 309.54 225.35 308.41 226.06 307.24C226.72 306.14 227.91 305.96 229.34 306.77C231.06 307.74 232.77 308.73 234.69 309.84C234.69 307.6 234.68 305.62 234.69 303.64C234.7 301.99 235.46 301.07 236.77 301.08C238.08 301.08 238.85 302.01 238.87 303.66C238.89 305.64 238.87 307.61 238.87 309.82L238.88 309.81Z" fill="white"/>
<path d="M428.57 153.48C404.15 127.25 389.46 111.49 384.5 106.2C372.88 93.42 361.32 83.7 349.81 77.06C315.65 57.32 271.21 55.67 216.49 72.11C189.61 80.29 164.35 90.87 140.69 103.82C123.52 113.28 99.4598 128.89 68.5098 150.65C95.1298 132.98 125.1 119.46 158.41 110.08C193 100.64 220.7 95.26 241.53 93.94C262.29 92.73 286.86 94.84 315.24 100.27C343.74 105.76 367.24 118.87 385.75 139.58C404.49 160.43 425.65 178.52 449.23 193.84C472.74 209.28 499.59 219.22 529.78 223.64C560.09 228.13 588.28 226.99 614.36 220.23C608.85 217.59 599.83 215.77 587.32 214.78C574.74 213.91 551.26 210 516.89 203.06C482.45 196.24 453.02 179.71 428.59 153.48" fill="#30B9B5"/>
<path d="M8.72 221.05C1.97 226.11 -1.6 230.79 -2 235.08L50.54 202.38C66.39 192.49 78.06 185.61 85.54 181.73C112.2 168.13 141.55 159.56 173.6 156C203.81 152.66 234.62 153.93 266.01 159.81C320.61 170.07 377.08 193.99 435.42 231.57C457.81 246.23 469.31 253.72 469.9 254.06C483.26 262.38 495.35 268.81 506.17 273.36C525.26 281.18 547.59 286.3 573.14 288.73C583.28 289.78 592.02 289.34 599.34 287.4C608.74 285.08 615.05 280.39 618.26 273.32C580.55 278.35 537.78 268.77 489.95 244.59C477.88 238.4 458.58 227.36 432.06 211.46C407.36 196.75 387.93 185.94 373.77 179.04C332.23 158.87 289.15 146.94 244.54 143.25C197.81 139.45 153.94 145.21 112.93 160.51C80.69 172.68 45.97 192.85 8.74 221.03" fill="#30B9B5"/>
<path d="M175.96 32C173.54 34.42 172.34 37.35 172.34 40.8C172.34 44.25 173.55 47.18 175.96 49.6C178.37 52.02 181.31 53.22 184.76 53.22C188.21 53.22 191.14 52.01 193.56 49.6C195.98 47.18 197.18 44.25 197.18 40.8C197.18 37.35 195.97 34.42 193.56 32C191.15 29.58 188.21 28.38 184.76 28.38C181.31 28.38 178.38 29.59 175.96 32Z" fill="#30B9B5"/>
<path d="M267.79 0C261.8 0.15 256.75 2.27 252.66 6.36C248.57 10.45 246.45 15.5 246.3 21.49C246.45 27.48 248.57 32.53 252.66 36.62C256.9 40.86 261.94 42.98 267.79 42.98C273.78 42.83 278.83 40.71 282.92 36.62C287.01 32.53 289.13 27.48 289.28 21.49C289.28 15.64 287.16 10.6 282.92 6.36C278.83 2.27 273.78 0.15 267.79 0" fill="#30B9B5"/>
</g>
<defs>
<clipPath id="clip0_2_4149">
<rect width="620.24" height="336.03" fill="white" transform="translate(-2)"/>
</clipPath>
</defs>
</svg>
