<svg xmlns="http://www.w3.org/2000/svg" xmlns:xlink="http://www.w3.org/1999/xlink" width="366.289" height="129.042" viewBox="0 0 366.289 129.042">
  <defs>
    <clipPath id="clip-path">
      <path id="Path_24859" data-name="Path 24859" d="M1271.325,222.785V126.96a54.064,54.064,0,0,0-17.106,7.623c-2.806,1.9-17.563,12.287-22.1,30.945-5.567,22.916,5.936,51.526,24.846,57.113A27.9,27.9,0,0,0,1271.325,222.785Z" transform="translate(0)" fill="none"/>
    </clipPath>
  </defs>
  <g id="Group_9243" data-name="Group 9243" transform="translate(-8.711 -130.786)">
    <g id="Group_9067" data-name="Group 9067" transform="translate(360.86 60.169)">
      <g id="Group_9066" data-name="Group 9066" transform="translate(-355.86 69.934)">
        <path id="Path_24800" data-name="Path 24800" d="M62.2,144.287l-.014-.014a2.4,2.4,0,0,1,0-3.357l.014-.014a2.365,2.365,0,0,1,1.678-.683,2.311,2.311,0,0,1,1.687.69l.007.007a2.4,2.4,0,0,1,0,3.357l-.007.007a2.406,2.406,0,0,1-3.365.007Zm3.218-1.694a1.527,1.527,0,0,0-.448-1.1,1.472,1.472,0,0,0-1.089-.441,1.538,1.538,0,1,0,0,3.075,1.5,1.5,0,0,0,1.089-.441A1.53,1.53,0,0,0,65.414,142.593Z" transform="translate(-57.789 -128.53)" fill="#239cd1"/>
        <path id="Path_24801" data-name="Path 24801" d="M872.44,392.1l-.034-.034a5.865,5.865,0,0,1,0-8.188l.034-.034a5.771,5.771,0,0,1,4.1-1.666,5.611,5.611,0,0,1,4.111,1.684l.018.018a5.867,5.867,0,0,1,0,8.191l-.018.018a5.617,5.617,0,0,1-4.111,1.682,5.77,5.77,0,0,1-4.093-1.666Zm7.845-4.13a3.73,3.73,0,0,0-1.094-2.675,3.594,3.594,0,0,0-2.658-1.075,3.751,3.751,0,1,0,0,7.5,3.664,3.664,0,0,0,2.658-1.075,3.743,3.743,0,0,0,1.094-2.675Z" transform="translate(-556.261 -315.113)" fill="#239cd1"/>
        <path id="Path_24803" data-name="Path 24803" d="M941.777,171.456l-.018-.018a3.166,3.166,0,0,1,0-4.42l.018-.018a3.115,3.115,0,0,1,2.21-.9,3.044,3.044,0,0,1,2.222.908l.009.009a3.166,3.166,0,0,1,0,4.42l-.009.009a3.04,3.04,0,0,1-2.222.908A3.115,3.115,0,0,1,941.777,171.456Zm4.237-2.231a2.011,2.011,0,0,0-.59-1.444,1.939,1.939,0,0,0-1.434-.581,2.025,2.025,0,1,0,0,4.05,1.972,1.972,0,0,0,1.434-.581A2.014,2.014,0,0,0,946.015,169.225Z" transform="translate(-610.338 -148.47)" fill="#239cd1"/>
        <path id="Path_24804" data-name="Path 24804" d="M412.121,161.845q-1.069-4.14-3.334-5.364a5.525,5.525,0,0,0-3.463-.99,2.734,2.734,0,0,0-1.561.65,6.225,6.225,0,0,1,2.942,1.954,8.807,8.807,0,0,1,1.849,3.073,18.781,18.781,0,0,1,.626,7.137,65.592,65.592,0,0,1-1.8,11.535l-1.172,4.453q-3.333,8.125-2.84,12.866a23.863,23.863,0,0,0,2.84,9.035,20.982,20.982,0,0,0,5.729,6.9,54.948,54.948,0,0,1,.73-9.87,28.731,28.731,0,0,1,2.76-7.968q2.007-4.036,3.959-4.478a5.627,5.627,0,0,1,3.671.39q.99-5.7-3.2-4.714-4.271.964-6.275,6.98-2.033,5.991-2.475,7.37.1-2.29.313-4.843.391-4.3.859-7.005a67.355,67.355,0,0,1,3.359-12.578,44.969,44.969,0,0,1,6.615-11.8q.417-.573.807-1.015-4.922-1.746-7.735,6.9a101.507,101.507,0,0,0-3.984,14.973,99.572,99.572,0,0,0-1.38,11.25q-.287,5.1-.39,9.74a71.37,71.37,0,0,1-1.666-7.735,41.177,41.177,0,0,1,.285-15.442,65,65,0,0,1,3.021-11.9,16.165,16.165,0,0,0,.911-9.5m-3.073-12.786q.808-2.16-1.3-4.975-.156-.235-4.9-5.079l-.807,3.2a16.408,16.408,0,0,0-.494,2.579,11.7,11.7,0,0,0-.077,2.552,6.573,6.573,0,0,0,1.978,3.828,6.768,6.768,0,0,0,3.463,2.006,24.818,24.818,0,0,0,2.135-4.116Z" transform="translate(-317.057 -128.565)" fill="#adc880"/>
        <path id="Path_24805" data-name="Path 24805" d="M946.6,243.456q-.782-3.035-2.441-3.929a4.05,4.05,0,0,0-2.537-.726,2.02,2.02,0,0,0-1.144.476,4.578,4.578,0,0,1,2.155,1.43,6.5,6.5,0,0,1,1.355,2.251,13.788,13.788,0,0,1,.459,5.226,48.009,48.009,0,0,1-1.317,8.451l-.858,3.263q-2.44,5.951-2.078,9.424a17.543,17.543,0,0,0,2.078,6.62,15.368,15.368,0,0,0,4.2,5.055,40.375,40.375,0,0,1,.533-7.23,20.936,20.936,0,0,1,2.023-5.836q1.47-2.955,2.9-3.28a4.11,4.11,0,0,1,2.689.286q.725-4.177-2.345-3.453-3.128.707-4.6,5.113-1.488,4.386-1.812,5.4.076-1.68.228-3.549.285-3.146.63-5.132a49.286,49.286,0,0,1,2.46-9.212,33.017,33.017,0,0,1,4.844-8.64c.2-.279.4-.529.591-.745q-3.6-1.279-5.666,5.056a74.09,74.09,0,0,0-2.92,10.969,73.047,73.047,0,0,0-1.012,8.242q-.209,3.738-.286,7.134a52.509,52.509,0,0,1-1.221-5.666,30.129,30.129,0,0,1,.209-11.312,47.627,47.627,0,0,1,2.213-8.717,11.846,11.846,0,0,0,.668-6.963m-2.251-9.366q.591-1.582-.954-3.643-.115-.173-3.585-3.72l-.591,2.345a12.2,12.2,0,0,0-.363,1.889,8.619,8.619,0,0,0-.058,1.869,4.819,4.819,0,0,0,1.449,2.8,4.935,4.935,0,0,0,2.537,1.468,18.385,18.385,0,0,0,1.564-3.013Z" transform="translate(-688.58 -151.272)" fill="#adc880"/>
        <path id="Path_24806" data-name="Path 24806" d="M286.462,422a3.151,3.151,0,0,0-1.315-2.116,2.189,2.189,0,0,0-1.366-.391,1.087,1.087,0,0,0-.617.257,2.473,2.473,0,0,1,1.16.77,3.5,3.5,0,0,1,.73,1.211,7.417,7.417,0,0,1,.247,2.813,25.856,25.856,0,0,1-.709,4.548l-.462,1.756a11.253,11.253,0,0,0-1.119,5.073,9.442,9.442,0,0,0,1.119,3.563,8.29,8.29,0,0,0,2.259,2.721,21.756,21.756,0,0,1,.287-3.892,11.309,11.309,0,0,1,1.088-3.143q.79-1.592,1.56-1.767a2.216,2.216,0,0,1,1.447.155q.391-2.249-1.263-1.859-1.683.38-2.474,2.752t-.975,2.907c.028-.6.068-1.239.123-1.909q.154-1.694.339-2.762a26.584,26.584,0,0,1,1.324-4.96,17.71,17.71,0,0,1,2.608-4.651q.164-.227.318-.4-1.941-.688-3.049,2.721a39.892,39.892,0,0,0-1.571,5.9,39.383,39.383,0,0,0-.544,4.435q-.112,2.012-.155,3.839a28.3,28.3,0,0,1-.657-3.049,16.245,16.245,0,0,1,.113-6.089,25.654,25.654,0,0,1,1.192-4.693,6.382,6.382,0,0,0,.36-3.747m-1.211-5.042a2.061,2.061,0,0,0-.514-1.961q-.063-.091-1.93-2l-.318,1.263a6.492,6.492,0,0,0-.195,1.016,4.656,4.656,0,0,0-.031,1.006,2.587,2.587,0,0,0,.78,1.51,2.664,2.664,0,0,0,1.366.791,9.965,9.965,0,0,0,.843-1.623Z" transform="translate(-240.185 -353.911)" fill="#adc880"/>
        <path id="Path_24809" data-name="Path 24809" d="M412.478,673.57a13.218,13.218,0,0,0,.542,2.123,14.853,14.853,0,0,0,.558,1.383.954.954,0,0,0,.589.578,1.54,1.54,0,0,0,.8-.042,1.006,1.006,0,0,0,.646-.479.691.691,0,0,0-.094-.761.749.749,0,0,0-.841-.271,1.266,1.266,0,0,0-.82.563,5.406,5.406,0,0,1-.62-1.472,9.173,9.173,0,0,1-.307-1.518L416.18,673a12.147,12.147,0,0,0,.506,1.935,14.846,14.846,0,0,0,.558,1.383.975.975,0,0,0,.589.584,1.619,1.619,0,0,0,.8-.042,1.024,1.024,0,0,0,.646-.485.682.682,0,0,0-.094-.756.739.739,0,0,0-.841-.271,1.269,1.269,0,0,0-.773.49,9.548,9.548,0,0,1-1.086-4.055l-4.17.831q.068.505.151.961Z" transform="translate(-347.66 -567.741)" fill="#cd3e5a"/>
        <path id="Path_24810" data-name="Path 24810" d="M860.5,311.025a30.849,30.849,0,0,0,1.265,4.953,34.424,34.424,0,0,0,1.3,3.226,2.242,2.242,0,0,0,1.375,1.352,3.581,3.581,0,0,0,1.874-.1,2.366,2.366,0,0,0,1.51-1.119,1.612,1.612,0,0,0-.22-1.778,1.744,1.744,0,0,0-1.958-.634,2.936,2.936,0,0,0-1.91,1.316,12.664,12.664,0,0,1-1.448-3.432,21.455,21.455,0,0,1-.719-3.542l7.571-1.583a28.109,28.109,0,0,0,1.181,4.516,34.358,34.358,0,0,0,1.3,3.226A2.282,2.282,0,0,0,873,318.793a3.729,3.729,0,0,0,1.874-.1,2.4,2.4,0,0,0,1.51-1.133,1.588,1.588,0,0,0-.22-1.764,1.724,1.724,0,0,0-1.958-.634,2.943,2.943,0,0,0-1.8,1.144,22.267,22.267,0,0,1-2.533-9.458l-9.726,1.936c.105.787.224,1.533.352,2.24Z" transform="translate(-548.094 -257.019)" fill="#cd3e5a"/>
        <path id="Path_24812" data-name="Path 24812" d="M852.8,95.117a3.626,3.626,0,1,0-.483,2.718,3.475,3.475,0,0,0,.483-2.718" transform="translate(-536.916 -91.545)" fill="#fa8536"/>
        <path id="Path_24813" data-name="Path 24813" d="M1017.471,151.209a2,2,0,1,0-.265,1.5,1.92,1.92,0,0,0,.265-1.5" transform="translate(-666.378 -135.78)" fill="#fa8536"/>
        <path id="Path_24814" data-name="Path 24814" d="M170.231,440.043a1.52,1.52,0,1,0-.2,1.141,1.458,1.458,0,0,0,.2-1.141" transform="translate(-145.155 -375.283)" fill="#c6629b"/>
        <path id="Path_24815" data-name="Path 24815" d="M144.784,99.518a.787.787,0,1,0-.1.591.752.752,0,0,0,.1-.591" transform="translate(-125.323 -94.392)" fill="#c6629b"/>
        <path id="Path_24816" data-name="Path 24816" d="M833.932,406.137a1.462,1.462,0,1,0-.195,1.095,1.4,1.4,0,0,0,.195-1.095" transform="translate(-693.648 -347.306)" fill="#c6629b"/>
        <path id="Path_24817" data-name="Path 24817" d="M540.721,119.969a2,2,0,1,0-.265,1.5,1.92,1.92,0,0,0,.265-1.5" transform="translate(-298.704 -111.688)" fill="#fa8536"/>
        <path id="Path_24818" data-name="Path 24818" d="M844,475.105a3.714,3.714,0,1,0-.494,2.782,3.551,3.551,0,0,0,.494-2.782" transform="translate(-530 -384.544)" fill="#fa8536"/>
        <path id="Path_24820" data-name="Path 24820" d="M144.621,444.093a.736.736,0,1,0-.1.554.706.706,0,0,0,.1-.554" transform="translate(-125.269 -379.135)" fill="#fa8536"/>
        <path id="Path_24821" data-name="Path 24821" d="M852.322,656.461a2.042,2.042,0,1,0-.271,1.534,1.959,1.959,0,0,0,.271-1.534" transform="translate(-573.795 -541.935)" fill="#fa8536"/>
        <g id="Group_9052" data-name="Group 9052" transform="translate(52.441 25.474)">
          <path id="Path_24822" data-name="Path 24822" d="M343.185,245.427a1.009,1.009,0,1,0,.639.426.973.973,0,0,0-.639-.426" transform="translate(-341.987 -240.917)" fill="#fa8536"/>
          <path id="Path_24823" data-name="Path 24823" d="M357.135,229.117a1,1,0,0,0-1.023,1.546.961.961,0,0,0,.639.426,1,1,0,0,0,.384-1.972" transform="translate(-353.514 -227.441)" fill="#fa8536"/>
          <path id="Path_24824" data-name="Path 24824" d="M379.939,219.592a1.469,1.469,0,1,0,.931.62,1.414,1.414,0,0,0-.931-.62" transform="translate(-371.903 -219.563)" fill="#fa8536"/>
          <path id="Path_24825" data-name="Path 24825" d="M361.434,243.121a3.665,3.665,0,1,0,2.325,1.548,3.513,3.513,0,0,0-2.325-1.548" transform="translate(-354.456 -238.968)" fill="#fa8536"/>
        </g>
        <g id="Group_9055" data-name="Group 9055" transform="translate(87.746 95.066)">
          <path id="Path_24834" data-name="Path 24834" d="M660.72,689.07a2.212,2.212,0,1,1-1.4.933,2.132,2.132,0,0,1,1.4-.933" transform="translate(-641.575 -679.191)" fill="#fa8536"/>
          <path id="Path_24835" data-name="Path 24835" d="M646.78,672.77a2.212,2.212,0,1,1-1.4.933,2.134,2.134,0,0,1,1.4-.933" transform="translate(-632.943 -669.097)" fill="#fa8536"/>
          <path id="Path_24836" data-name="Path 24836" d="M620.049,663.257a3.218,3.218,0,1,1-2.041,1.359,3.1,3.1,0,0,1,2.041-1.359" transform="translate(-615.886 -663.193)" fill="#fa8536"/>
          <path id="Path_24837" data-name="Path 24837" d="M619.819,686.839a8.033,8.033,0,1,1-5.095,3.393,7.7,7.7,0,0,1,5.095-3.393" transform="translate(-613.338 -677.736)" fill="#fa8536"/>
        </g>
        <g id="Group_9057" data-name="Group 9057" transform="translate(117.644 18.945)">
          <g id="Group_9056" data-name="Group 9056" transform="translate(0 0)">
            <path id="Path_24838" data-name="Path 24838" d="M390.809,446.22q-13.036.465-15.672.55a35.956,35.956,0,0,1-10.95-.951q-13.872-3.709-23.724-22.025a96.875,96.875,0,0,1-7.563-18.445,207.568,207.568,0,0,1-4.35-20.418,76.739,76.739,0,0,0,8.464,22.383q6.474,11.331,11.492,17.03a74.106,74.106,0,0,0,13.733,11.56,29.849,29.849,0,0,0,18.842,5.353,77.25,77.25,0,0,1,20.2,1.581,47.717,47.717,0,0,1,18.932,8.706,51.185,51.185,0,0,1,13.926,15.1,19.969,19.969,0,0,1-5.575-3.7,161.261,161.261,0,0,0-14.1-10.072,39,39,0,0,0-23.656-6.641" transform="translate(-326.625 -358.346)" fill="#239cd1"/>
            <path id="Path_24839" data-name="Path 24839" d="M336.121,271.776q-.435-3.04.568-4.246l3.4,14.623q1.535,6.623,2.461,9.547a61.559,61.559,0,0,0,10.695,19.523,75.851,75.851,0,0,0,16.507,15.2q16.694,11.412,41.377,16.752,9.534,1.99,9.773,2.056a63.78,63.78,0,0,1,9.535,2.912A57.2,57.2,0,0,1,444.569,357a17.751,17.751,0,0,1,4.266,4.723,6.309,6.309,0,0,1,.831,5.661q-8.41-11-26.944-17.085-4.7-1.515-15.615-4.248-10.142-2.571-15.563-4.438a87.808,87.808,0,0,1-28.314-16.032,73.233,73.233,0,0,1-19.618-25.542q-5.166-11.426-7.493-28.259" transform="translate(-332.381 -267.53)" fill="#239cd1"/>
            <path id="Path_24840" data-name="Path 24840" d="M320.05,545.928a3.031,3.031,0,1,1,.888,2.131,2.908,2.908,0,0,1-.888-2.131" transform="translate(-320.05 -480.554)" fill="#239cd1"/>
            <path id="Path_24841" data-name="Path 24841" d="M332.47,607.817l-.039-.039a6.381,6.381,0,0,1,0-8.908l.039-.038a6.275,6.275,0,0,1,4.454-1.812,6.1,6.1,0,0,1,4.472,1.832l.018.018a6.381,6.381,0,0,1,0,8.908l-.018.02a6.112,6.112,0,0,1-4.472,1.83A6.28,6.28,0,0,1,332.47,607.817ZM341,603.324a4.065,4.065,0,0,0-1.189-2.91,3.907,3.907,0,0,0-2.892-1.171,4.081,4.081,0,1,0,0,8.161,3.91,3.91,0,0,0,2.892-1.171,4.069,4.069,0,0,0,1.189-2.91Z" transform="translate(-328.227 -522.411)" fill="#239cd1"/>
          </g>
          <path id="Path_24842" data-name="Path 24842" d="M524.924,453.05a6.937,6.937,0,0,0,1.269,1.918q-.973.676-11.054-.3-10.081-1.027-19.107-8.324-3.594-3.027-7.054-5.46l-.081-.081a85.371,85.371,0,0,0-8.215-5.243q-1.378-.676-2.919-1.378-1.352-.622-2.432-1.135,3.783,14.919,13.027,20.324,9.217,5.431,25.782,7.35,16.593,1.891,17.324,1.108T531.3,458.7a5.824,5.824,0,0,0-2.377-3.217q-1.515-.919-1.433-2.054.08-1.189,2.73-1.189.513-1.215-.865-1.865-1.352-.188-2.756-.406-12.7-2.4-27.187-12.026a22.8,22.8,0,0,0-4.216-2.271l-.108-.081q-4.242.028-6.81.3c-.487.019-.963.027-1.433.027l5.621,3.134q4.325,2.676,10.837,6.648a41.1,41.1,0,0,0,16.188,5.243q1.866.271,3.729.459,1.837.134,1.622.54a1.44,1.44,0,0,0,.081,1.108m-23.485-.6a1.141,1.141,0,0,1,0,.974,1.128,1.128,0,0,1-.838.459,2.065,2.065,0,0,1-1.163-.243,2.483,2.483,0,0,1-.838-.891,1.082,1.082,0,0,1,0-.946,1.25,1.25,0,0,1,.838-.459,2,2,0,0,1,1.163.27,2.089,2.089,0,0,1,.838.838m-11.107-8.081a2.708,2.708,0,0,1,1.189,1.189,1.375,1.375,0,0,1-1.189,1.973,2.651,2.651,0,0,1-2.757-1.593,1.37,1.37,0,0,1,0-1.3,1.478,1.478,0,0,1,1.189-.676,2.5,2.5,0,0,1,1.567.406m4.892,4.324a2.33,2.33,0,0,1,1.027,1.054,1.259,1.259,0,0,1,0,1.189,1.028,1.028,0,0,1-.136.189,1.639,1.639,0,0,1-.893.406,2.514,2.514,0,0,1-1.459-.3,2.607,2.607,0,0,1-1.027-1.135,1.21,1.21,0,0,1,0-1.163,1.492,1.492,0,0,1,.54-.459,1.682,1.682,0,0,1,.514-.136,2.279,2.279,0,0,1,1.433.351m33.593-1.08q.379.054,1.163.108a1.9,1.9,0,0,0,1.514-.81q-3.891-1.486-15.836-6.4-11.864-4.946-18-4.918h-1.216a15.041,15.041,0,0,1,2.73.893,30.231,30.231,0,0,1,3.378,1.756,71.077,71.077,0,0,0,25.377,9.215c.342.053.64.108.891.162" transform="translate(-371.423 -467.656) rotate(9)" fill="#c6629b"/>
        </g>
        <g id="Group_9059" data-name="Group 9059" transform="translate(242.068 52.708) rotate(158)">
          <path id="Path_24843" data-name="Path 24843" d="M770.6,248.009a75.07,75.07,0,0,0,2.45-8.574q1.439-5.962,6.356-15.716a61.293,61.293,0,0,1,15.051-18.43,70.32,70.32,0,0,0-16,14.289q-7.757,9.345-10.577,17.007-2.859,7.657-2.079,11.186a4.606,4.606,0,0,0,.707,2.1,1.813,1.813,0,0,0,2.156.842q.885-.137,1.932-2.7" transform="translate(-725.178 -182.126)" fill="#5db6b4"/>
          <g id="Group_9058" data-name="Group 9058" transform="translate(0 0.001)">
            <path id="Path_24844" data-name="Path 24844" d="M657.372,231.031a4.49,4.49,0,0,0,.018,2.256q.57,1.567,1.937,1.37.95-.008,2.977-2.5a97.8,97.8,0,0,0,5.647-8.523q3.646-5.907,12.345-15.184a81.239,81.239,0,0,1,22.35-16.246,95.015,95.015,0,0,0-21.834,11.759q-11.506,8.243-17.191,15.733-5.678,7.411-6.248,11.339" transform="translate(-635.752 -171.327)" fill="#5db6b4"/>
            <path id="Path_24845" data-name="Path 24845" d="M536.393,169.458q3.184,2.226,12.565,3.147,9.3.992,23.217-1.794a94.586,94.586,0,0,0,23.484-7.891,80.948,80.948,0,0,1-27.165,5.175q-12.695.039-19.534-1.341a100.034,100.034,0,0,0-10-1.706q-3.253-.255-3.845.427a1.748,1.748,0,0,0-.352,2.371,4.426,4.426,0,0,0,1.633,1.612" transform="translate(-534.461 -147.172)" fill="#5db6b4"/>
            <path id="Path_24846" data-name="Path 24846" d="M540.795,209.879a41.924,41.924,0,0,0,11.264-5.108q6.71-4.011,12.2-7.373,5.518-3.279,14.6-7.65,9.117-4.326,19.26-10-25.595,10.771-38.131,15.259-12.569,4.444-16.4,6.81a39.981,39.981,0,0,0-5.747,4.24q-1.916,1.874-1.853,3.385.1,1.554,4.813.436" transform="translate(-535.713 -161.056)" fill="#5db6b4"/>
            <path id="Path_24847" data-name="Path 24847" d="M589.672,73.108a1.806,1.806,0,0,0-.842,2.156,4.525,4.525,0,0,0,.994,2.013q2.113,2.932,9.613,6.129,7.505,3.158,19.673,3.925a73.326,73.326,0,0,0,21.339-1.971,60.336,60.336,0,0,1-23.736-1.587q-10.48-3.066-15.865-6.1a78.246,78.246,0,0,0-7.912-4.074q-2.573-1.008-3.264-.5Z" transform="translate(-579.265 -72.934)" fill="#5db6b4"/>
          </g>
        </g>
        <g id="Group_9061" data-name="Group 9061" transform="translate(4.989 75.459)">
          <path id="Path_24848" data-name="Path 24848" d="M52.2,500.757a63.05,63.05,0,0,0-.505,7.454A65.477,65.477,0,0,1,49.239,522.2a51.347,51.347,0,0,1-9.1,17.735,58.921,58.921,0,0,0,10.6-14.508q4.719-9.016,5.685-15.786,1-6.772-.257-9.528a3.877,3.877,0,0,0-.947-1.595,1.519,1.519,0,0,0-1.913-.312q-.7.267-1.109,2.553" transform="translate(-40.14 -497.989)" fill="#cd3e5a"/>
          <g id="Group_9060" data-name="Group 9060" transform="translate(2.357 0.931)">
            <path id="Path_24849" data-name="Path 24849" d="M81.151,504.956a3.789,3.789,0,0,0-.409-1.845,1.434,1.434,0,0,0-1.828-.782q-.778.175-2,2.572a81.691,81.691,0,0,0-3.133,7.97,87.626,87.626,0,0,1-7.452,14.6A68.044,68.044,0,0,1,50.87,544.694,79.724,79.724,0,0,0,66.7,531.236q7.981-8.769,11.325-15.9,3.351-7.065,3.13-10.382" transform="translate(-50.87 -502.227)" fill="#cd3e5a"/>
            <path id="Path_24850" data-name="Path 24850" d="M123.593,635.821q-3-1.265-10.846-.376-7.787.817-18.7,5.538a79.282,79.282,0,0,0-17.854,10.58,67.789,67.789,0,0,1,21.344-9,86.536,86.536,0,0,1,16.237-2.324,82.941,82.941,0,0,0,8.493-.356q2.709-.359,3.076-1.024a1.463,1.463,0,0,0-.127-2,3.715,3.715,0,0,0-1.619-1.035" transform="translate(-70.628 -605.893)" fill="#cd3e5a"/>
            <path id="Path_24851" data-name="Path 24851" d="M111.024,538.438a35.1,35.1,0,0,0-8.33,6.158q-4.791,4.462-8.7,8.177-3.944,3.651-10.619,8.825-6.709,5.141-14.024,11.566,19.079-13.31,28.561-19.18,9.52-5.842,12.243-8.451a33.436,33.436,0,0,0,3.965-4.481,4.057,4.057,0,0,0,.925-3.1q-.353-1.256-4.018.485" transform="translate(-65.29 -529.694)" fill="#cd3e5a"/>
            <path id="Path_24852" data-name="Path 24852" d="M122.639,701.731a1.514,1.514,0,0,0,.312-1.913,3.8,3.8,0,0,0-1.167-1.474q-2.244-2.03-8.948-3.335-6.7-1.272-16.8.231A61.414,61.414,0,0,0,78.9,700.593a50.619,50.619,0,0,1,19.723-2.86,66.314,66.314,0,0,1,14.064,2.214,65.774,65.774,0,0,0,7.195,1.951q2.284.376,2.761-.167Z" transform="translate(-72.742 -652.203)" fill="#cd3e5a"/>
          </g>
        </g>
        <g id="Group_9063" data-name="Group 9063" transform="translate(315.972 86.914)">
          <path id="Path_24853" data-name="Path 24853" d="M876.706,439.7a49.879,49.879,0,0,0-.4,5.895,51.783,51.783,0,0,1-1.941,11.062,40.606,40.606,0,0,1-7.2,14.025,46.6,46.6,0,0,0,8.383-11.473,40.094,40.094,0,0,0,4.5-12.484q.79-5.355-.2-7.535a3.067,3.067,0,0,0-.749-1.261,1.2,1.2,0,0,0-1.513-.247q-.555.211-.877,2.019" transform="translate(-867.17 -437.509)" fill="#fa8536"/>
          <g id="Group_9062" data-name="Group 9062" transform="translate(1.864 0.738)">
            <path id="Path_24854" data-name="Path 24854" d="M901.847,443.915a3,3,0,0,0-.323-1.459,1.134,1.134,0,0,0-1.445-.618q-.615.138-1.581,2.034a64.565,64.565,0,0,0-2.477,6.3,69.3,69.3,0,0,1-5.893,11.546A53.811,53.811,0,0,1,877.9,475.342,63.047,63.047,0,0,0,890.416,464.7a53,53,0,0,0,8.956-12.575q2.65-5.587,2.476-8.211" transform="translate(-877.9 -441.757)" fill="#fa8536"/>
            <path id="Path_24855" data-name="Path 24855" d="M940.718,575.2q-2.371-1-8.577-.3a52.392,52.392,0,0,0-14.792,4.38,62.706,62.706,0,0,0-14.119,8.367,53.612,53.612,0,0,1,16.88-7.116,68.439,68.439,0,0,1,12.841-1.838,65.64,65.64,0,0,0,6.717-.281q2.142-.284,2.432-.81a1.157,1.157,0,0,0-.1-1.584,2.937,2.937,0,0,0-1.28-.818" transform="translate(-898.829 -551.527)" fill="#fa8536"/>
            <path id="Path_24856" data-name="Path 24856" d="M929.347,477.746a27.762,27.762,0,0,0-6.588,4.87q-3.789,3.528-6.88,6.466-3.119,2.887-8.4,6.979-5.306,4.065-11.091,9.147,15.089-10.526,22.587-15.169,7.529-4.62,9.682-6.684a26.432,26.432,0,0,0,3.136-3.544,3.208,3.208,0,0,0,.731-2.45q-.279-.993-3.178.384" transform="translate(-893.178 -470.833)" fill="#fa8536"/>
            <path id="Path_24857" data-name="Path 24857" d="M940.52,639.723a1.2,1.2,0,0,0,.247-1.513,3.01,3.01,0,0,0-.923-1.166q-1.775-1.605-7.076-2.637a40.772,40.772,0,0,0-13.287.182,48.564,48.564,0,0,0-13.551,4.234,40.031,40.031,0,0,1,15.6-2.262,52.436,52.436,0,0,1,11.122,1.751,52.021,52.021,0,0,0,5.69,1.543q1.806.3,2.184-.132Z" transform="translate(-901.06 -600.556)" fill="#fa8536"/>
          </g>
        </g>
        <path id="Path_24860" data-name="Path 24860" d="M833.542,581.6l-3.522-.39,2.573,2.323-1.807,3.587,3.613-1.936,3.171,2.865-1.021-4.087,3.153-1.639-3.622-.4-.866-3.563-1.672,3.241" transform="translate(-559.787 -483.294)" fill="#cd3e5a"/>
        <path id="Path_24861" data-name="Path 24861" d="M908.416,661.592,903.93,659.8l2.538,3.989-3.678,4.056,5.45-1.231,3.125,4.913.145-5.74,4.736-1.009-4.612-1.845.154-5-3.372,3.652" transform="translate(-615.564 -544.292)" fill="#cd3e5a"/>
        <path id="Path_24863" data-name="Path 24863" d="M552.4,380.931l-3.294-1.313,1.865,2.931-2.7,2.979,4-.9,2.3,3.61.108-4.217,3.48-.744-3.391-1.354.114-3.67-2.478,2.681" transform="translate(-322.877 -310.379)" fill="#ec8b4a"/>
        <path id="Path_24864" data-name="Path 24864" d="M71.048,80.214l-4.105-1.638,2.323,3.652L65.9,85.941l4.988-1.128,2.861,4.5.134-5.254,4.335-.924-4.223-1.689.142-4.574-3.089,3.344" transform="translate(-61.425 -76.186)" fill="#ec8b4a"/>
        <path id="Path_24865" data-name="Path 24865" d="M121.077,372.712a19.544,19.544,0,0,1-1.6,2.794,21.574,21.574,0,0,1-1.331,1.739,1.4,1.4,0,0,1-1.06.589,2.25,2.25,0,0,1-1.121-.374,1.475,1.475,0,0,1-.728-.931,1.016,1.016,0,0,1,.431-1.041,1.1,1.1,0,0,1,1.294-.056,1.853,1.853,0,0,1,.94,1.117,7.935,7.935,0,0,0,1.452-1.84,13.375,13.375,0,0,0,1.028-2.029l-4.328-2.227A17.894,17.894,0,0,1,114.588,373a21.572,21.572,0,0,1-1.331,1.739,1.427,1.427,0,0,1-1.063.6,2.371,2.371,0,0,1-1.121-.374,1.509,1.509,0,0,1-.726-.94,1,1,0,0,1,.429-1.034,1.084,1.084,0,0,1,1.294-.056,1.845,1.845,0,0,1,.9,1,14,14,0,0,0,3.119-5.313l5.575,2.8Q121.372,372.1,121.077,372.712Z" transform="translate(-98.132 -317.241)" fill="#fa8536"/>
        <path id="Path_24869" data-name="Path 24869" d="M111.12,88.358c.005,3.734.005,7.187,0,10.327-.005,5.679-.017,10.3-.017,10.3,0,3.438-.01,6.875-.01,10.313,0,.622,0,2.123.017,4.1.007.863.016,1.581.023,2.078a1.207,1.207,0,0,0,1.185,1.306A1.194,1.194,0,0,0,113.4,125.7c-.017-1.053-.04-2.644-.059-4.576-.026-2.731-.043-5.954-.005-16.437.019-5.332.033-7.121,0-10.417-.024-2.436-.063-4.442-.09-5.787a1.095,1.095,0,1,0-2.13-.123Zm26.864-8.77a121.883,121.883,0,0,0-29.265,2.717,131.042,131.042,0,0,0-15.94,4.625S81.336,90.789,73.474,97.411a9.883,9.883,0,0,0-3.061,4.406,7.63,7.63,0,0,0,.115,4.434,16.77,16.77,0,0,0,1.289,3.063,2.105,2.105,0,0,1,.49,1.539c-.05,1.044,0,2.1,0,3.146q0,3.143-.007,6.287-.008,6.288-.016,12.577,0,2.27-.005,4.538c-.007,5.019-.012.375-.014,6.9a1.143,1.143,0,0,0,2.285-.063c-.082-12.389-.089-13.614-.021-26q.016-2.65.033-5.3a51.426,51.426,0,0,0,5.04,4.166,64.618,64.618,0,0,0,5.521,3.49A75.852,75.852,0,0,0,96.3,125.848v.115c0,11.769.019,12.371.054,24.137a1.169,1.169,0,0,0,.919.877,1.22,1.22,0,0,0,1.275-1.141c-.01-11.225-.017-11.819-.017-23.044v-.085a30.088,30.088,0,0,1,6.15,3.662,13.839,13.839,0,0,1,4.173,4.256c.858,1.425.751,1.89,1.378,2.552.7.737,1.941,1.333,2.549.929.676-.448.351-1.987.169-2.846a12.491,12.491,0,0,0-2.689-5.292,19.7,19.7,0,0,0-5.235-4.206,36.612,36.612,0,0,0-6.494-3.176V105.493q.008-4.2,0-8.409-.005-3.37-.019-6.741a1.011,1.011,0,1,0-2.017,0c-.03,1.47-.068,3.709-.1,6.444-.042,4.018-.031,7-.036,8.207-.017,3.991-.052,12.83-.066,16.821q-1.545-.545-3.72-1.287a49.309,49.309,0,0,1-8.61-4.206q-19.138-12.246-.486-22.514a124.084,124.084,0,0,1,28.694-9.555,127.208,127.208,0,0,1,31.64-2.432q4.005.143,4.863-1.744-7.208-.4-10.7-.486Z" transform="translate(-64.303 -77.297)" fill="#5db6b4"/>
      </g>
    </g>
    <g id="Group_9064" data-name="Group 9064" transform="translate(-896.324 4.411)" clip-path="url(#clip-path)">
      <path id="Path_24858" data-name="Path 24858" d="M1307.233,198.828l.115-1.178a36.637,36.637,0,0,0-22.722,8.379l.037.013a38.245,38.245,0,0,0-6,53.811,38.466,38.466,0,0,0,6.752,6.669c.387.295.752.58,1.091.857l.049-.024a37.267,37.267,0,0,0,17.765,6.623,1.214,1.214,0,0,0,.3.062,17.837,17.837,0,0,1,.874-2.463,1.117,1.117,0,0,0-.425-.062.638.638,0,0,1,.158-.108,3.947,3.947,0,0,0-1.021.019,34.65,34.65,0,0,1-15.958-5.97l8.293-11.072a21,21,0,0,0,8.8,3.263,2.882,2.882,0,0,0,1.69.166,15.367,15.367,0,0,0,2.747.037,9.211,9.211,0,0,1-.078-1.447,22.436,22.436,0,0,1-2.553-.013,4.669,4.669,0,0,0-1.713-.215,19.3,19.3,0,0,1-7.96-2.979l3.021-4.01a14.67,14.67,0,0,0,5.024,1.944,37.814,37.814,0,0,0,4.581.252c.083-.323.181-.656.3-1a27.66,27.66,0,0,1-4.279-.189,13.468,13.468,0,0,1-4.951-1.8l6.091-8.164q.635-.678,1.185-1.221,2.615-2.809.344-6.053-.327-.353-.64-.745l-4.549-9.941a13.616,13.616,0,0,1,5.753-.812q.755.053,1.435.08l.357-1.056a6.305,6.305,0,0,0-1.642-.068,15.788,15.788,0,0,0-6.325.943l-2.094-4.605a19.808,19.808,0,0,1,8.965-1.307c.252.057.506.1.766.137l.5-1.492q-.559-.026-1.155-.067a20.442,20.442,0,0,0-9.707,1.462l-5.788-12.633a34.134,34.134,0,0,1,12.484-2.713c.019-.454.045-.892.08-1.312m-34.331,34.4,13.8,1.548a21.432,21.432,0,0,0,1.247,8.9l-12.86,5.021-.073-.025a33.958,33.958,0,0,1-2.116-15.448m13.956-.105-13.766-1.535a34.7,34.7,0,0,1,5.9-15.981l.024.049,11.367,7.906a21.612,21.612,0,0,0-3.521,9.562m-.611-25.166.024.049a36.021,36.021,0,0,1,6.889-4.4l5.741,12.535a21.679,21.679,0,0,0-3.975,2.631l-.013.037a19.252,19.252,0,0,0-3.494,3.484l-11.413-8a38.213,38.213,0,0,1,6.241-6.328m2.01,25.354a19.71,19.71,0,0,1,3.336-8.9l4.131,2.9a15.629,15.629,0,0,0-2.5,6.54l-4.968-.546m1.71,11.375,4.7-1.9a22.44,22.44,0,0,0,1.834,2.854,15.344,15.344,0,0,0,2.712,2.541l-3.083,4.07a21.579,21.579,0,0,1-3.607-3.494l-.037-.013a22.841,22.841,0,0,1-2.521-4.059m9.833,2.72a14.9,14.9,0,0,1-2.481-2.382l-.011-.086a13.07,13.07,0,0,1-1.653-2.548l11.252-4.347L1299.8,247.4m-8.385,2.234a23.624,23.624,0,0,0,3.823,3.811l-8.354,11.01a37.2,37.2,0,0,1-6.3-6.193l.013-.037a35.035,35.035,0,0,1-4.885-7.986l12.945-5.034a19.177,19.177,0,0,0,2.763,4.425m4.344-29.738.037.013a20.874,20.874,0,0,1,3.707-2.438l2.107,4.569a19.632,19.632,0,0,0-2.658,1.737,14.139,14.139,0,0,0-2.234,2.166l-4.1-2.889a18.042,18.042,0,0,1,3.139-3.158m1.8,6.658a19.728,19.728,0,0,1,2.015-2l.037.013a13.562,13.562,0,0,1,2.487-1.594l4.549,9.819-9.088-6.242m-4.443,8.925a15.457,15.457,0,0,0,.9,5.742l-4.677,1.948a18.683,18.683,0,0,1-1.189-8.234l4.97.546m1.871,5.382a14.213,14.213,0,0,1-.863-5.244l11.117,1.207-10.254,4.037m12.486-5.473-13.182-1.459a14.015,14.015,0,0,1,2.253-6.056l10.93,7.515" transform="translate(-33.23 -59.433)" fill="#de2a57"/>
    </g>
    <g id="Group_9068" data-name="Group 9068" transform="translate(302.256 -102.429)">
      <path id="Path_24802" data-name="Path 24802" d="M1303.514,186.658l-.014-.014a2.428,2.428,0,0,1,0-3.39l.014-.014a2.389,2.389,0,0,1,1.7-.69,2.335,2.335,0,0,1,1.7.7l.007.007a2.428,2.428,0,0,1,0,3.39l-.007.007a2.332,2.332,0,0,1-1.7.7A2.389,2.389,0,0,1,1303.514,186.658Zm3.25-1.711a1.543,1.543,0,0,0-.453-1.107,1.488,1.488,0,0,0-1.1-.446,1.553,1.553,0,1,0,0,3.106,1.485,1.485,0,0,0,1.1-.446A1.546,1.546,0,0,0,1306.763,184.947Z" transform="translate(-1290.469 81.202)" fill="#239cd1"/>
      <g id="Group_9053" data-name="Group 9053" transform="translate(-25.395 300.315)">
        <path id="Path_24826" data-name="Path 24826" d="M1119.432,408.545a.7.7,0,1,1-.44.293.668.668,0,0,1,.44-.293" transform="translate(-1113.412 -405.438)" fill="#c6629b"/>
        <path id="Path_24827" data-name="Path 24827" d="M1109.922,397.415a.7.7,0,1,1-.441.293.669.669,0,0,1,.441-.293" transform="translate(-1105.571 -396.261)" fill="#c6629b"/>
        <path id="Path_24828" data-name="Path 24828" d="M1091.38,390.927a1.013,1.013,0,1,1-.642.428.977.977,0,0,1,.642-.428" transform="translate(-1090.072 -390.907)" fill="#c6629b"/>
        <path id="Path_24829" data-name="Path 24829" d="M1089.8,406.985a2.527,2.527,0,1,1-1.6,1.067,2.426,2.426,0,0,1,1.6-1.067" transform="translate(-1087.765 -404.123)" fill="#c6629b"/>
      </g>
      <path id="Path_24862" data-name="Path 24862" d="M1082.406,202.564l-3.369-1.344,1.907,3-2.764,3.048,4.094-.925,2.35,3.692.109-4.313,3.559-.758-3.466-1.386.116-3.755-2.536,2.744" transform="translate(-1105.257 66.963)" fill="#ec8b4a"/>
      <path id="Path_24870" data-name="Path 24870" d="M1054.982,86.177c.005,3.771.005,7.26,0,10.43-.005,5.736-.017,10.4-.017,10.4,0,3.473-.011,6.944-.011,10.416,0,.628,0,2.144.018,4.145.007.872.016,1.6.023,2.1a1.219,1.219,0,0,0,1.2,1.32,1.206,1.206,0,0,0,1.1-1.1c-.017-1.063-.04-2.671-.06-4.622-.026-2.759-.044-6.014-.005-16.6.019-5.385.033-7.193,0-10.522-.025-2.46-.063-4.487-.091-5.845a1.106,1.106,0,1,0-2.151-.125Zm27.134-8.858a123.106,123.106,0,0,0-29.559,2.744,132.364,132.364,0,0,0-16.1,4.671s-11.559,3.9-19.5,10.587a9.984,9.984,0,0,0-3.092,4.45,7.707,7.707,0,0,0,.116,4.478,16.947,16.947,0,0,0,1.3,3.094,2.126,2.126,0,0,1,.495,1.555c-.051,1.055,0,2.123,0,3.178q0,3.174-.007,6.351l-.016,12.7q0,2.293-.005,4.583c-.007,5.07-.012.379-.014,6.965a1.154,1.154,0,0,0,2.308-.063c-.083-12.513-.089-13.75-.021-26.264q.016-2.677.033-5.357a51.946,51.946,0,0,0,5.091,4.208,65.246,65.246,0,0,0,5.577,3.525,76.617,76.617,0,0,0,11.3,5.317v.116c0,11.887.019,12.5.054,24.379a1.181,1.181,0,0,0,.928.886,1.232,1.232,0,0,0,1.288-1.153c-.01-11.338-.018-11.938-.018-23.275v-.086a30.39,30.39,0,0,1,6.212,3.7,13.979,13.979,0,0,1,4.215,4.3c.867,1.439.758,1.909,1.392,2.578.7.744,1.96,1.346,2.574.939.683-.453.354-2.007.17-2.874a12.616,12.616,0,0,0-2.716-5.345,19.893,19.893,0,0,0-5.287-4.248,36.98,36.98,0,0,0-6.559-3.208V103.484q.008-4.246,0-8.493-.005-3.4-.019-6.809a1.022,1.022,0,1,0-2.037,0c-.03,1.485-.068,3.746-.1,6.508-.042,4.059-.031,7.07-.037,8.29-.017,4.031-.053,12.959-.067,16.99q-1.561-.55-3.757-1.3a49.809,49.809,0,0,1-8.7-4.248q-19.331-12.369-.491-22.74a125.332,125.332,0,0,1,28.982-9.651,128.486,128.486,0,0,1,31.958-2.457q4.046.145,4.912-1.762-7.281-.405-10.808-.491Z" transform="translate(-1052 168)" fill="#5db6b4"/>
    </g>
  </g>
</svg>
