<svg width="347" height="250" viewBox="0 0 347 250" fill="none" xmlns="http://www.w3.org/2000/svg">
<path d="M198.15 118.44C196.44 116.75 194.37 115.92 191.94 115.93C189.51 115.95 187.45 116.81 185.76 118.53C184.07 120.24 183.24 122.31 183.25 124.74C183.27 127.17 184.13 129.23 185.85 130.92C187.56 132.61 189.63 133.44 192.06 133.43C194.49 133.41 196.55 132.55 198.24 130.83C199.93 129.12 200.76 127.05 200.75 124.62C200.73 122.19 199.87 120.13 198.15 118.44Z" fill="#DF2A57"/>
<path d="M167.24 68.44L180.28 77.53L176.31 92.87L187.83 82.65L202.84 93.11L196.16 75.81L209.63 64.2L192.3 65.93L186.87 51.9L182.97 66.73L167.24 68.44Z" fill="#DF2A57"/>
<path d="M200.96 24.54L209.89 30.74L207.2 41.4L215.1 34.27L225.5 41.49L220.89 29.57L230.16 21.63L218.22 22.74L214.43 13.07L211.74 23.29L200.96 24.54Z" fill="#DF2A57"/>
<path d="M315.3 3.88L315.22 0C288.37 3.57 264.79 15.56 244.49 35.97L244.61 36C220.29 60.79 208.2 90.42 208.35 124.87C208.56 159.42 221.01 188.94 245.68 213.4C253.41 221.05 261.59 227.42 270.2 232.51C271.57 233.32 272.87 234.11 274.08 234.88L274.23 234.78C292.46 244.75 312.57 249.66 334.58 249.53C334.91 249.6 335.25 249.63 335.59 249.62C336.02 246.79 336.65 244.01 337.49 241.27C337 241.16 336.53 241.15 336.08 241.23C336.2 241.08 336.35 240.95 336.55 240.82C334.28 241.02 333.17 241.18 333.23 241.27C313.34 241.17 295.27 236.73 279.02 227.95L301.77 188.74C310.84 193.33 320.8 195.74 331.65 195.99C333.69 196.51 335.54 196.47 337.21 195.88C340.22 195.83 343.21 195.52 346.16 194.95C345.78 193.5 345.51 191.94 345.35 190.27C342.68 190.73 339.91 191.04 337.04 191.21C335.31 190.84 333.43 190.83 331.38 191.17C321.57 190.89 312.55 188.67 304.34 184.52L312.64 170.31C318.11 172.85 323.81 174.31 329.73 174.71C337.32 174.52 342.33 174.21 344.74 173.78C344.88 172.7 345.08 171.58 345.32 170.43C342.63 170.97 337.96 171.31 331.33 171.45C325.37 171.21 319.77 169.9 314.53 167.49L331.23 138.59C332.43 136.96 333.56 135.48 334.62 134.16C339.57 127.4 339.18 120.79 333.42 114.33C332.62 113.65 331.83 112.92 331.05 112.15L312.44 81.54C318.12 78.63 324.26 77.01 330.85 76.7C332.5 76.62 334.06 76.52 335.55 76.41L336.31 72.84C333.48 72.84 331.69 72.98 330.95 73.25C323.63 73.76 316.89 75.59 310.73 78.74L302.15 64.56C310.79 59.87 320.34 57.31 330.82 56.87C331.66 56.96 332.51 57.01 333.36 57.02L334.43 51.97C333.21 52.05 331.95 52.13 330.65 52.2C319.41 52.56 309.07 55.39 299.62 60.67L275.95 21.78C288.07 14.83 301.27 10.29 315.54 8.17C315.43 6.69 315.34 5.25 315.3 3.87M216.75 128.96L262.26 128.71C262.81 139.04 265.3 148.54 269.73 157.21L229.8 178.47L229.55 178.42C221.58 163.42 217.31 146.94 216.75 128.96ZM262.12 123.27L216.74 123.55C216.73 103.8 221.09 85.72 229.81 69.28L229.91 69.43L269.92 90.81C264.85 100.55 262.25 111.37 262.12 123.27ZM250.49 41.61L250.59 41.76C257.06 35.15 263.97 29.49 271.32 24.79L294.8 63.38C290.6 66.18 286.62 69.54 282.87 73.47L282.84 73.59C278.82 77.54 275.48 81.77 272.81 86.27L232.6 64.6C237.39 56.6 243.35 48.94 250.49 41.62M266.74 123.36C266.87 112.23 269.35 102.15 274.19 93.14L288.75 101C285.26 107.73 283.39 115.14 283.13 123.24L266.75 123.37M276.67 159.73L291.24 151.75C293.28 154.67 295.64 157.53 298.3 160.33C301.38 163.22 304.64 165.63 308.1 167.56L299.63 181.98C295.05 179.29 290.69 175.96 286.56 171.99L286.44 171.96C282.63 168.06 279.38 163.98 276.68 159.71M309.72 164.8C306.51 162.92 303.52 160.65 300.74 158L300.67 157.73C298.24 155.41 296.13 152.86 294.31 150.07L329.26 131.61L309.72 164.8ZM283.29 175.28C287.62 179.55 292.25 183.19 297.19 186.22L274.22 225.25C266.14 220.44 258.51 214.53 251.33 207.51L251.36 207.39C243.76 199.94 237.44 191.9 232.4 183.28L272.6 161.95C275.38 166.66 278.94 171.11 283.29 175.29M286.04 76.86L286.16 76.89C289.68 73.26 293.39 70.14 297.29 67.54L305.89 81.6C303.17 83.51 300.5 85.74 297.91 88.27C295.41 90.74 293.26 93.38 291.47 96.17L277.04 88.34C279.44 84.3 282.44 80.48 286.05 76.86M294.47 97.83C296.21 95.28 298.14 92.86 300.26 90.56L300.38 90.59C302.68 88.25 305.17 86.2 307.86 84.45L326.42 114.66L294.46 97.83M283.42 128.58C284.05 135.32 285.75 141.44 288.54 146.92L274.07 155.05C269.79 146.93 267.45 138.15 267.05 128.71L283.43 128.58M291.58 145.38C288.97 140.28 287.37 134.7 286.77 128.65L323.41 128.32L291.59 145.38M330.12 122.79L286.66 123.09C286.8 115.56 288.47 108.71 291.67 102.52L330.11 122.79" fill="#239DD2"/>
<path d="M32.7902 104.82C34.1802 108.53 36.6702 111.2 40.2602 112.83C43.8202 114.39 47.4502 114.48 51.1602 113.08C54.8102 111.71 57.4902 109.25 59.2002 105.71C60.8202 102.13 60.9402 98.48 59.5502 94.77C58.1602 91.06 55.6702 88.39 52.0902 86.76C48.4402 85.16 44.8002 85.04 41.1502 86.41C37.4402 87.8 34.7702 90.29 33.1402 93.88C31.5202 97.46 31.4002 101.11 32.7902 104.82ZM36.8902 103.28C35.9402 100.74 36.0302 98.22 37.1702 95.71C38.3102 93.2 40.1502 91.47 42.6902 90.52C45.3002 89.54 47.8202 89.63 50.2602 90.8C52.7702 91.94 54.5002 93.78 55.4502 96.32C56.4002 98.86 56.3102 101.38 55.1702 103.89C54.0702 106.31 52.2202 108.01 49.6102 108.98C47.0702 109.93 44.5602 109.87 42.0702 108.8C39.5602 107.66 37.8302 105.82 36.8802 103.28" fill="#FB8636"/>
<path d="M17.1901 75.13C18.0501 77.41 17.9601 79.67 16.9501 81.91C15.9301 84.15 14.2901 85.7 12.0101 86.55C9.7301 87.41 7.4701 87.32 5.2301 86.31C2.9901 85.29 1.44011 83.65 0.590106 81.37C-0.269894 79.09 -0.189893 76.83 0.830107 74.59C1.85011 72.35 3.49011 70.8 5.77011 69.95C8.05011 69.09 10.3101 69.17 12.5501 70.19C14.7901 71.21 16.3401 72.85 17.1901 75.13Z" fill="#FB8636"/>
</svg>
