<svg xmlns="http://www.w3.org/2000/svg" width="18.962" height="18.962" viewBox="0 0 18.962 18.962">
  <g id="Group_9241" data-name="Group 9241" transform="translate(-408.114 -552.073)">
    <path id="Path_18189" data-name="Path 18189" d="M426.372,571.035a4.584,4.584,0,0,1-.434-.272c-.832-.659-1.656-1.326-2.49-1.983a.538.538,0,0,0-.313-.11q-3.924-.009-7.85-.006a2.328,2.328,0,0,1-2.359-1.851,5.021,5.021,0,0,1-.057-1.2.564.564,0,0,1,.605-.506.589.589,0,0,1,.562.559c.01.179,0,.358,0,.537a1.2,1.2,0,0,0,1.277,1.272q4.008,0,8.016,0a1.061,1.061,0,0,1,.711.252c.558.458,1.125.9,1.689,1.355.042.033.086.063.158.115v-.206q0-4.84,0-9.683a1.2,1.2,0,0,0-1.2-1.311.592.592,0,1,1,.066-1.182,2.379,2.379,0,0,1,2.284,1.953.826.826,0,0,0,.038.119v11.7a.858.858,0,0,1-.445.444Z" fill="#fff"/>
    <path id="Path_18190" data-name="Path 18190" d="M408.115,560.274c0-1.931,0-3.862,0-5.793a2.351,2.351,0,0,1,1.854-2.344,2.513,2.513,0,0,1,.568-.061q5.275,0,10.551,0a2.366,2.366,0,0,1,2.431,2.433q0,3.491,0,6.979a2.368,2.368,0,0,1-2.447,2.437q-4.2,0-8.4,0a.474.474,0,0,0-.333.116q-1.522,1.279-3.055,2.549a2.087,2.087,0,0,1-.3.219.569.569,0,0,1-.833-.335,1.07,1.07,0,0,1-.035-.31q0-2.943,0-5.887m1.185,4.75.165-.132c.758-.632,1.519-1.261,2.273-1.9a1.03,1.03,0,0,1,.707-.258q4.285.008,8.572,0a1.2,1.2,0,0,0,1.319-1.322v-6.832A1.206,1.206,0,0,0,421,553.259H410.635A1.209,1.209,0,0,0,409.3,554.6v10.421Z" fill="#fff"/>
    <path id="Path_18191" data-name="Path 18191" d="M415.819,556.814c-1.172,0-2.345,0-3.517,0a.59.59,0,0,1-.59-.8.574.574,0,0,1,.505-.378,1.623,1.623,0,0,1,.185,0h6.83a1.382,1.382,0,0,1,.258.014.59.59,0,0,1-.117,1.169c-.666.006-1.333,0-2,0h-1.555" fill="#fff"/>
    <path id="Path_18192" data-name="Path 18192" d="M414.648,558c.777,0,1.555,0,2.332,0a.587.587,0,0,1,.56.833.6.6,0,0,1-.6.351q-1.9,0-3.794,0c-.284,0-.567,0-.851,0a.592.592,0,1,1,0-1.183c.783,0,1.567,0,2.35,0" fill="#fff"/>
  </g>
</svg>
