<svg xmlns="http://www.w3.org/2000/svg" width="42.997" height="42.975" viewBox="0 0 42.997 42.975"><path d="M85.2,674.507H65.413c-.172,0-.345.006-.516,0a1.133,1.133,0,0,1-1.114-1.579,48.4,48.4,0,0,0,1.971-13.1c.14-3.647.148-7.3.21-10.95.017-1,.2-1.269,1.12-1.617a26.639,26.639,0,0,0,7.329-4.424,45.711,45.711,0,0,0,8.414-8.565c.481-.663.892-1.377,1.323-2.076a1.178,1.178,0,0,1,2.1-.028,38.548,38.548,0,0,0,8.9,9.942,31.918,31.918,0,0,0,6.89,4.611c.448.211.915.383,1.376.566.845.336,1.031.6,1.041,1.495.031,2.868.021,5.736.1,8.6a69.974,69.974,0,0,0,1.145,11.909c.235,1.158.563,2.3.888,3.436.331,1.156-.109,1.784-1.317,1.785q-10.038,0-20.076,0m9.845-2.281c-1.684-6.347-1.876-12.751-1.879-19.271a5.572,5.572,0,0,1-4.262,1.11,5.762,5.762,0,0,1-3.7-2.208,5.635,5.635,0,0,1-7.925,1.125c-.039,6.535-.238,12.939-1.871,19.227h4.55c.088-.183.174-.353.253-.527a47.89,47.89,0,0,0,3.337-11.351c.187-1.014.354-2.033.576-3.04a1.059,1.059,0,0,1,1.053-.893,1.085,1.085,0,0,1,1.123.875,5.01,5.01,0,0,1,.122.559c.307,1.614.58,3.235.925,4.84a41.925,41.925,0,0,0,2.946,9.144c.08.168.291.388.445.392,1.413.03,2.826.018,4.308.018m-28.672,0c2.172,0,4.254.006,6.337-.015a.545.545,0,0,0,.4-.331,69.235,69.235,0,0,0,1.314-7.088c.346-3.784.414-7.593.6-11.391,0-.1-.01-.21-.021-.4a5.754,5.754,0,0,1-3.383,1.113,5.9,5.9,0,0,1-3.409-1.134c-.062,6.521-.22,12.917-1.837,19.247m29.019-19.2c.141,6.5.163,12.939,2.013,19.177h6.641c-1.623-6.308-1.763-12.728-1.819-19.2a5.906,5.906,0,0,1-6.835.024" transform="translate(-63.704 -631.534)" fill="#fff"/></svg>