<svg xmlns="http://www.w3.org/2000/svg" width="39.014" height="39.035" viewBox="0 0 39.014 39.035"><path d="M202.684,435.707A19.3,19.3,0,0,0,188.965,430h-.032a19.518,19.518,0,1,0,0,39.035,19.508,19.508,0,0,0,13.751-33.328M179.8,443.728c.616-.429,1.251-.84,1.876-1.251l.375-.25s-2.537-1.841-2.662-1.957a1.681,1.681,0,0,1-.25-2.243,1.634,1.634,0,0,1,2.26-.482c.367.214.715.464,1.064.714l1.036.724q1.032.711,2.064,1.448a2.263,2.263,0,0,1,1.01,1.814,2.08,2.08,0,0,1-.956,1.733c-1.224.885-2.511,1.724-3.753,2.529l-.152.089a1.747,1.747,0,0,1-.974.313,1.681,1.681,0,0,1-1.394-.8,1.643,1.643,0,0,1,.456-2.377m10.8,18.586a11.445,11.445,0,0,1-9.473-2.9,10.918,10.918,0,0,1-3.457-5.985.176.176,0,0,1-.011-.075,1.057,1.057,0,0,1,.2-.01c2.571-.011,5.153,0,7.724,0h14.242a2.755,2.755,0,0,1,.394.021,11.652,11.652,0,0,1-9.622,8.951m7.106-18.756c1.465.974,1.171,1.975.858,2.475a1.635,1.635,0,0,1-1.037.8,1.524,1.524,0,0,1-.348.036,2.467,2.467,0,0,1-1.331-.465c-1.135-.732-2.27-1.474-3.4-2.216a2.416,2.416,0,0,1-1.215-1.912,2.368,2.368,0,0,1,1.135-1.93c1.242-.875,2.484-1.742,3.735-2.618a1.732,1.732,0,1,1,1.974,2.815c-.75.536-1.5,1.072-2.269,1.617l-.107.081Z" transform="translate(-169.41 -430)" fill="#fff"/></svg>