<svg xmlns="http://www.w3.org/2000/svg" width="22.824" height="20.088" viewBox="0 0 22.824 20.088">
  <g id="Group_9199" data-name="Group 9199" transform="translate(-32.812 -605.323)">
    <path id="Path_16214" data-name="Path 16214" d="M44.259,618.331l3.768-4.056a1.121,1.121,0,1,0-1.632-1.536l-2.952,3.192-1.344-1.44a1.121,1.121,0,1,0-1.632,1.536l2.16,2.328a1.124,1.124,0,0,0,1.632-.024" fill="#fff"/>
    <path id="Path_25024" data-name="Path 25024" d="M53.788,612.763h-.744a8.962,8.962,0,0,0-17.664,0h-.72a1.864,1.864,0,0,0-1.848,1.848v3.1a1.833,1.833,0,0,0,.552,1.32,1.9,1.9,0,0,0,1.3.528h1.656a.86.86,0,0,0,.864-.864v-4.416a7.008,7.008,0,0,1,14.016,0V620.3a2.888,2.888,0,0,1-2.88,2.88H46.732a1.112,1.112,0,0,0-1.1-.864H42.772a1.152,1.152,0,0,0-1.152,1.152v.792a1.152,1.152,0,0,0,1.152,1.152h2.9a1.181,1.181,0,0,0,1.1-.864h1.584a4.256,4.256,0,0,0,4.248-4.248v-.768h1.176a1.855,1.855,0,0,0,1.3-.528,1.833,1.833,0,0,0,.552-1.32v-3.072a1.864,1.864,0,0,0-1.848-1.848" fill="#fff"/>
  </g>
</svg>
