<svg xmlns="http://www.w3.org/2000/svg" xmlns:xlink="http://www.w3.org/1999/xlink" width="31.07" height="31.07" viewBox="0 0 31.07 31.07">
  <defs>
    <clipPath id="clip-path">
      <rect id="Rectangle_1007" data-name="Rectangle 1007" width="31.07" height="31.07" fill="none"/>
    </clipPath>
  </defs>
  <g id="Group_9220" data-name="Group 9220" transform="translate(-167.484 -203.569)">
    <g id="Group_1598" data-name="Group 1598" transform="translate(167.484 203.569)">
      <g id="Group_1597" data-name="Group 1597" clip-path="url(#clip-path)">
        <path id="Path_4272" data-name="Path 4272" d="M180.241,223.6a1.414,1.414,0,1,0,1.048,1.365,1.256,1.256,0,0,0-1.048-1.365" transform="translate(-172.693 -210.069)" fill="#fff"/>
        <path id="Path_4273" data-name="Path 4273" d="M189.7,231.038a1.414,1.414,0,1,0,1.049,1.366,1.256,1.256,0,0,0-1.049-1.366" transform="translate(-172.968 -210.285)" fill="#fff"/>
        <path id="Path_4274" data-name="Path 4274" d="M195.184,219.386c-9.229-8.492-8.757-8.167-9.49-8.452a3.029,3.029,0,0,0-3.141.59l-8.544,7.862a4.7,4.7,0,0,0-1.511,3.451v13.921a2.971,2.971,0,0,0,2.959,2.976h18.278a2.971,2.971,0,0,0,2.959-2.976V222.837a4.7,4.7,0,0,0-1.511-3.451M183.716,216.4a.91.91,0,1,1,.727.982.909.909,0,0,1-.727-.982m-6.538,8.191a2.884,2.884,0,1,1,2.868,3.187,3.042,3.042,0,0,1-2.868-3.187m5.219,9.689a.912.912,0,0,1-.839-1.263l4.431-10.562a.91.91,0,0,1,1.679.7l-4.431,10.562a.912.912,0,0,1-.84.558m6.834.719a3.2,3.2,0,1,1,2.869-3.187A3.043,3.043,0,0,1,189.231,235" transform="translate(-172.498 -209.695)" fill="#fff"/>
        <path id="Path_4275" data-name="Path 4275" d="M203.854,229.417c-2.963-8.627-4.61-13.424-4.633-13.478a4.647,4.647,0,0,0-2.746-2.545c-.071-.024.346.077-6.256-1.489l6.712,6.176a6.525,6.525,0,0,1,2.1,4.791v11.8l3.274-1.4a2.956,2.956,0,0,0,1.549-3.849" transform="translate(-173.013 -209.729)" fill="#fff"/>
      </g>
    </g>
  </g>
</svg>
