<svg xmlns="http://www.w3.org/2000/svg" width="18.873" height="26.589" viewBox="0 0 18.873 26.589">
  <g id="Group_9230" data-name="Group 9230" transform="translate(-34.799 -233.497)">
    <path id="Path_5406" data-name="Path 5406" d="M52.327,245.487q-3.614-5.73-7.273-11.432a.878.878,0,0,0-1.631-.012c-2.446,3.831-4.9,7.657-7.319,11.5a8.476,8.476,0,0,0-1.3,4.688,9.649,9.649,0,0,0,3.182,7.288,8.627,8.627,0,0,0,9.62,1.828,9.612,9.612,0,0,0,4.725-13.864M44.8,256.567a2.552,2.552,0,0,1-.725,0,.833.833,0,0,1-.694-.812.846.846,0,0,1,.676-.83c.25-.053.513-.05.764-.1a4.415,4.415,0,0,0,3.419-2.978,4.194,4.194,0,0,0-.349-3.75c-.394-.685-.166-1.345.482-1.448a.876.876,0,0,1,.93.473,6.173,6.173,0,0,1,.937,3.3,6.267,6.267,0,0,1-5.44,6.152" fill="#fff"/>
  </g>
</svg>
