<svg xmlns="http://www.w3.org/2000/svg" xmlns:xlink="http://www.w3.org/1999/xlink" width="17.308" height="19.952" viewBox="0 0 17.308 19.952">
  <defs>
    <clipPath id="clip-path">
      <rect id="Rectangle_5863" data-name="Rectangle 5863" width="17.235" height="6.817" transform="translate(253.903 735.49)" fill="none"/>
    </clipPath>
  </defs>
  <g id="Group_9207" data-name="Group 9207" transform="translate(-253.866 -735.49)">
    <g id="Group_8836" data-name="Group 8836" opacity="0.5">
      <g id="Group_8835" data-name="Group 8835">
        <g id="Group_8834" data-name="Group 8834" clip-path="url(#clip-path)">
          <path id="Path_23894" data-name="Path 23894" d="M267.087,737.711v-1.5a.721.721,0,0,0-1.442,0v1.442h-6.25v-1.442a.721.721,0,0,0-1.443,0v1.5A4.084,4.084,0,0,0,253.9,741.8a.483.483,0,0,0,.481.509h16.269a.477.477,0,0,0,.481-.509,4.084,4.084,0,0,0-4.048-4.087" fill="#2e245a"/>
        </g>
      </g>
    </g>
    <path id="Path_23895" data-name="Path 23895" d="M263.2,748.433a1.123,1.123,0,0,1-.317.2.906.906,0,0,1-.731,0,1.123,1.123,0,0,1-.317-.2.975.975,0,0,1,0-1.366,1.123,1.123,0,0,1,.317-.2.888.888,0,0,1,.731,0,1.123,1.123,0,0,1,.317.2.975.975,0,0,1,0,1.366m-3.163-.318a1.092,1.092,0,0,1-.2.318,1.123,1.123,0,0,1-.317.2.906.906,0,0,1-.731,0,1.124,1.124,0,0,1-.317-.2,1.092,1.092,0,0,1-.2-.318.9.9,0,0,1,0-.73,1.092,1.092,0,0,1,.2-.318,1.124,1.124,0,0,1,.317-.2.964.964,0,0,1,.731,0,1.123,1.123,0,0,1,.317.2,1.092,1.092,0,0,1,.2.318.9.9,0,0,1,0,.73m-.2,3.683a1.1,1.1,0,0,1-.317.2.906.906,0,0,1-.731,0,1.1,1.1,0,0,1-.317-.2.974.974,0,0,1,0-1.365,1.1,1.1,0,0,1,.317-.2.964.964,0,0,1,.731,0,1.1,1.1,0,0,1,.317.2.974.974,0,0,1,0,1.365m10.375-8.048H254.827a.965.965,0,0,0-.961.962v5.923c0,2.884,1.442,4.807,4.808,4.807h7.692c3.365,0,4.808-1.923,4.808-4.807v-5.923a.965.965,0,0,0-.962-.962" fill="#2e245a"/>
  </g>
</svg>
