<svg xmlns="http://www.w3.org/2000/svg" width="39.634" height="39.635" viewBox="0 0 39.634 39.635"><path d="M207.1,832.243H170.768a1.652,1.652,0,0,0-1.651,1.652v36.332a1.651,1.651,0,0,0,1.651,1.651H207.1a1.651,1.651,0,0,0,1.651-1.651V833.9a1.652,1.652,0,0,0-1.651-1.652m-11.626,36.331h-1.586v-3.3a1.651,1.651,0,0,0-1.651-1.653H185.63a1.651,1.651,0,0,0-1.651,1.653v3.3h-1.585a27.514,27.514,0,0,0-.788-7.011c-.916-3.6-2.6-6.389-5.154-7.986,2.538-1.886,4.2-5.171,5.116-9.425a39.486,39.486,0,0,0,.813-8.6h13.1a39.435,39.435,0,0,0,.813,8.6c.916,4.254,2.578,7.539,5.116,9.425-2.549,1.6-4.238,4.381-5.154,7.986a27.512,27.512,0,0,0-.787,7.011m-6.709-24,1.782,3.61,3.985.58-2.883,2.81.68,3.968-3.564-1.873-3.564,1.873.681-3.968L183,848.766l3.985-.58Zm1.82,24h-3.3v-1.65h3.3Zm14.863-16.72c-3-.765-4.906-3.689-5.92-8.4a36.18,36.18,0,0,1-.725-7.908h6.645Zm-26.383-16.306a36.18,36.18,0,0,1-.725,7.908c-1.014,4.709-2.924,7.633-5.92,8.4V835.548Zm-6.645,19.973c3.116.6,5,2.993,5.986,6.855a24.345,24.345,0,0,1,.675,6.2h-6.661Zm26.367,13.053a24.35,24.35,0,0,1,.675-6.2c.982-3.862,2.871-6.252,5.986-6.855v13.053Z" transform="translate(-169.116 -832.243)" fill="#fff" fill-rule="evenodd"/></svg>