<?xml version="1.0" encoding="UTF-8"?>
<svg id="Layer_2" data-name="Layer 2" xmlns="http://www.w3.org/2000/svg" viewBox="0 0 15.43 17.5">
  <g id="Layer_1-2" data-name="Layer 1">
    <g>
      <path class="cls-1" d="m15.02,1.77v.84c0,.36-.41.58-.74.41-.4-.21-.83-.37-1.29-.47-.38-.1-.8-.14-1.22-.14-3.02,0-5.47,2.45-5.47,5.47,0,1,.27,1.98.79,2.82.44.74,1.05,1.35,1.71,1.76.15.1.31.18.46.27.15.08.25.24.25.4v1.81c0,.53-.35,1.24-.79,1.5l-1.23.8c-1.14.71-2.7-.09-2.7-1.51v-4.68c0-.62-.35-1.42-.7-1.86L.79,5.66c-.44-.45-.79-1.24-.79-1.77V1.86C0,.8.79,0,1.74,0h11.53c.95,0,1.74.8,1.74,1.77Z"/>
      <path class="cls-1" d="m12.18,3.82c-.29-.07-.6-.1-.91-.1-2.29,0-4.16,1.86-4.16,4.16,0,.78.22,1.51.6,2.14.32.54.77,1.01,1.31,1.34.65.43,1.42.67,2.24.67,1.52,0,2.84-.81,3.56-2.01.39-.63.6-1.36.6-2.14,0-1.98-1.38-3.64-3.25-4.05Zm.8,3.68l-2.13,2.13c-.08.08-.24.16-.36.18l-.81.11c-.3.04-.5-.17-.46-.46l.11-.81c.02-.11.1-.27.17-.36l1.82-1.82.31-.31c.37-.37.8-.54,1.33,0,.53.54.38.97,0,1.34Z"/>
    </g>
  </g>
</svg>