<svg xmlns="http://www.w3.org/2000/svg" width="44.194" height="42.365" viewBox="0 0 44.194 42.365"><path d="M83.293,570.577a19.758,19.758,0,0,0,4.943-.628,2.826,2.826,0,0,0-1.412-5.472A14.121,14.121,0,1,1,82.7,536.686a2.827,2.827,0,0,0-.233-5.649,19.775,19.775,0,0,0,.826,39.541Zm5.649-30.008c0,4.942,2.634,9.045,6.354,10.429v18.167a2.825,2.825,0,1,0,5.649,0V551c3.721-1.412,6.355-5.472,6.355-10.429,0-6.136-4.032-10.944-9.179-10.944S88.942,534.433,88.942,540.569Z" transform="translate(-63.106 -529.625)" fill="#fff"/></svg>