<svg xmlns="http://www.w3.org/2000/svg" width="51.331" height="34.001" viewBox="0 0 51.331 34.001"><path d="M309.92,544c-6.78-11.139-16.993-3.389-16.993-3.389a5.291,5.291,0,0,1-2.714.914l-2.735,0a5.273,5.273,0,0,1-2.713-.912s-10.215-7.752-17,3.388-4.047,23.261-4.047,23.261c.478,2.97,2.056,4.951,5.033,4.7s9.411-8,9.411-8a3.667,3.667,0,0,1,2.475-1.159l16.4,0a3.665,3.665,0,0,1,2.474,1.159s6.444,7.748,9.417,8,4.555-1.734,5.031-4.7c0,0,2.735-12.124-4.045-23.262m-27.239,9.067h-3.517v3.39a3.284,3.284,0,0,1-1.9.555,2.3,2.3,0,0,1-1.671-.62V553.07h-3.322a2.677,2.677,0,0,1-.525-1.544,3.549,3.549,0,0,1,.458-2.025h3.518v-3.516a3.812,3.812,0,0,1,1.764-.357,4.613,4.613,0,0,1,1.8.424l-.014,3.449H282.6a3.305,3.305,0,0,1,.628,1.645,4.156,4.156,0,0,1-.548,1.922m16.131,3.864a2.784,2.784,0,1,1,2.784-2.784,2.78,2.78,0,0,1-2.784,2.784m0-7.659a2.783,2.783,0,1,1,2.784-2.783,2.779,2.779,0,0,1-2.784,2.783m6.932,4.111a2.783,2.783,0,1,1,2.785-2.784,2.779,2.779,0,0,1-2.785,2.784" transform="translate(-263.179 -537.988)" fill="#fff"/></svg>