<svg xmlns="http://www.w3.org/2000/svg" width="30.763" height="42.992" viewBox="0 0 30.763 42.992"><path d="M200.5,262.611v-1.9a1.905,1.905,0,0,0-1.536-2.189V238a11.331,11.331,0,0,0,1.181-.172,5.6,5.6,0,0,0,4.162-5.2c.229-3.877-3.416-6.636-6.33-6.62-6.035.032-12.071-.017-18.106.021a6.4,6.4,0,0,0-6.287,5.791,5.643,5.643,0,0,0,4.106,6.005,10.887,10.887,0,0,0,1.488.18v20.518a1.924,1.924,0,0,0-1.576,2.159c0,.633,0,1.266,0,1.936-.026.016-.1.062-.173.1a3.331,3.331,0,0,0-1.969,2.869c-.073,1.123-.015,2.256-.015,3.413h27.207a33.745,33.745,0,0,0-.03-3.729,3.327,3.327,0,0,0-2.121-2.659m-5.855-23.364q0,3.5,0,6.992v.771q0,3.908,0,7.815a1.246,1.246,0,0,1-1.027,1.284,1.232,1.232,0,0,1-1.308-.777,2.16,2.16,0,0,1-.1-.7q-.008-7.506,0-15.013a1.522,1.522,0,0,1,.485-1.392,1.216,1.216,0,0,1,1.956,1.024m-6.941-2.009a1.414,1.414,0,0,1,.464-1.2,1.241,1.241,0,0,1,1.355-.153,1.064,1.064,0,0,1,.645,1.07c-.009,2.965,0,5.93,0,8.9q0,4.422,0,8.843c0,1.032-.744,1.669-1.61,1.321a2.193,2.193,0,0,1-.775-.8,1.022,1.022,0,0,1-.068-.551q0-8.714,0-17.429m-2.035,9.685q0,3.781,0,7.563a1.566,1.566,0,0,1-.431,1.319,1.125,1.125,0,0,1-1.19.244,1.153,1.153,0,0,1-.814-1.025c-.009-.1-.006-.205-.006-.308q0-7.692,0-15.385a1.2,1.2,0,0,1,1.255-1.355,1.09,1.09,0,0,1,1.186,1.229q0,3.859,0,7.718" transform="translate(-173.551 -226.007)" fill="#fff"/></svg>