<svg width="18" height="17" viewBox="0 0 18 17" fill="none" xmlns="http://www.w3.org/2000/svg">
<g opacity="0.4">
<path d="M16.6401 5.95749C16.2301 5.30749 15.7601 4.72748 15.2801 4.19748L12.1401 7.33749C12.2401 7.64749 12.3 7.97748 12.3 8.32748C12.3 10.1975 10.7901 11.6975 8.93005 11.6975C8.58005 11.6975 8.25006 11.6375 7.94006 11.5375L5.06006 14.4175C6.28006 15.0975 7.59006 15.4575 8.94006 15.4575C10.4201 15.4575 11.8601 15.0275 13.1801 14.2175C14.5001 13.3975 15.6801 12.2075 16.6501 10.6875C17.4801 9.3875 17.4801 7.25748 16.6501 5.94748" fill="white"/>
</g>
<path d="M8.9299 6.5675C9.1799 6.5675 9.4199 6.62748 9.6499 6.72748L7.3299 9.04749C7.2299 8.82749 7.16992 8.57748 7.16992 8.32748C7.16992 7.36748 7.9599 6.5675 8.9299 6.5675Z" fill="white"/>
<g opacity="0.4">
<path d="M14.1402 3.11749L11.3102 5.94748C10.7002 5.32748 9.86015 4.9675 8.93015 4.9675C7.06015 4.9675 5.56015 6.47749 5.56015 8.33749C5.56015 9.26749 5.94016 10.1075 6.54016 10.7175L3.72016 13.5475C2.80016 12.7975 1.95016 11.8375 1.22016 10.7075C0.390156 9.39749 0.390156 7.2775 1.22016 5.9675C2.19016 4.4475 3.37016 3.25748 4.69016 2.44748C6.01016 1.64748 7.45015 1.20749 8.93015 1.20749C10.7901 1.20749 12.5902 1.88748 14.1402 3.13748" fill="white"/>
</g>
<path d="M11.3201 8.32748C11.3201 9.63748 10.2501 10.7075 8.94006 10.7075C8.89006 10.7075 8.85005 10.7075 8.80005 10.6875L11.3101 8.17749C11.3301 8.22749 11.33 8.2675 11.33 8.3175" fill="white"/>
<path d="M17.07 0.1875C16.82 -0.0625 16.41 -0.0625 16.16 0.1875L0.780029 15.5675C0.530029 15.8175 0.530029 16.2275 0.780029 16.4775C0.900029 16.5975 1.06004 16.6575 1.23004 16.6575C1.40004 16.6575 1.56002 16.5875 1.68002 16.4675L17.06 1.08749C17.32 0.837494 17.32 0.4375 17.06 0.1875" fill="white"/>
</svg>
