<svg xmlns="http://www.w3.org/2000/svg" width="19.25" height="19.25" viewBox="0 0 19.25 19.25">
  <g id="Group_9205" data-name="Group 9205" transform="translate(-31 -738)">
    <path id="Path_23889" data-name="Path 23889" d="M48.6,742.774l-5.539-3.879a4.661,4.661,0,0,0-5.279.125l-4.817,3.764a4.959,4.959,0,0,0-1.721,3.5v6.641a4.455,4.455,0,0,0,4.442,4.457H46.048a4.447,4.447,0,0,0,4.443-4.447v-6.526a4.917,4.917,0,0,0-1.894-3.639m-7.01,10.762a.721.721,0,1,1-1.442,0v-2.888a.721.721,0,1,1,1.442,0Z" transform="translate(-0.241 -0.137)" fill="#df2a57"/>
  </g>
</svg>
