<svg xmlns="http://www.w3.org/2000/svg" width="12.002" height="12.787" viewBox="0 0 12.002 12.787">
  <g id="Group_9187" data-name="Group 9187" transform="translate(-284.921 -1001.584)">
    <path id="Path_2705" data-name="Path 2705" d="M284.921,1005.308v5.34c0,3.32,2.35,4.67,5.22,3.02l1.28-.74a1,1,0,0,0,.5-.87v-8.16a1,1,0,0,0-.5-.87l-1.28-.74c-2.87-1.65-5.22-.3-5.22,3.02" fill="#31225d"/>
    <path id="Path_2706" data-name="Path 2706" d="M292.921,1004.768v6.43a.5.5,0,0,0,.75.43l1.1-.64c2.87-1.65,2.87-4.37,0-6.02l-1.1-.64a.5.5,0,0,0-.75.44" fill="#31225d"/>
  </g>
</svg>
