<svg xmlns="http://www.w3.org/2000/svg" width="39.063" height="39.035" viewBox="0 0 39.063 39.035"><path d="M104,846.547a19.52,19.52,0,0,0-33.85-7.114H67.441a1.777,1.777,0,0,0,0,3.553h.382A19.518,19.518,0,1,0,104,846.547m-10.318,11.77a10.659,10.659,0,0,1-16.958,0,1.8,1.8,0,0,1-.282-1.76,1.77,1.77,0,0,1,3.029-.489,7.1,7.1,0,0,0,11.455,0,1.792,1.792,0,0,1,1.66-.631,1.77,1.77,0,0,1,1.378,1.12,1.8,1.8,0,0,1-.282,1.76M78.1,850.091v-1.776a1.772,1.772,0,1,1,3.544,0v1.776a1.763,1.763,0,0,1-.514,1.253,1.774,1.774,0,0,1-2.516,0,1.763,1.763,0,0,1-.514-1.253m10.649,0v-1.776a1.769,1.769,0,0,1,.889-1.536,1.744,1.744,0,0,1,1.776,0,1.768,1.768,0,0,1,.888,1.536v1.776a1.777,1.777,0,0,1-3.553,0M75.177,839.433a15.914,15.914,0,0,1,20.046,0Z" transform="translate(-65.669 -832.336)" fill="#fff"/></svg>