<svg xmlns="http://www.w3.org/2000/svg" width="40.207" height="36.47" viewBox="0 0 40.207 36.47"><path d="M195.069,643.877c.6-1.193,1.179-2.252,1.674-3.348a3.119,3.119,0,0,1,2.5-1.891c2.519-.448,5.028-.957,7.54-1.451a1.749,1.749,0,0,1,1.863.532,1.447,1.447,0,0,1,.269,1.472c-1.234,3.518-2.369,7.075-3.731,10.543a22.493,22.493,0,0,1-9.005,10.845,23.472,23.472,0,0,1-12.786,3.77.923.923,0,0,1-.216,0,3.368,3.368,0,0,0-3.32,1.189c-2.621,2.474-5.339,4.847-8.018,7.259-.134.121-.266.243-.4.358a1.5,1.5,0,0,1-2.252-.148,1.488,1.488,0,0,1,.205-2.173q3.4-3.09,6.83-6.157c.9-.809,1.813-1.6,2.684-2.435a1.346,1.346,0,0,0,.384-.825,24.754,24.754,0,0,1,4.339-13.229,22.31,22.31,0,0,1,8.593-7.482,1.541,1.541,0,0,1,2.263,1c.194.674.367,1.354.587,2.169M184.8,661.14a3.459,3.459,0,0,0,.411.009c7.538-.863,13.142-4.6,16.55-11.395a62.621,62.621,0,0,0,2.448-6.459c.309-.836.588-1.683.907-2.6-1.729.336-3.352.665-4.981.959a.9.9,0,0,0-.712.552c-1.086,2.158-2.189,4.306-3.29,6.456a1.645,1.645,0,0,1-1.644,1.008c-.7-.042-1.145-.478-1.383-1.318-.338-1.2-.667-2.4-1-3.593-.036-.128-.093-.251-.161-.43a20.832,20.832,0,0,0-9.279,14.48,1.545,1.545,0,0,0,.459-.3c2-1.792,3.993-3.592,6.009-5.367a2.291,2.291,0,0,1,1.024-.533,1.483,1.483,0,0,1,1.564.826,1.567,1.567,0,0,1-.424,1.867c-1.1,1.011-2.221,2-3.335,3-1.029.925-2.059,1.848-3.16,2.835" transform="translate(-168.803 -637.124)" fill="#fff"/></svg>