<svg xmlns="http://www.w3.org/2000/svg" width="14.315" height="16.919" viewBox="0 0 14.315 16.919">
  <g id="Group_9218" data-name="Group 9218" transform="translate(-33.602 -446.101)">
    <g id="Group_9042" data-name="Group 9042" transform="translate(0 11.003)">
      <g id="Group_9171" data-name="Group 9171">
        <path id="Path_24723" data-name="Path 24723" d="M41.312,452.224a2.82,2.82,0,1,1,2.82-2.821,2.823,2.823,0,0,1-2.82,2.821m0-4.339a1.519,1.519,0,1,0,1.518,1.518,1.52,1.52,0,0,0-1.518-1.518m0,11.279c-1.556,0-7.157-4.817-7.157-9.706a7.158,7.158,0,1,1,14.315,0c0,4.889-5.6,9.706-7.157,9.706m0-15.618a5.892,5.892,0,0,0-5.857,5.912c0,4.146,4.88,8.185,5.857,8.4.977-.216,5.856-4.255,5.856-8.4a5.892,5.892,0,0,0-5.856-5.912" transform="translate(-0.552 -7.147)" fill="#fff" fill-rule="evenodd"/>
      </g>
    </g>
  </g>
</svg>
