<svg xmlns="http://www.w3.org/2000/svg" width="32.802" height="32.804" viewBox="0 0 32.802 32.804">
  <g id="Group_9222" data-name="Group 9222" transform="translate(-24.458 -757.184)">
    <path id="Path_5403" data-name="Path 5403" d="M43.4,729.979a3.276,3.276,0,1,1,3.2,3.321,3.278,3.278,0,0,1-3.2-3.321m5.615.032a2.34,2.34,0,1,0-2.332,2.352,2.342,2.342,0,0,0,2.332-2.352" transform="translate(-5.818 36.469)" fill="#2e245a" stroke="#2e245a" stroke-width="0.8"/>
    <path id="Path_25025" data-name="Path 25025" d="M44.038,719.617a16.279,16.279,0,0,1,1.969.44,8.683,8.683,0,0,1,6.095,7.3,8.516,8.516,0,0,1-1.3,5.94c-.468.749-.941,1.495-1.425,2.264.1.065.183.122.27.171,1.5.843,2.989,1.689,4.49,2.521a1.1,1.1,0,0,1,.527.617q2.242,5.936,4.5,11.866a2.66,2.66,0,0,0,.121.248v.313c-.285.362-.443.4-.846.17q-3.563-2.006-7.122-4.02a.467.467,0,0,0-.534,0c-2.353,1.335-4.714,2.654-7.066,3.991a.774.774,0,0,1-.865,0c-2.351-1.338-4.712-2.658-7.064-3.993a.467.467,0,0,0-.535,0q-3.514,1.995-7.041,3.972l-.19.107a.459.459,0,0,1-.578-.042.47.47,0,0,1-.107-.569c.368-.962.729-1.925,1.094-2.888q1.738-4.577,3.473-9.156a1.094,1.094,0,0,1,.528-.615c1.492-.828,2.975-1.671,4.462-2.509.089-.051.178-.1.3-.174-.061-.105-.114-.2-.172-.295-.454-.723-.92-1.438-1.361-2.169a8.922,8.922,0,0,1,6.454-13.423c.142-.018.283-.049.424-.073Zm7.233,8.908c-.032-.362-.048-.727-.1-1.087a7.96,7.96,0,1,0-14.739,5.125c2.075,3.426,4.259,6.786,6.4,10.173.269.426.638.428.906,0,2.134-3.378,4.273-6.754,6.39-10.142a7.752,7.752,0,0,0,1.142-4.071M28.679,750.063c.1-.042.145-.057.187-.081q3.031-1.707,6.058-3.425a.6.6,0,0,0,.234-.362c.3-1.35.581-2.7.875-4.056a.457.457,0,0,1,.58-.413.469.469,0,0,1,.33.61c-.059.3-.125.59-.187.885-.233,1.1-.465,2.194-.7,3.308l6.729,3.789a.86.86,0,0,0,.032-.136q0-3.047,0-6.092a.433.433,0,0,0-.141-.24,5.194,5.194,0,0,1-.665-.68c-1.247-1.944-2.473-3.9-3.706-5.856-.057-.09-.118-.178-.212-.321-.031.124-.044.171-.054.219-.22,1.027-.437,2.054-.659,3.08-.084.388-.292.562-.58.5s-.412-.307-.332-.689c.119-.57.241-1.139.361-1.71.117-.555.233-1.111.356-1.7a1.36,1.36,0,0,0-.16.058c-1.351.761-2.7,1.519-4.048,2.29a.675.675,0,0,0-.244.334q-1.907,5-3.8,10c-.08.21-.153.422-.247.682m15.079.266c.152-.078.235-.118.314-.163,2.058-1.159,4.113-2.323,6.177-3.471a.372.372,0,0,0,.216-.488q-.882-4.1-1.75-8.207c-.067-.315-.142-.628-.228-1.007-.1.155-.159.239-.213.327-1.228,1.944-2.45,3.892-3.688,5.831a2.184,2.184,0,0,1-.588.626.464.464,0,0,0-.242.445c.006,1.917,0,3.832,0,5.749v.359m14.13-.268c-.044-.141-.069-.238-.105-.332q-1.969-5.189-3.945-10.375a.758.758,0,0,0-.311-.355c-1.282-.735-2.57-1.457-3.858-2.181-.074-.042-.155-.072-.255-.117.006.078,0,.12.011.159q1,4.7,2.006,9.395a.6.6,0,0,0,.275.334q2.942,1.674,5.9,3.328c.078.044.16.081.286.143" transform="translate(-2.429 37.967)" fill="#2e245a" stroke="#2e245a" stroke-width="0.8"/>
  </g>
</svg>
