<svg xmlns="http://www.w3.org/2000/svg" width="42.214" height="34.271" viewBox="0 0 42.214 34.271"><path d="M309.657,770.668a2.2,2.2,0,0,0-.661-.526,11.287,11.287,0,0,1-4.523-4.62,19.874,19.874,0,0,1-2.477-9.51,17.82,17.82,0,0,0-1.873-7.968,16.911,16.911,0,0,0-7.232-7.384,16.544,16.544,0,0,0-10.535-1.808,17.11,17.11,0,0,0-14.437,19.373,16.445,16.445,0,0,0,2.792,7.2,17.075,17.075,0,0,0,27.537.98c.778-.99,1.41-2.1,2.138-3.192.084.226.171.442.247.662a17.672,17.672,0,0,0,2.967,5.381,12.621,12.621,0,0,0,4.32,3.5,1.366,1.366,0,0,0,1.712-.376,1.348,1.348,0,0,0,.025-1.711m-24.614-27.587a4.572,4.572,0,1,1-4.765,4.445,4.579,4.579,0,0,1,4.765-4.445m-8.336,17.265a4.571,4.571,0,1,1,4.6-4.607,4.578,4.578,0,0,1-4.6,4.607m7.928,8.132a4.573,4.573,0,1,1,4.791-4.449,4.6,4.6,0,0,1-4.791,4.449m8.343-8.132a4.572,4.572,0,1,1,4.6-4.568,4.576,4.576,0,0,1-4.6,4.568" transform="translate(-267.737 -738.645)" fill="#fff"/></svg>