<svg xmlns="http://www.w3.org/2000/svg" width="49.757" height="43.009" viewBox="0 0 49.757 43.009"><path d="M82.471,464.634c-.695,0-1.367.029-2.036-.007a1.048,1.048,0,0,1-1.076-1.069,1.08,1.08,0,0,1,1.1-1.053c.149-.014.3,0,.449-.01.166-.006.332-.017.56-.029v-.635c0-1.632-.005-3.263,0-4.894a4.28,4.28,0,0,1,4.435-4.553q8.1-.06,16.2,0a4.279,4.279,0,0,1,4.42,4.517c.019,1.612,0,3.225,0,4.838,0,.221,0,.443,0,.762.361,0,.672-.018.981,0a1.067,1.067,0,1,1-.014,2.129c-.336.022-.675.008-1.013.009H105.5v4.265c.292,0,.584,0,.875,0,.937.012,1.876-.006,2.81.052a.949.949,0,0,1,.9,1.03,1.01,1.01,0,0,1-.943,1.006,4.765,4.765,0,0,1-.561.019q-23.378,0-46.754,0a3.78,3.78,0,0,1-.673-.036,1.007,1.007,0,0,1-.825-1,.982.982,0,0,1,.793-1.014,3.592,3.592,0,0,1,.726-.06q3.319-.006,6.639,0h.692c.018-.17.045-.3.045-.422q0-4.219,0-8.438c0-.275,0-.482-.358-.571a8.455,8.455,0,0,1-5.135-4.1,18.151,18.151,0,0,1-2.468-7.294,27.606,27.606,0,0,1,.41-10.385,15.5,15.5,0,0,1,3.9-7.6,6.2,6.2,0,0,1,9.319.037,16.2,16.2,0,0,1,3.982,7.758,25.342,25.342,0,0,1-.545,14.025,13.676,13.676,0,0,1-3.484,5.763,7.344,7.344,0,0,1-3.122,1.822.6.6,0,0,0-.364.421c-.021,2.906-.015,5.812-.012,8.719a1.358,1.358,0,0,0,.048.237H82.471Zm2.233,4.231H103.28v-4.2H84.7Z" transform="translate(-60.325 -428.007)" fill="#fff"/></svg>