<svg xmlns="http://www.w3.org/2000/svg" width="18.2" height="18.217" viewBox="0 0 18.2 18.217">
  <g id="Group_9239" data-name="Group 9239" transform="translate(-407.902 -619.259)">
    <path id="Path_18194" data-name="Path 18194" d="M418.114,619.259c.411.107.826.2,1.232.323a9.512,9.512,0,0,1,3.534,1.985,9.816,9.816,0,0,1,2.542,3.47,9.6,9.6,0,0,1,.671,2.257.51.51,0,0,1-.99.238c-.109-.38-.179-.772-.293-1.151a8.8,8.8,0,0,0-6.772-6.062c-.4-.075-.576-.26-.566-.563a.556.556,0,0,1,.393-.5Z" fill="#fff"/>
    <path id="Path_18195" data-name="Path 18195" d="M417.325,623.086a.513.513,0,0,1,.623-.511A5.92,5.92,0,0,1,421.782,625a5.825,5.825,0,0,1,1.009,2.384.52.52,0,1,1-1.009.25,9.058,9.058,0,0,0-.363-1.165,4.859,4.859,0,0,0-3.626-2.869.513.513,0,0,1-.468-.515" fill="#fff"/>
    <path id="Path_25029" data-name="Path 25029" d="M407.9,624.276c.026-.211.041-.424.082-.631a2.638,2.638,0,0,1,.7-1.353c.489-.5.961-1.021,1.487-1.479a1.668,1.668,0,0,1,2.444.029c.821.77,1.608,1.578,2.375,2.4a1.619,1.619,0,0,1,.013,2.179c-.41.467-.862.9-1.3,1.337a.179.179,0,0,0-.048.252,10.03,10.03,0,0,0,1.737,2.372,12.01,12.01,0,0,0,2.3,1.944c.244.155.5.284.776.435.293-.3.577-.59.867-.877.194-.191.389-.383.6-.557a1.625,1.625,0,0,1,2.138.031c.848.81,1.679,1.64,2.484,2.494a1.646,1.646,0,0,1,.028,2.24,22.183,22.183,0,0,1-1.689,1.726,2.809,2.809,0,0,1-2.224.64,10.588,10.588,0,0,1-4.24-1.492,17.5,17.5,0,0,1-4.349-3.407,17.176,17.176,0,0,1-3.64-5.657,7.218,7.218,0,0,1-.52-2.258.732.732,0,0,0-.025-.12Zm1.047.149c.019.206.035.413.059.619a2.686,2.686,0,0,0,.053.279,11.452,11.452,0,0,0,1.479,3.5,17.421,17.421,0,0,0,7.228,6.673,8.392,8.392,0,0,0,2.982.933,1.97,1.97,0,0,0,1.687-.571c.4-.414.806-.821,1.206-1.233a.777.777,0,0,0,0-1.264c-.294-.3-.6-.6-.893-.894-.415-.415-.826-.833-1.247-1.243a.681.681,0,0,0-1.014-.023c-.058.05-.113.1-.167.159-.407.406-.812.815-1.222,1.218a.762.762,0,0,1-.941.183,11,11,0,0,1-1.026-.565,13.386,13.386,0,0,1-2.915-2.562,9.575,9.575,0,0,1-1.524-2.24c-.3-.654-.259-.858.26-1.36.409-.4.817-.793,1.207-1.207a.66.66,0,0,0,.012-.973,1.527,1.527,0,0,0-.107-.12q-1.054-1.057-2.112-2.113a1.048,1.048,0,0,0-.256-.188.737.737,0,0,0-.913.217c-.4.391-.782.795-1.185,1.179a2.013,2.013,0,0,0-.652,1.595" fill="#fff"/>
  </g>
</svg>
