<svg xmlns="http://www.w3.org/2000/svg" width="32.053" height="32.053" viewBox="0 0 32.053 32.053">
  <g id="Group_9217" data-name="Group 9217" transform="translate(-25.684 -1287.291)">
    <path id="Path_24674" data-name="Path 24674" d="M40.49,1330.857c0,.738.028,1.478-.007,2.215a1.971,1.971,0,0,1-1.929,2.072,47.543,47.543,0,0,1-4.794,0,2.012,2.012,0,0,1-1.98-2.137q-.065-2.168,0-4.338a2.092,2.092,0,0,1,2.135-2.2c1.474-.067,2.955-.066,4.429-.005a2.094,2.094,0,0,1,2.151,2.269c.022.707,0,1.416,0,2.123Zm-2.857-1.53H34.64v2.974h2.993Z" transform="translate(-0.513 -21.43)" fill="#2e245a"/>
    <path id="Path_24675" data-name="Path 24675" d="M40.491,1318.436c0,.738.027,1.478-.006,2.215a2.016,2.016,0,0,1-1.987,2.126,44.932,44.932,0,0,1-4.7,0,2.038,2.038,0,0,1-2.013-2.12c-.049-1.475-.051-2.954,0-4.429a2.069,2.069,0,0,1,2.187-2.132q2.168-.058,4.338,0a2.056,2.056,0,0,1,2.185,2.217c.025.706,0,1.415,0,2.122h0M37.6,1320.01v-3.021H34.572c0,.885-.029,1.682.021,2.476.012.19.274.51.438.519.85.052,1.706.025,2.57.025" transform="translate(-0.513 -21.229)" fill="#2e245a"/>
    <path id="Path_24676" data-name="Path 24676" d="M52.885,1318.487c0,.707.019,1.416,0,2.123a2.047,2.047,0,0,1-2.04,2.175,44.991,44.991,0,0,1-4.612,0,2.09,2.09,0,0,1-2.057-2.272q-.035-2.075,0-4.153a2.109,2.109,0,0,1,2.244-2.267q2.121-.05,4.245,0a2.072,2.072,0,0,1,2.225,2.271c.016.707,0,1.415,0,2.122Zm-5.867,1.439h3v-2.965h-3Z" transform="translate(-0.713 -21.229)" fill="#2e245a"/>
    <path id="Path_24677" data-name="Path 24677" d="M28.9,1338.064c1.252,0,2.415,0,3.577,0,.37,0,.742-.014,1.108.024a1.248,1.248,0,0,1,1.24,1.25c.05.787-.335,1.4-1.119,1.429a48.915,48.915,0,0,1-5.53-.06,2.454,2.454,0,0,1-2.036-2.522c-.055-1.539-.041-3.08-.008-4.62a1.4,1.4,0,0,1,1.372-1.456,1.38,1.38,0,0,1,1.388,1.511c.022,1.44.007,2.881.007,4.443" transform="translate(-0.422 -21.521)" fill="#2e245a"/>
    <path id="Path_24678" data-name="Path 24678" d="M28.9,1311.224c0,1.432,0,2.747,0,4.062,0,1.235-.5,1.89-1.4,1.87-.886-.02-1.374-.7-1.378-1.923,0-1.292-.021-2.584,0-3.876A2.691,2.691,0,0,1,29,1308.449c1.415-.028,2.831-.021,4.246,0,1.04.014,1.6.519,1.595,1.38s-.56,1.368-1.606,1.389c-1.406.029-2.814.007-4.328.007" transform="translate(-0.422 -21.139)" fill="#2e245a"/>
    <path id="Path_24679" data-name="Path 24679" d="M55.749,1311.228c-1.325,0-2.547.008-3.768-.005-.4,0-.9.077-1.167-.127a2.453,2.453,0,0,1-.95-1.294,1.08,1.08,0,0,1,1.039-1.286,54.347,54.347,0,0,1,5.619.047A2.4,2.4,0,0,1,58.516,1311c.038,1.568.03,3.137.006,4.706a1.358,1.358,0,0,1-1.351,1.449,1.4,1.4,0,0,1-1.4-1.419c-.044-1.136-.015-2.276-.017-3.414v-1.1" transform="translate(-0.805 -21.14)" fill="#2e245a"/>
    <path id="Path_24680" data-name="Path 24680" d="M55.75,1338.066c0-1.5-.009-2.854,0-4.206.009-1.074.528-1.726,1.366-1.75.882-.026,1.407.621,1.413,1.769.008,1.385.017,2.771,0,4.156a2.607,2.607,0,0,1-2.6,2.78c-1.536.077-3.078.052-4.617.015a1.387,1.387,0,1,1,.079-2.758c1.411-.022,2.823-.006,4.36-.006" transform="translate(-0.805 -21.521)" fill="#2e245a"/>
    <path id="Path_24681" data-name="Path 24681" d="M48.553,1332.521c.922,0,1.845-.018,2.766,0,1,.025,1.532.5,1.558,1.323a1.333,1.333,0,0,1-1.454,1.433q-2.9.06-5.808,0a1.378,1.378,0,0,1-1.441-1.371,1.4,1.4,0,0,1,1.521-1.379c.952-.026,1.906-.006,2.858-.006" transform="translate(-0.714 -21.527)" fill="#2e245a"/>
    <path id="Path_24682" data-name="Path 24682" d="M52.977,1328.836c0,.338.018.679,0,1.016a1.292,1.292,0,0,1-1.282,1.322,1.212,1.212,0,0,1-1.4-1.067,10.2,10.2,0,0,1,0-2.569,1.215,1.215,0,0,1,1.413-1.052,1.268,1.268,0,0,1,1.26,1.24c.033.367.006.739.006,1.109h0" transform="translate(-0.811 -21.431)" fill="#2e245a"/>
    <rect id="Rectangle_5990" data-name="Rectangle 5990" width="2.674" height="2.663" transform="translate(43.505 1305.062)" fill="#2a8988"/>
  </g>
</svg>
