<svg xmlns="http://www.w3.org/2000/svg" width="27.623" height="41.594" viewBox="0 0 27.623 41.594"><path d="M196.889,546.429l2.408,2.276a.979.979,0,0,0,1.532-.263l1.794-3.326a1,1,0,0,0-.175-1.182l-3.282-3.414a6.961,6.961,0,0,0-3.852-1.969l-1.882-.263-3.633-1.97v-.481a2.807,2.807,0,0,0,1.75-3.764,2.922,2.922,0,0,0-1.619-1.532,2.754,2.754,0,0,0-2.757.569,2.942,2.942,0,0,0-.92,2.188v.132a.439.439,0,0,0,.438.437h.744a.439.439,0,0,0,.438-.437v-.219a1.231,1.231,0,0,1,.438-.92,1.139,1.139,0,0,1,1.006-.219,1.081,1.081,0,0,1,.832.832,1.15,1.15,0,0,1-.875,1.4,1.4,1.4,0,0,0-1.1,1.313v.7l-3.676,1.97-1.926.262a6.686,6.686,0,0,0-3.852,1.97l-3.326,3.458a1.063,1.063,0,0,0-.175,1.182l1.794,3.326a1.025,1.025,0,0,0,1.576.263L181,546.473l1.664,6.827a3.808,3.808,0,0,1-.175,2.408l-5.428,13.831a1.781,1.781,0,0,0,1.663,2.451h20.528a1.78,1.78,0,0,0,1.663-2.451L195.4,555.664a4.084,4.084,0,0,1-.175-2.407Zm-7.922-8.71,2.451,1.313-1.619,3.239a.922.922,0,0,1-1.664,0l-1.619-3.239Z" transform="translate(-175.121 -530.396)" fill="#fff"/></svg>