<svg xmlns="http://www.w3.org/2000/svg" width="69.782" height="54.106" viewBox="0 0 69.782 54.106">
  <g id="Layer_1" data-name="Layer 1" transform="translate(-0.01 0.002)">
    <g id="Group_8856" data-name="Group 8856" transform="translate(0.01 -0.002)">
      <g id="Group_8855" data-name="Group 8855" transform="translate(0 0)">
        <g id="Group_8854" data-name="Group 8854" transform="translate(25.876 41.169)">
          <path id="Path_23961" data-name="Path 23961" d="M195.552,354.959a.323.323,0,0,0,.137.092.317.317,0,0,0,.168.01.386.386,0,0,0,.168-.071.613.613,0,0,0,.14-.139.661.661,0,0,0,.093-.183.637.637,0,0,0,.03-.209.591.591,0,0,0-.038-.191.447.447,0,0,0-.09-.141.316.316,0,0,0-.293-.083.429.429,0,0,0-.157.066.547.547,0,0,0-.129.123.668.668,0,0,0-.092.165.762.762,0,0,0-.045.191.541.541,0,0,0,.021.213.453.453,0,0,0,.086.159h0Z" transform="translate(-194.586 -346.777)" fill="#fff"/>
          <path id="Path_23962" data-name="Path 23962" d="M202.821,353.616a.324.324,0,0,0,.137.092.333.333,0,0,0,.168.011.4.4,0,0,0,.17-.071.589.589,0,0,0,.139-.14.66.66,0,0,0,.093-.183.6.6,0,0,0,.03-.209.588.588,0,0,0-.038-.191.4.4,0,0,0-.09-.14.315.315,0,0,0-.131-.078.319.319,0,0,0-.161-.005.411.411,0,0,0-.157.067.549.549,0,0,0-.129.123.665.665,0,0,0-.092.166.768.768,0,0,0-.045.191.542.542,0,0,0,.021.213.452.452,0,0,0,.086.159h0Z" transform="translate(-200.862 -345.621)" fill="#fff"/>
          <path id="Path_23963" data-name="Path 23963" d="M218.218,386.723a.307.307,0,0,0-.131-.078.337.337,0,0,0-.161-.007.446.446,0,0,0-.226.115.593.593,0,0,0-.14.208.728.728,0,0,0-.052.249.555.555,0,0,0,.04.234.364.364,0,0,0,.135.165.329.329,0,0,0,.233.047.387.387,0,0,0,.168-.071.612.612,0,0,0,.14-.14.659.659,0,0,0,.093-.183.637.637,0,0,0,.03-.209.588.588,0,0,0-.038-.191.432.432,0,0,0-.09-.141h0Z" transform="translate(-213.634 -374.916)" fill="#fff"/>
          <path id="Path_23964" data-name="Path 23964" d="M210.919,388.085a.315.315,0,0,0-.131-.078.321.321,0,0,0-.161-.005.4.4,0,0,0-.157.067.548.548,0,0,0-.129.123.643.643,0,0,0-.092.165.763.763,0,0,0-.045.192.538.538,0,0,0,.021.213.452.452,0,0,0,.086.159.322.322,0,0,0,.137.092.332.332,0,0,0,.168.011.4.4,0,0,0,.17-.071.606.606,0,0,0,.14-.138.661.661,0,0,0,.093-.183.629.629,0,0,0,.03-.209.591.591,0,0,0-.038-.192.433.433,0,0,0-.09-.141h0Z" transform="translate(-207.327 -376.092)" fill="#fff"/>
          <path id="Path_23965" data-name="Path 23965" d="M193.258,361.723l-1.232.238a.184.184,0,0,1,.038-.01l-.153.029v-2.171a1.229,1.229,0,0,0-.49-.122,1.282,1.282,0,0,0-.475.078,1.685,1.685,0,0,0-.443.243,2.628,2.628,0,0,0-.4.373,3.371,3.371,0,0,0-.343.469,4.082,4.082,0,0,0-.276.532,3.85,3.85,0,0,0-.194.562,3.206,3.206,0,0,0-.1.555v.131a.605.605,0,0,0,.718.594l1.97-.38a.248.248,0,0,0,.041-.005l2.074-.4v-3.2l-.734.142v2.342Zm-2.067.4-1.193.23a3.142,3.142,0,0,1,.072-.362,3.206,3.206,0,0,1,.123-.379,2.787,2.787,0,0,1,.172-.358,1.648,1.648,0,0,1,.224-.3,1.091,1.091,0,0,1,.275-.212.735.735,0,0,1,.326-.086v1.47Z" transform="translate(-189.19 -351.272)" fill="#fff"/>
          <path id="Path_23966" data-name="Path 23966" d="M231.917,357.57a2.746,2.746,0,0,0-.142-.443,2.909,2.909,0,0,0-.192-.4,1.463,1.463,0,0,0-.25-.358,1.328,1.328,0,0,0-.457-.282,1.6,1.6,0,0,0-.889-.07,1.71,1.71,0,0,0-.367.123,2.1,2.1,0,0,0-.373.211v1l.086-.105a1.311,1.311,0,0,1,.161-.141,1.264,1.264,0,0,1,.94-.23.659.659,0,0,1,.126.042.484.484,0,0,1,.064.036,1.075,1.075,0,0,1,.166.133,1.164,1.164,0,0,1,.178.227,2.131,2.131,0,0,1,.134.26,1.89,1.89,0,0,1,.09.294,2.211,2.211,0,0,1,.047.327l-2.349.453v.86l3.089-.6c.008-.111.015-.247.016-.4,0-.233-.012-.406-.016-.456a3.037,3.037,0,0,0-.064-.483h0Z" transform="translate(-223.46 -348.464)" fill="#fff"/>
          <path id="Path_23967" data-name="Path 23967" d="M267.306,331.224c-.1.022-.2.041-.3.059l-.079.012a.4.4,0,0,1-.211-.018.447.447,0,0,1-.161-.107.441.441,0,0,1-.07-.081.567.567,0,0,1-.055-.105.669.669,0,0,1-.042-.241v-1.665l-.73.141v1.894a.621.621,0,0,1-.064.269.554.554,0,0,1-.148.187.455.455,0,0,1-.189.094.326.326,0,0,1-.189-.01.307.307,0,0,1-.148-.127.452.452,0,0,1-.064-.26c.005-.2,0-.915,0-1.894l-.735.142c.031.96.025,1.67,0,1.894a.8.8,0,0,1-.094.3.579.579,0,0,1-.179.2.415.415,0,0,1-.15.064.349.349,0,0,1-.07.007.344.344,0,0,1-.217-.09.413.413,0,0,1-.092-.142.59.59,0,0,1-.022-.074.279.279,0,0,1-.01-.051v-1.94l-.728.141c0,.852,0,1.475,0,1.665a.978.978,0,0,1-.029.254.83.83,0,0,1-.092.228.765.765,0,0,1-.134.164.317.317,0,0,1-.086.06.487.487,0,0,1-.075.027l-.034.008-.328.063c-.074.016-.613.135-1.063.205a.813.813,0,0,1-.352-.015.521.521,0,0,1-.259-.141.627.627,0,0,1-.127-.252.6.6,0,0,1-.026-.127.727.727,0,0,1,0-.122,1.31,1.31,0,0,1,.045-.294.856.856,0,0,1,.124-.282.791.791,0,0,1,.2-.193.684.684,0,0,1,.233-.114.641.641,0,0,1,.081-.011.7.7,0,0,1,.086,0,.777.777,0,0,1,.163.019.42.42,0,0,1,.137.071.4.4,0,0,1,.1.114l.092.126.462-.811-.062-.085a1.164,1.164,0,0,0-.215-.167,1.224,1.224,0,0,0-.257-.112,1.409,1.409,0,0,0-.837.078,2.34,2.34,0,0,0-.269.135,1.929,1.929,0,0,0-.253.209,2.689,2.689,0,0,0-.213.235,2.974,2.974,0,0,0-.17.278,2.217,2.217,0,0,0-.133.3,2.946,2.946,0,0,0-.082.339,1.88,1.88,0,0,0-.029.327,1.95,1.95,0,0,0,.011.2c.007.066.016.129.027.192l.122.38-.185.036-.042.008-.1.019-.092.018.029-.579-.029-.434a1.222,1.222,0,0,0-.059-.3,1.924,1.924,0,0,0-.108-.26,1.2,1.2,0,0,0-.127-.2,1.333,1.333,0,0,0-.153-.163.8.8,0,0,0-.1-.079.852.852,0,0,0-.1-.055.787.787,0,0,0-.249-.064,1.767,1.767,0,0,0-.885.152,1.646,1.646,0,0,0-.345.238,1.854,1.854,0,0,0-.269.3,2,2,0,0,0-.216.365c0,.01-.045.1-.079.2a2.3,2.3,0,0,0-.086,1,1.339,1.339,0,0,0,.209.565,1.107,1.107,0,0,0,.189.213,1.06,1.06,0,0,0,.42.223,1.163,1.163,0,0,0,.514.008c.01,0,.041-.007.085-.016a1.758,1.758,0,0,0,.357-.119c-.041.09-.086.187-.135.29s-.1.2-.156.3l-.42.635.614.454c.112-.17.215-.332.305-.49s.175-.312.252-.465l.334-.828.28-.055h.006c2-.379,3.455-.661,3.6-.694a.563.563,0,0,0,.237-.1.831.831,0,0,0,.1-.085,1.169,1.169,0,0,0,.078-.088,1.211,1.211,0,0,0,.161.085,1.333,1.333,0,0,0,.168.062.824.824,0,0,0,.187.023,1.166,1.166,0,0,0,.2-.018.988.988,0,0,0,.211-.064,1.136,1.136,0,0,0,.2-.115,2.107,2.107,0,0,0,.357-.331c.055.041.108.078.161.111a.908.908,0,0,0,.183.085.713.713,0,0,0,.209.036,1.009,1.009,0,0,0,.206-.016,1.222,1.222,0,0,0,.243-.074.858.858,0,0,0,.22-.135,2.178,2.178,0,0,0,.2-.167,1.116,1.116,0,0,0,.172-.2.515.515,0,0,0,.148.105.69.69,0,0,0,.183.057,1.679,1.679,0,0,0,.2.026.844.844,0,0,0,.2-.012l.119-.023,1.122-.216V327.55l-.739.142v3.537Zm-9.216,1.711c-.089.109-.256.12-.591.145a.754.754,0,0,1-.243-.016.484.484,0,0,1-.234-.115.405.405,0,0,1-.071-.092.625.625,0,0,1-.079-.223,1.092,1.092,0,0,1,.153-.739.954.954,0,0,1,.093-.1.964.964,0,0,1,.107-.088.622.622,0,0,1,.265-.109.507.507,0,0,1,.233.014.488.488,0,0,1,.194.115.58.58,0,0,1,.134.2,1.257,1.257,0,0,1,.075.3,2.731,2.731,0,0,1,.045.3.588.588,0,0,1-.078.4h0Z" transform="translate(-246.945 -323.916)" fill="#fff"/>
          <path id="Path_23968" data-name="Path 23968" d="M348.36,329.631l.73-.141v-4.46l-.73.141Z" transform="translate(-326.589 -321.741)" fill="#fff"/>
          <path id="Path_23969" data-name="Path 23969" d="M374.412,330.366a.326.326,0,0,0,.135.092.335.335,0,0,0,.17.011.386.386,0,0,0,.168-.071.612.612,0,0,0,.14-.139.661.661,0,0,0,.093-.183.642.642,0,0,0,.03-.209.588.588,0,0,0-.038-.191.432.432,0,0,0-.09-.141.305.305,0,0,0-.131-.078.335.335,0,0,0-.161-.007.409.409,0,0,0-.157.067.547.547,0,0,0-.129.123.671.671,0,0,0-.092.166.766.766,0,0,0-.045.192.542.542,0,0,0,.021.213.444.444,0,0,0,.086.159h0Z" transform="translate(-348.982 -325.549)" fill="#fff"/>
          <path id="Path_23970" data-name="Path 23970" d="M381.672,329.008a.322.322,0,0,0,.137.092.318.318,0,0,0,.168.011.388.388,0,0,0,.168-.071.616.616,0,0,0,.14-.14.663.663,0,0,0,.093-.183.636.636,0,0,0,.03-.209.588.588,0,0,0-.038-.191.408.408,0,0,0-.09-.141.306.306,0,0,0-.131-.078.32.32,0,0,0-.161-.005.409.409,0,0,0-.157.067.545.545,0,0,0-.129.123.672.672,0,0,0-.092.165.77.77,0,0,0-.045.192.542.542,0,0,0,.02.213.453.453,0,0,0,.086.159h0Z" transform="translate(-355.249 -324.377)" fill="#fff"/>
          <path id="Path_23971" data-name="Path 23971" d="M365.757,329l-2.617.5a.557.557,0,0,1-.216-.016.442.442,0,0,1-.1-.041.478.478,0,0,1-.094-.072.378.378,0,0,1-.063-.089.652.652,0,0,1-.049-.119.9.9,0,0,1-.037-.13.827.827,0,0,1-.012-.16,1.035,1.035,0,0,1,.049-.308,1,1,0,0,1,.049-.135.81.81,0,0,1,.063-.111.625.625,0,0,1,.086-.107.534.534,0,0,1,.109-.083.791.791,0,0,1,.216-.092v-.852a1.456,1.456,0,0,0-.264.078,1.405,1.405,0,0,0-.242.133,1.817,1.817,0,0,0-.227.183,1.7,1.7,0,0,0-.357.464,1.812,1.812,0,0,0-.119.3,1.933,1.933,0,0,0-.07.308,2.453,2.453,0,0,0-.022.346,1.541,1.541,0,0,0,.012.321,1.278,1.278,0,0,0,.079.3,1.34,1.34,0,0,0,.119.246,1.073,1.073,0,0,0,.357.358,1.055,1.055,0,0,0,.227.1,1.2,1.2,0,0,0,.242.053.838.838,0,0,0,.264-.014l3.329-.643V326.58l-.713.138V329Z" transform="translate(-338.222 -323.079)" fill="#fff"/>
          <path id="Path_23972" data-name="Path 23972" d="M408.949,349.933a.305.305,0,0,0-.131-.078.336.336,0,0,0-.161-.007.41.41,0,0,0-.157.067.549.549,0,0,0-.129.123.667.667,0,0,0-.092.165.767.767,0,0,0-.045.191.517.517,0,0,0,.022.213.439.439,0,0,0,.086.159.326.326,0,0,0,.135.092.321.321,0,0,0,.17.01.388.388,0,0,0,.168-.071.611.611,0,0,0,.14-.14.659.659,0,0,0,.093-.183.641.641,0,0,0,.03-.209.586.586,0,0,0-.038-.191.43.43,0,0,0-.09-.141Z" transform="translate(-378.271 -343.159)" fill="#fff"/>
          <path id="Path_23973" data-name="Path 23973" d="M416.209,348.575a.306.306,0,0,0-.131-.078.32.32,0,0,0-.161-.005.41.41,0,0,0-.157.067.548.548,0,0,0-.129.123.675.675,0,0,0-.092.166.766.766,0,0,0-.045.191.516.516,0,0,0,.022.213.452.452,0,0,0,.086.159.322.322,0,0,0,.137.092.318.318,0,0,0,.168.01.386.386,0,0,0,.168-.071.614.614,0,0,0,.139-.139.666.666,0,0,0,.093-.183.636.636,0,0,0,.03-.209.588.588,0,0,0-.038-.191.432.432,0,0,0-.09-.141h0Z" transform="translate(-384.538 -341.986)" fill="#fff"/>
          <path id="Path_23974" data-name="Path 23974" d="M403.4,314.578l-.28.053a.178.178,0,0,1,.038-.01l-.626.12v-2.32l-.728.141v2.32l-.525.1-.122.023-.071.014-.256.049v-3.606l-.728.141v4.463l1-.194a.2.2,0,0,0,.038,0l2.013-.389.981-.189V310.9l-.739.142v3.537Z" transform="translate(-371.252 -309.544)" fill="#fff"/>
          <path id="Path_23975" data-name="Path 23975" d="M471,301.909a.323.323,0,0,0,.137.092.3.3,0,0,0,.168.01.4.4,0,0,0,.17-.071.612.612,0,0,0,.14-.14.661.661,0,0,0,.093-.183.642.642,0,0,0,.03-.209.589.589,0,0,0-.038-.191.447.447,0,0,0-.09-.141.316.316,0,0,0-.293-.083.427.427,0,0,0-.157.066.548.548,0,0,0-.129.123.67.67,0,0,0-.092.166.768.768,0,0,0-.045.191.538.538,0,0,0,.02.213.452.452,0,0,0,.086.159Z" transform="translate(-432.36 -300.983)" fill="#fff"/>
          <path id="Path_23976" data-name="Path 23976" d="M441.065,309.805a1.473,1.473,0,0,0-.213-.539,1.156,1.156,0,0,0-.36-.375.961.961,0,0,0-.3-.122.886.886,0,0,0-.186-.021,1.468,1.468,0,0,0-.28.029,1.661,1.661,0,0,0-.28.079,1.164,1.164,0,0,0-.26.138,1.486,1.486,0,0,0-.227.2,2.078,2.078,0,0,0-.487.807,1.979,1.979,0,0,0-.071.309,2.126,2.126,0,0,0-.025.326,1.841,1.841,0,0,0,.033.394,1.59,1.59,0,0,0,.108.335l-.309.06-1.176.227a.627.627,0,0,1-.352-.015.643.643,0,0,1-.334-.276.888.888,0,0,1,.092-.941.8.8,0,0,1,.2-.193.661.661,0,0,1,.564-.108.561.561,0,0,1,.194.13.638.638,0,0,1,.13.18l.462-.811-.062-.085a1.162,1.162,0,0,0-.215-.167,1.224,1.224,0,0,0-.257-.112,1.447,1.447,0,0,0-.568,0,1.472,1.472,0,0,0-.269.082,2.339,2.339,0,0,0-.269.135,1.943,1.943,0,0,0-.253.209,2.71,2.71,0,0,0-.213.235,2.986,2.986,0,0,0-.17.278,2.4,2.4,0,0,0-.133.3,2.944,2.944,0,0,0-.082.339,1.877,1.877,0,0,0-.029.327,1.908,1.908,0,0,0,.011.2c.007.064.016.129.027.191l.122.38-.327.063-.315.06V308.44l-.728.141v4.463l1.02-.2h.01l2.907-.561h-.01l1.54-.3a1.312,1.312,0,0,0,.535-.235,1.887,1.887,0,0,0,.228-.19,1.715,1.715,0,0,0,.2-.228c.057-.085.112-.175.164-.27a2.076,2.076,0,0,0,.134-.3,1.585,1.585,0,0,0,.079-.315,2.275,2.275,0,0,0,.023-.317,1.835,1.835,0,0,0-.023-.326h0Zm-.776.762a.925.925,0,0,1-.126.252.834.834,0,0,1-.189.191.608.608,0,0,1-.231.105.466.466,0,0,1-.238-.007.478.478,0,0,1-.2-.113.566.566,0,0,1-.133-.2.69.69,0,0,1-.044-.276.847.847,0,0,1,.052-.279.962.962,0,0,1,.13-.243.8.8,0,0,1,.19-.182.61.61,0,0,1,.231-.1.479.479,0,0,1,.23.01.466.466,0,0,1,.189.109.557.557,0,0,1,.127.194.714.714,0,0,1,.049.26.86.86,0,0,1-.044.282h0Z" transform="translate(-400.739 -307.42)" fill="#fff"/>
        </g>
        <path id="Path_23977" data-name="Path 23977" d="M407.911,114.369c.585-.123.91-.275.974-.458a.587.587,0,0,0-.142-.736,1.5,1.5,0,0,0-.626-.347,7.237,7.237,0,0,0-3.683.011,19.589,19.589,0,0,0-6.032,2.379,22.756,22.756,0,0,0-5.481,4.263,19.832,19.832,0,0,1,6.745-3.72,25.393,25.393,0,0,1,5.374-1.111,24.335,24.335,0,0,0,2.874-.282h0Z" transform="translate(-339.178 -97.201)" fill="#fff"/>
        <path id="Path_23978" data-name="Path 23978" d="M403.6,67.459a9.4,9.4,0,0,0-3.975,1.329,25.888,25.888,0,0,0-6.01,4.559,30.744,30.744,0,0,0-5.014,6.269,26.326,26.326,0,0,1,6.474-6.173,33.85,33.85,0,0,1,5.553-3.047,31.809,31.809,0,0,0,3.042-1.3q.913-.5.971-.8a.552.552,0,0,0-.323-.7,1.458,1.458,0,0,0-.717-.137h0Z" transform="translate(-335.449 -58.23)" fill="#fff"/>
        <path id="Path_23979" data-name="Path 23979" d="M384.62.779A1.427,1.427,0,0,0,384.2.165a.567.567,0,0,0-.776-.026q-.252.15-.36,1.2a32.063,32.063,0,0,0-.038,3.285,33.548,33.548,0,0,1-.71,6.3,26.2,26.2,0,0,1-3.228,8.349,30.651,30.651,0,0,0,3.879-7.02,25.574,25.574,0,0,0,1.922-7.289A9.464,9.464,0,0,0,384.62.778h0Z" transform="translate(-327.239 0.002)" fill="#fff"/>
        <path id="Path_23980" data-name="Path 23980" d="M398.351,14.386q.63-1.436.141-1.558a1.569,1.569,0,0,0-1.186.393,12.915,12.915,0,0,0-1.685,1.584,33.493,33.493,0,0,0-3.123,4.827q-2.158,3.732-7.078,11.256,2.4-2.9,4.3-5.552t3.285-4.2q1.389-1.551,3.057-3.455a13.546,13.546,0,0,0,2.281-3.29h0Z" transform="translate(-332.704 -11.056)" fill="#fff"/>
        <path id="Path_23981" data-name="Path 23981" d="M363.7,15.791a25.563,25.563,0,0,0,.837,2.757,25.609,25.609,0,0,1,1.019,5.407,19.544,19.544,0,0,1-.875,7.651,23.733,23.733,0,0,0,1.868-6.682,19.934,19.934,0,0,0-.105-6.493,7.65,7.65,0,0,0-1.392-3.418,1.477,1.477,0,0,0-.583-.434.585.585,0,0,0-.736.142q-.2.191-.033,1.068Z" transform="translate(-313.887 -12.528)" fill="#fff"/>
        <path id="Path_23982" data-name="Path 23982" d="M10.32,33.411a3.991,3.991,0,0,0-.7-1.324,5.588,5.588,0,0,0-1.249-1.122,13.03,13.03,0,0,0-1.8-.949c-.613-.29-.927-.419-1.537-.747a4.184,4.184,0,0,1-1.057-.726A2.5,2.5,0,0,1,3.36,27.7a2.673,2.673,0,0,1-.193-1.078,2.44,2.44,0,0,1,.193-.96,2.533,2.533,0,0,1,.5-.758,2.4,2.4,0,0,1,.673-.533A1.934,1.934,0,0,1,6,24.177a1.583,1.583,0,0,1,.406.2,3.177,3.177,0,0,0-.309.6,2.226,2.226,0,0,0-.042,1.911,1.609,1.609,0,0,0,.469.469,1.582,1.582,0,0,0,.609.235,1.8,1.8,0,0,0,.641-.022,2.924,2.924,0,0,0,.662-.2,2.912,2.912,0,0,0,.811-.491,3.114,3.114,0,0,0,.673-.907,3.181,3.181,0,0,0,.278-1.42,2.657,2.657,0,0,0-.386-1.462,2.946,2.946,0,0,0-1.067-.982,4.193,4.193,0,0,0-1.548-.458,6.311,6.311,0,0,0-1.847.105,6.772,6.772,0,0,0-3.607,2.071A6.778,6.778,0,0,0,.522,25.758a6.193,6.193,0,0,0-.458,2.424,4.651,4.651,0,0,0,.245,1.58,4.862,4.862,0,0,0,.631,1.216,4.618,4.618,0,0,0,.886.9,6.086,6.086,0,0,0,.992.64c1.351.717,2.432.884,3.378,1.521a3.591,3.591,0,0,1,.412.326,3.346,3.346,0,0,1,.715.982A3.179,3.179,0,0,1,7.6,36.73a2.6,2.6,0,0,1-.267,1.217,3.149,3.149,0,0,1-.641.875,2.726,2.726,0,0,1-1.967.838,2.011,2.011,0,0,1-.84-.239,1.9,1.9,0,0,1-.461-.354,2.114,2.114,0,0,0,.446-.239,2,2,0,0,0,.334-.294,2.2,2.2,0,0,0,.384-.661,1.937,1.937,0,0,0,.16-.544,1.681,1.681,0,0,0,.011-.246,2.287,2.287,0,0,0-.2-1.1,1.486,1.486,0,0,0-.566-.62c-.122-.067-.224-.12-.25-.131a1.693,1.693,0,0,0-.486-.114,2.519,2.519,0,0,0-.767.042,2.744,2.744,0,0,0-.789.3,3.183,3.183,0,0,0-.812.631A3.3,3.3,0,0,0,.266,37.1a3.7,3.7,0,0,0-.256,1.44,3.537,3.537,0,0,0,.416,1.795,2.825,2.825,0,0,0,1.09,1.109,4.048,4.048,0,0,0,1.591.48,6.134,6.134,0,0,0,1.856-.118A8.334,8.334,0,0,0,6.842,41.2a6.566,6.566,0,0,0,1.707-1.142,6.563,6.563,0,0,0,1.324-1.8,7.117,7.117,0,0,0,.662-2.573l.022-.662a5.124,5.124,0,0,0-.235-1.611Zm10.472,2.316-.042-7.046a8.367,8.367,0,0,0-.245-2.06,4.235,4.235,0,0,0-.812-1.644,3.057,3.057,0,0,0-1.42-.96,3.916,3.916,0,0,0-2.091-.063,6.325,6.325,0,0,0-2.071.767,5.4,5.4,0,0,0-1.4,1.153,5.1,5.1,0,0,0-.789,1.271,3.579,3.579,0,0,0-.183.633,3.328,3.328,0,0,0-.062.573,3.114,3.114,0,0,0,.15.981,2.054,2.054,0,0,0,.168.4,1.787,1.787,0,0,0,.227.326,1.42,1.42,0,0,0,.587.416,1.357,1.357,0,0,0,.737.033,2.36,2.36,0,0,0,.867-.361,2.157,2.157,0,0,0,.414-.367,2.1,2.1,0,0,0,.49-1.44,1.552,1.552,0,0,0-.118-.48,1.46,1.46,0,0,0-.256-.406,1.358,1.358,0,0,0-.5-.341,2.508,2.508,0,0,1,.673-.758,2.117,2.117,0,0,1,1.718-.46c.934.3,1.32,1.706,1.078,2.648a3.653,3.653,0,0,1-.672,1.206,7.616,7.616,0,0,1-1,1.153c-1,.945-2.016,1.557-2.766,2.231-.126.112-.219.207-.254.242a6.439,6.439,0,0,0-.684.8,5.721,5.721,0,0,0-.673,1.293,4.535,4.535,0,0,0-.256,1.58,4.2,4.2,0,0,0,.287,1.7,2.106,2.106,0,0,0,.715.938,1.956,1.956,0,0,0,.949.386,3.628,3.628,0,0,0,1.037-.064,4.381,4.381,0,0,0,1.815-.822,5.6,5.6,0,0,0,1.418-1.655l.246,1.633,2.989-.789L20.8,35.726Zm-3.011-1.345a8.392,8.392,0,0,1-.319.875,5.486,5.486,0,0,1-.491.918,3.663,3.663,0,0,1-.673.778,1.8,1.8,0,0,1-.855.428.749.749,0,0,1-.8-.256,1.494,1.494,0,0,1-.289-.929,1.994,1.994,0,0,1,.267-.886,3.965,3.965,0,0,1,.631-.918,21.5,21.5,0,0,1,1.654-1.655c.163-.153.331-.328.5-.528a7.105,7.105,0,0,0,.466-.6,7.464,7.464,0,0,1-.1,2.775Zm14,1.558-.256-8.6.213-6.063-2.946.533a41.563,41.563,0,0,1,0,7.664c-.047.3-.157.864-.3,1.451a10.354,10.354,0,0,1-.651,1.911,4.085,4.085,0,0,1-.331.554,2.04,2.04,0,0,1-.367.435,1.031,1.031,0,0,1-.371.238.977.977,0,0,1-.494.023,1.213,1.213,0,0,1-.393-.141,1.379,1.379,0,0,1-.544-.789,5.529,5.529,0,0,1-.287-1.451,20.6,20.6,0,0,1-.075-2.135c.015-.773.063-1.358.1-1.762.018-.207.077-.89.246-2.091.1-.74.253-1.711.469-2.861l-3.287.3q-.31,2-.438,4.024l-.14,4.175a14.615,14.615,0,0,0,.224,2.711,5.942,5.942,0,0,0,.693,1.975,2.648,2.648,0,0,0,1.174,1.122,2.455,2.455,0,0,0,1.665.149,4.194,4.194,0,0,0,.5-.2,4.7,4.7,0,0,0,.507-.28,4.463,4.463,0,0,0,.929-.822,5.881,5.881,0,0,0,.477-.594,5.338,5.338,0,0,0,.451-.773l-.13,1.92,3.363-.62Zm11.562-22-3.735.7.235,5.668a3.015,3.015,0,0,0-.451-.335,3.147,3.147,0,0,0-.435-.219,3.184,3.184,0,0,0-.769-.224,2.744,2.744,0,0,0-.756-.022,2.992,2.992,0,0,0-1.048.353,4.533,4.533,0,0,0-.52.315,4.676,4.676,0,0,0-.494.412,5.341,5.341,0,0,0-.9,1.153,7.382,7.382,0,0,0-.747,1.58,13.016,13.016,0,0,0-.491,2.156,18.171,18.171,0,0,0-.182,2.722,16.74,16.74,0,0,0,.353,3.79,7.1,7.1,0,0,0,.9,2.273,2.6,2.6,0,0,0,1.216,1.048,2.353,2.353,0,0,0,.937.15,3.681,3.681,0,0,0,2.436-1.581,7.6,7.6,0,0,0,.539-.741,7.73,7.73,0,0,0,.528-.966l-.1,2.582,2.957-.651-.085-5.039q0-3.777.161-7.526l.447-7.6Zm-3.6,16a2.738,2.738,0,0,1-.975,1.811c-.4.308-1.135.724-1.6.3a1.334,1.334,0,0,1-.294-.445,9.625,9.625,0,0,1-.548-3.949,12.733,12.733,0,0,1,.191-2.614,10.632,10.632,0,0,1,.481-1.73,2.369,2.369,0,0,1,1.094-1.3,1.358,1.358,0,0,1,1.747.726q-.047,3.595-.093,7.193Zm4.716-11,.375,5.743.105,5.615L44.9,33.709l2.935-.683.064-7.709.362-7.2-3.811.822ZM14.893,56.893c0-.042,0-.1.011-.171a.735.735,0,0,1,.011-.15c-.085.049-.211.109-.373.182-.851.347-1.8.687-2.829.993-.829.245-1.618.44-2.359.6L9.225,51.8c.5-.1,1.024-.187,1.57-.265.843-.123,1.644-.205,2.4-.257l-.129-2.529L13.1,48.3,9.224,49.4,9.277,45c.347-.082.7-.161,1.057-.235a41.325,41.325,0,0,1,4.558-.684L14.743,41.3l-2.05.524L5.829,43.085c.14,1.319.276,2.2.375,3.986.131,2.392.138,4.2.14,4.622.005,2.725-.127,4.8-.224,6.3-.093,1.427-.2,2.633-.289,3.533L11.4,60.241l3.651-.693-.161-2.659Zm20.818-6.04a1.553,1.553,0,0,0-.512-.631,1.476,1.476,0,0,0-.609-.235,2.329,2.329,0,0,0-1.795.663,2.587,2.587,0,0,0-.577.725,2.047,2.047,0,0,0-.245,1.057,1.509,1.509,0,0,0,.118.523,1.382,1.382,0,0,0,.267.406.992.992,0,0,0,.222.182,1.018,1.018,0,0,0,.3.118,1.691,1.691,0,0,1-.353.491,1.61,1.61,0,0,1-1.072.476c-.862-.062-1.324-1.4-1.457-1.789a4.16,4.16,0,0,1-.224-1.409,13.1,13.1,0,0,0,2.551-1.6,11.643,11.643,0,0,0,1.847-1.909,8.517,8.517,0,0,0,1.142-2.039,5.744,5.744,0,0,0,.375-1.966,4.036,4.036,0,0,0-.342-1.751A2.9,2.9,0,0,0,34.418,41a3.066,3.066,0,0,0-1.355-.533,4.157,4.157,0,0,0-1.643.042,5,5,0,0,0-1.186.4,5.4,5.4,0,0,0-1.163.758,5.9,5.9,0,0,0-1.057,1.174,7.361,7.361,0,0,0-.855,1.622,10.19,10.19,0,0,0-.587,2.145,15.584,15.584,0,0,0-.215,2.722,16.035,16.035,0,0,0,.215,2.808,8.918,8.918,0,0,0,.587,2.028,4.854,4.854,0,0,0,.866,1.387,3.686,3.686,0,0,0,1.078.8,3.17,3.17,0,0,0,1.185.32,5.116,5.116,0,0,0,1.227-.085,5.971,5.971,0,0,0,1.708-.62,5.732,5.732,0,0,0,1.4-1.068,4.959,4.959,0,0,0,.949-1.345,3.523,3.523,0,0,0,.353-1.517,2.65,2.65,0,0,0-.213-1.185Zm-5.857-4.4a7.567,7.567,0,0,1,.134-1.569c.053-.237.51-2.246,1.565-2.391a1.178,1.178,0,0,1,.871.285c.413.372.412,1.007.41,1.764a4.9,4.9,0,0,1-.053.693,3.731,3.731,0,0,1-.16.695,6.749,6.749,0,0,1-.641,1.355,8.786,8.786,0,0,1-.971,1.247,9.827,9.827,0,0,1-1.227,1.079c.018-.81.041-1.883.074-3.16Zm16.69-2.53a13.963,13.963,0,0,0-.224-2.659,4.978,4.978,0,0,0-.695-1.878,2.479,2.479,0,0,0-1.185-1.046,2.875,2.875,0,0,0-1.665-.118,3.174,3.174,0,0,0-1,.384,5.12,5.12,0,0,0-.886.715,5.011,5.011,0,0,0-.475.551,4.888,4.888,0,0,0-.443.718l.074-1.068-3.363.62L36.8,51.972l-.064,2.808,2.937-.522a68.551,68.551,0,0,1,.021-8.6c.105-.711.28-1.375.28-1.375.145-.553.285-.933.327-1.049a5.107,5.107,0,0,1,.662-1.335c.257-.353.419-.566.726-.662a1.157,1.157,0,0,1,.9.119,1.428,1.428,0,0,1,.555.789A4.288,4.288,0,0,1,43.4,43.6c.059,1.208.088,1.811.085,2.124-.008.863-.056,1.5-.107,2.156-.023.306-.094,1.193-.245,2.369-.1.807-.252,1.812-.471,2.968l3.021-.245.438-2.156c.077-.561.174-1.34.256-2.275a43.4,43.4,0,0,0,.161-4.622Zm1.205-30.033a1.571,1.571,0,0,0-.35-.542,1.2,1.2,0,0,0-.509-.3,1.288,1.288,0,0,0-.628-.023,1.605,1.605,0,0,0-.61.256,2.136,2.136,0,0,0-.5.477,2.481,2.481,0,0,0-.356.64,2.814,2.814,0,0,0-.172.74,2.146,2.146,0,0,0,.081.826,1.728,1.728,0,0,0,.335.616,1.226,1.226,0,0,0,.528.353,1.252,1.252,0,0,0,.654.041,1.566,1.566,0,0,0,.654-.276,2.322,2.322,0,0,0,.54-.539,2.5,2.5,0,0,0,.36-.711,2.452,2.452,0,0,0,.119-.81,2.226,2.226,0,0,0-.15-.743Z" transform="translate(-0.01 -11.219)" fill="#fff"/>
        <path id="Path_23983" data-name="Path 23983" d="M120.219,227.6a2.172,2.172,0,0,1-.594,1.286,1.531,1.531,0,0,1-1.09.5,2.174,2.174,0,0,1-.539-.126c-.041-.012-.346-.133-.378-.1a37.451,37.451,0,0,0-1.734,10.67c0,.609-.04,1.217-.042,1.826l-4.023.844-.39-1.722c-.521-2.313-1.009-4.631-1.639-6.916l-1.481-5.378,3.292-.8,1.085,5.416,1.128,5.5c.027-1.128.122-2.257.242-3.378.275-2.561.614-5.429,1.968-7.682a3.891,3.891,0,0,1,2.124-1.788,1.628,1.628,0,0,1,1.728.572,1.8,1.8,0,0,1,.342,1.277Z" transform="translate(-93.497 -194.825)" fill="#fff"/>
        <path id="Path_25019" data-name="Path 25019" d="M10.32,33.411a3.991,3.991,0,0,0-.7-1.324,5.588,5.588,0,0,0-1.249-1.122,13.03,13.03,0,0,0-1.8-.949c-.613-.29-.927-.419-1.537-.747a4.184,4.184,0,0,1-1.057-.726A2.5,2.5,0,0,1,3.36,27.7a2.673,2.673,0,0,1-.193-1.078,2.44,2.44,0,0,1,.193-.96,2.533,2.533,0,0,1,.5-.758,2.4,2.4,0,0,1,.673-.533A1.934,1.934,0,0,1,6,24.177a1.583,1.583,0,0,1,.406.2,3.177,3.177,0,0,0-.309.6,2.226,2.226,0,0,0-.042,1.911,1.609,1.609,0,0,0,.469.469,1.582,1.582,0,0,0,.609.235,1.8,1.8,0,0,0,.641-.022,2.924,2.924,0,0,0,.662-.2,2.912,2.912,0,0,0,.811-.491,3.114,3.114,0,0,0,.673-.907,3.181,3.181,0,0,0,.278-1.42,2.657,2.657,0,0,0-.386-1.462,2.946,2.946,0,0,0-1.067-.982,4.193,4.193,0,0,0-1.548-.458,6.311,6.311,0,0,0-1.847.105,6.772,6.772,0,0,0-3.607,2.071A6.778,6.778,0,0,0,.522,25.758a6.193,6.193,0,0,0-.458,2.424,4.651,4.651,0,0,0,.245,1.58,4.862,4.862,0,0,0,.631,1.216,4.618,4.618,0,0,0,.886.9,6.086,6.086,0,0,0,.992.64c1.351.717,2.432.884,3.378,1.521a3.591,3.591,0,0,1,.412.326,3.346,3.346,0,0,1,.715.982A3.179,3.179,0,0,1,7.6,36.73a2.6,2.6,0,0,1-.267,1.217,3.149,3.149,0,0,1-.641.875,2.726,2.726,0,0,1-1.967.838,2.011,2.011,0,0,1-.84-.239,1.9,1.9,0,0,1-.461-.354,2.114,2.114,0,0,0,.446-.239,2,2,0,0,0,.334-.294,2.2,2.2,0,0,0,.384-.661,1.937,1.937,0,0,0,.16-.544,1.681,1.681,0,0,0,.011-.246,2.287,2.287,0,0,0-.2-1.1,1.486,1.486,0,0,0-.566-.62c-.122-.067-.224-.12-.25-.131a1.693,1.693,0,0,0-.486-.114,2.519,2.519,0,0,0-.767.042,2.744,2.744,0,0,0-.789.3,3.183,3.183,0,0,0-.812.631A3.3,3.3,0,0,0,.266,37.1a3.7,3.7,0,0,0-.256,1.44,3.537,3.537,0,0,0,.416,1.795,2.825,2.825,0,0,0,1.09,1.109,4.048,4.048,0,0,0,1.591.48,6.134,6.134,0,0,0,1.856-.118A8.334,8.334,0,0,0,6.842,41.2a6.566,6.566,0,0,0,1.707-1.142,6.563,6.563,0,0,0,1.324-1.8,7.117,7.117,0,0,0,.662-2.573l.022-.662a5.124,5.124,0,0,0-.235-1.611Zm10.472,2.316-.042-7.046a8.367,8.367,0,0,0-.245-2.06,4.235,4.235,0,0,0-.812-1.644,3.057,3.057,0,0,0-1.42-.96,3.916,3.916,0,0,0-2.091-.063,6.325,6.325,0,0,0-2.071.767,5.4,5.4,0,0,0-1.4,1.153,5.1,5.1,0,0,0-.789,1.271,3.579,3.579,0,0,0-.183.633,3.328,3.328,0,0,0-.062.573,3.114,3.114,0,0,0,.15.981,2.054,2.054,0,0,0,.168.4,1.787,1.787,0,0,0,.227.326,1.42,1.42,0,0,0,.587.416,1.357,1.357,0,0,0,.737.033,2.36,2.36,0,0,0,.867-.361,2.157,2.157,0,0,0,.414-.367,2.1,2.1,0,0,0,.49-1.44,1.552,1.552,0,0,0-.118-.48,1.46,1.46,0,0,0-.256-.406,1.358,1.358,0,0,0-.5-.341,2.508,2.508,0,0,1,.673-.758,2.117,2.117,0,0,1,1.718-.46c.934.3,1.32,1.706,1.078,2.648a3.653,3.653,0,0,1-.672,1.206,7.616,7.616,0,0,1-1,1.153c-1,.945-2.016,1.557-2.766,2.231-.126.112-.219.207-.254.242a6.439,6.439,0,0,0-.684.8,5.721,5.721,0,0,0-.673,1.293,4.535,4.535,0,0,0-.256,1.58,4.2,4.2,0,0,0,.287,1.7,2.106,2.106,0,0,0,.715.938,1.956,1.956,0,0,0,.949.386,3.628,3.628,0,0,0,1.037-.064,4.381,4.381,0,0,0,1.815-.822,5.6,5.6,0,0,0,1.418-1.655l.246,1.633,2.989-.789L20.8,35.726Zm-3.011-1.345a8.392,8.392,0,0,1-.319.875,5.486,5.486,0,0,1-.491.918,3.663,3.663,0,0,1-.673.778,1.8,1.8,0,0,1-.855.428.749.749,0,0,1-.8-.256,1.494,1.494,0,0,1-.289-.929,1.994,1.994,0,0,1,.267-.886,3.965,3.965,0,0,1,.631-.918,21.5,21.5,0,0,1,1.654-1.655c.163-.153.331-.328.5-.528a7.105,7.105,0,0,0,.466-.6,7.464,7.464,0,0,1-.1,2.775Zm14,1.558-.256-8.6.213-6.063-2.946.533a41.563,41.563,0,0,1,0,7.664c-.047.3-.157.864-.3,1.451a10.354,10.354,0,0,1-.651,1.911,4.085,4.085,0,0,1-.331.554,2.04,2.04,0,0,1-.367.435,1.031,1.031,0,0,1-.371.238.977.977,0,0,1-.494.023,1.213,1.213,0,0,1-.393-.141,1.379,1.379,0,0,1-.544-.789,5.529,5.529,0,0,1-.287-1.451,20.6,20.6,0,0,1-.075-2.135c.015-.773.063-1.358.1-1.762.018-.207.077-.89.246-2.091.1-.74.253-1.711.469-2.861l-3.287.3q-.31,2-.438,4.024l-.14,4.175a14.615,14.615,0,0,0,.224,2.711,5.942,5.942,0,0,0,.693,1.975,2.648,2.648,0,0,0,1.174,1.122,2.455,2.455,0,0,0,1.665.149,4.194,4.194,0,0,0,.5-.2,4.7,4.7,0,0,0,.507-.28,4.463,4.463,0,0,0,.929-.822,5.881,5.881,0,0,0,.477-.594,5.338,5.338,0,0,0,.451-.773l-.13,1.92,3.363-.62Zm11.562-22-3.735.7.235,5.668a3.015,3.015,0,0,0-.451-.335,3.147,3.147,0,0,0-.435-.219,3.184,3.184,0,0,0-.769-.224,2.744,2.744,0,0,0-.756-.022,2.992,2.992,0,0,0-1.048.353,4.533,4.533,0,0,0-.52.315,4.676,4.676,0,0,0-.494.412,5.341,5.341,0,0,0-.9,1.153,7.382,7.382,0,0,0-.747,1.58,13.016,13.016,0,0,0-.491,2.156,18.171,18.171,0,0,0-.182,2.722,16.74,16.74,0,0,0,.353,3.79,7.1,7.1,0,0,0,.9,2.273,2.6,2.6,0,0,0,1.216,1.048,2.353,2.353,0,0,0,.937.15,3.681,3.681,0,0,0,2.436-1.581,7.6,7.6,0,0,0,.539-.741,7.73,7.73,0,0,0,.528-.966l-.1,2.582,2.957-.651-.085-5.039q0-3.777.161-7.526l.447-7.6Zm-3.6,16a2.738,2.738,0,0,1-.975,1.811c-.4.308-1.135.724-1.6.3a1.334,1.334,0,0,1-.294-.445,9.625,9.625,0,0,1-.548-3.949,12.733,12.733,0,0,1,.191-2.614,10.632,10.632,0,0,1,.481-1.73,2.369,2.369,0,0,1,1.094-1.3,1.358,1.358,0,0,1,1.747.726q-.047,3.595-.093,7.193Zm4.716-11,.375,5.743.105,5.615L44.9,33.709l2.935-.683.064-7.709.362-7.2-3.811.822ZM14.893,56.893c0-.042,0-.1.011-.171a.735.735,0,0,1,.011-.15c-.085.049-.211.109-.373.182-.851.347-1.8.687-2.829.993-.829.245-1.618.44-2.359.6L9.225,51.8c.5-.1,1.024-.187,1.57-.265.843-.123,1.644-.205,2.4-.257l-.129-2.529L13.1,48.3,9.224,49.4,9.277,45c.347-.082.7-.161,1.057-.235a41.325,41.325,0,0,1,4.558-.684L14.743,41.3l-2.05.524L5.829,43.085c.14,1.319.276,2.2.375,3.986.131,2.392.138,4.2.14,4.622.005,2.725-.127,4.8-.224,6.3-.093,1.427-.2,2.633-.289,3.533L11.4,60.241l3.651-.693-.161-2.659Zm20.818-6.04a1.553,1.553,0,0,0-.512-.631,1.476,1.476,0,0,0-.609-.235,2.329,2.329,0,0,0-1.795.663,2.587,2.587,0,0,0-.577.725,2.047,2.047,0,0,0-.245,1.057,1.509,1.509,0,0,0,.118.523,1.382,1.382,0,0,0,.267.406.992.992,0,0,0,.222.182,1.018,1.018,0,0,0,.3.118,1.691,1.691,0,0,1-.353.491,1.61,1.61,0,0,1-1.072.476c-.862-.062-1.324-1.4-1.457-1.789a4.16,4.16,0,0,1-.224-1.409,13.1,13.1,0,0,0,2.551-1.6,11.643,11.643,0,0,0,1.847-1.909,8.517,8.517,0,0,0,1.142-2.039,5.744,5.744,0,0,0,.375-1.966,4.036,4.036,0,0,0-.342-1.751A2.9,2.9,0,0,0,34.418,41a3.066,3.066,0,0,0-1.355-.533,4.157,4.157,0,0,0-1.643.042,5,5,0,0,0-1.186.4,5.4,5.4,0,0,0-1.163.758,5.9,5.9,0,0,0-1.057,1.174,7.361,7.361,0,0,0-.855,1.622,10.19,10.19,0,0,0-.587,2.145,15.584,15.584,0,0,0-.215,2.722,16.035,16.035,0,0,0,.215,2.808,8.918,8.918,0,0,0,.587,2.028,4.854,4.854,0,0,0,.866,1.387,3.686,3.686,0,0,0,1.078.8,3.17,3.17,0,0,0,1.185.32,5.116,5.116,0,0,0,1.227-.085,5.971,5.971,0,0,0,1.708-.62,5.732,5.732,0,0,0,1.4-1.068,4.959,4.959,0,0,0,.949-1.345,3.523,3.523,0,0,0,.353-1.517,2.65,2.65,0,0,0-.213-1.185Zm-5.857-4.4a7.567,7.567,0,0,1,.134-1.569c.053-.237.51-2.246,1.565-2.391a1.178,1.178,0,0,1,.871.285c.413.372.412,1.007.41,1.764a4.9,4.9,0,0,1-.053.693,3.731,3.731,0,0,1-.16.695,6.749,6.749,0,0,1-.641,1.355,8.786,8.786,0,0,1-.971,1.247,9.827,9.827,0,0,1-1.227,1.079c.018-.81.041-1.883.074-3.16Zm16.69-2.53a13.963,13.963,0,0,0-.224-2.659,4.978,4.978,0,0,0-.695-1.878,2.479,2.479,0,0,0-1.185-1.046,2.875,2.875,0,0,0-1.665-.118,3.174,3.174,0,0,0-1,.384,5.12,5.12,0,0,0-.886.715,5.011,5.011,0,0,0-.475.551,4.888,4.888,0,0,0-.443.718l.074-1.068-3.363.62L36.8,51.972l-.064,2.808,2.937-.522a68.551,68.551,0,0,1,.021-8.6c.105-.711.28-1.375.28-1.375.145-.553.285-.933.327-1.049a5.107,5.107,0,0,1,.662-1.335c.257-.353.419-.566.726-.662a1.157,1.157,0,0,1,.9.119,1.428,1.428,0,0,1,.555.789A4.288,4.288,0,0,1,43.4,43.6c.059,1.208.088,1.811.085,2.124-.008.863-.056,1.5-.107,2.156-.023.306-.094,1.193-.245,2.369-.1.807-.252,1.812-.471,2.968l3.021-.245.438-2.156c.077-.561.174-1.34.256-2.275a43.4,43.4,0,0,0,.161-4.622Zm1.205-30.033a1.571,1.571,0,0,0-.35-.542,1.2,1.2,0,0,0-.509-.3,1.288,1.288,0,0,0-.628-.023,1.605,1.605,0,0,0-.61.256,2.136,2.136,0,0,0-.5.477,2.481,2.481,0,0,0-.356.64,2.814,2.814,0,0,0-.172.74,2.146,2.146,0,0,0,.081.826,1.728,1.728,0,0,0,.335.616,1.226,1.226,0,0,0,.528.353,1.252,1.252,0,0,0,.654.041,1.566,1.566,0,0,0,.654-.276,2.322,2.322,0,0,0,.54-.539,2.5,2.5,0,0,0,.36-.711,2.452,2.452,0,0,0,.119-.81,2.226,2.226,0,0,0-.15-.743Z" transform="translate(-0.01 -11.22)" fill="#fff"/>
      </g>
      <path id="Path_23984" data-name="Path 23984" d="M347.566,181.707v.008a4.278,4.278,0,0,1-3.1,3.828,5.111,5.111,0,0,1-.947.092H343.5a2.109,2.109,0,0,1-2.1-2.212l.134-9.488-2.029.421.1-3.006,1.956-.408.019-2.6,3.136-.715-.031,2.644,2.2-.439-.037,3-2.213.5s-.052,8.111-.052,9.33c0,.691.186.823.347.807h0a4.612,4.612,0,0,0,1.536-1.99.527.527,0,0,1,.283-.271l.092-.037a.524.524,0,0,1,.719.539Z" transform="translate(-293.073 -144.701)" fill="#fff"/>
      <path id="Path_23985" data-name="Path 23985" d="M367.033,299.158c-.086,0-.175,0-.263-.007v-.011A2.056,2.056,0,0,0,367.033,299.158Z" transform="translate(-316.605 -258.223)" fill="#fff"/>
      <path id="Path_23986" data-name="Path 23986" d="M403.462,168.213a1.9,1.9,0,0,1,2.082-.62,1.2,1.2,0,0,1,.469.438,2.8,2.8,0,0,0-.533.609,2.441,2.441,0,0,0-.289.587,1.779,1.779,0,0,0,.1,1.526,1.613,1.613,0,0,0,1.111.673,1.826,1.826,0,0,0,1.131-.267,2.464,2.464,0,0,0,.64-.5,2.794,2.794,0,0,0,.533-.78,2.534,2.534,0,0,0,.224-1.046,4.334,4.334,0,0,0-.256-1.516,2.726,2.726,0,0,0-.747-1.131,2.616,2.616,0,0,0-1.291-.651,4.563,4.563,0,0,0-1.879.031,5.981,5.981,0,0,0-1.942.758,5.778,5.778,0,0,0-1.473,1.26,5.284,5.284,0,0,0-.929,1.558,4.35,4.35,0,0,0-.342,1.665,5.416,5.416,0,0,0,.193,1.5,4.788,4.788,0,0,0,.576,1.217,5.72,5.72,0,0,0,.907,1.046c.624.581,1.094.832,2.359,1.782a2.725,2.725,0,0,1,.662.693,2.285,2.285,0,0,1,.3.651,2.6,2.6,0,0,1,.064.736,2.1,2.1,0,0,1-.034.4,2.008,2.008,0,0,1-.1.352,2.119,2.119,0,0,1-.352.566,1.607,1.607,0,0,1-.427.406,1.354,1.354,0,0,1-.4.16,1.394,1.394,0,0,1-.992-.139,2.6,2.6,0,0,0,.427-.533,2.353,2.353,0,0,0,.224-.48,1.879,1.879,0,0,0,.1-.46,1.835,1.835,0,0,0-.16-.875,1.543,1.543,0,0,0-.427-.587,1.371,1.371,0,0,0-.261-.168,1.635,1.635,0,0,0-.4-.13,2.591,2.591,0,0,0-1.793.406,2.595,2.595,0,0,0-.875,3.31,2.671,2.671,0,0,0,.844.971,3.635,3.635,0,0,0,1.462.62,5.769,5.769,0,0,0,4.8-1.377,6.19,6.19,0,0,0,.811-.982,5.753,5.753,0,0,0,.534-1.067,5.687,5.687,0,0,0,.289-1.035,4.582,4.582,0,0,0,.075-.929,3.59,3.59,0,0,0-.191-1.153,3.534,3.534,0,0,0-.587-1.024,5.262,5.262,0,0,0-.982-.96c-.93-.729-1.588-.974-2.669-1.762a2.488,2.488,0,0,1-.693-.726,2.6,2.6,0,0,1-.3-.737,2.845,2.845,0,0,1-.064-.854,2.613,2.613,0,0,1,.129-.758,2.445,2.445,0,0,1,.353-.673h0Z" transform="translate(-344.756 -142.82)" fill="#fff"/>
    </g>
  </g>
</svg>
