<svg xmlns="http://www.w3.org/2000/svg" width="31.105" height="24.117" viewBox="0 0 31.105 24.117">
  <g id="Layer_1" data-name="Layer 1" transform="translate(-0.01 0.002)">
    <g id="Group_8856" data-name="Group 8856" transform="translate(0.01 -0.002)">
      <g id="Group_8855" data-name="Group 8855" transform="translate(0 0)">
        <g id="Group_8854" data-name="Group 8854" transform="translate(11.534 18.351)">
          <path id="Path_23961" data-name="Path 23961" d="M195.491,354.446a.144.144,0,0,0,.061.041.141.141,0,0,0,.075,0,.173.173,0,0,0,.075-.032.274.274,0,0,0,.062-.062.3.3,0,0,0,.041-.082.284.284,0,0,0,.013-.093.263.263,0,0,0-.017-.085.2.2,0,0,0-.04-.063.141.141,0,0,0-.13-.037.191.191,0,0,0-.07.029.244.244,0,0,0-.057.055.3.3,0,0,0-.041.074.341.341,0,0,0-.02.085.241.241,0,0,0,.009.1.2.2,0,0,0,.038.071h0Z" transform="translate(-195.06 -350.799)" fill="#2e245a"/>
          <path id="Path_23962" data-name="Path 23962" d="M202.76,353.1a.144.144,0,0,0,.061.041.148.148,0,0,0,.075,0,.178.178,0,0,0,.076-.032.262.262,0,0,0,.062-.062.294.294,0,0,0,.041-.082.266.266,0,0,0,.013-.093.262.262,0,0,0-.017-.085.18.18,0,0,0-.04-.062.141.141,0,0,0-.059-.035.143.143,0,0,0-.072,0,.183.183,0,0,0-.07.03.245.245,0,0,0-.057.055.3.3,0,0,0-.041.074.342.342,0,0,0-.02.085.241.241,0,0,0,.009.1.2.2,0,0,0,.038.071h0Z" transform="translate(-201.887 -349.541)" fill="#2e245a"/>
          <path id="Path_23963" data-name="Path 23963" d="M217.824,386.672a.137.137,0,0,0-.059-.035.15.15,0,0,0-.072,0,.2.2,0,0,0-.1.051.264.264,0,0,0-.062.093.325.325,0,0,0-.023.111.247.247,0,0,0,.018.1.162.162,0,0,0,.06.074.146.146,0,0,0,.1.021.173.173,0,0,0,.075-.032.273.273,0,0,0,.062-.062.294.294,0,0,0,.041-.082.284.284,0,0,0,.013-.093.262.262,0,0,0-.017-.085.192.192,0,0,0-.04-.063h0Z" transform="translate(-215.781 -381.409)" fill="#2e245a"/>
          <path id="Path_23964" data-name="Path 23964" d="M210.521,388.034a.14.14,0,0,0-.059-.035.143.143,0,0,0-.072,0,.179.179,0,0,0-.07.03.244.244,0,0,0-.057.055.287.287,0,0,0-.041.074.341.341,0,0,0-.02.085.24.24,0,0,0,.009.1.2.2,0,0,0,.038.071.143.143,0,0,0,.061.041.148.148,0,0,0,.075,0,.178.178,0,0,0,.076-.032.271.271,0,0,0,.062-.062.294.294,0,0,0,.041-.082.281.281,0,0,0,.013-.093.263.263,0,0,0-.017-.085.192.192,0,0,0-.04-.063h0Z" transform="translate(-208.92 -382.688)" fill="#2e245a"/>
          <path id="Path_23965" data-name="Path 23965" d="M191,360.347l-.549.106.017,0-.068.013v-.968a.548.548,0,0,0-.218-.054.571.571,0,0,0-.212.035.751.751,0,0,0-.2.109,1.171,1.171,0,0,0-.179.166,1.5,1.5,0,0,0-.153.209,1.819,1.819,0,0,0-.123.237,1.716,1.716,0,0,0-.087.251,1.428,1.428,0,0,0-.044.248v.059a.27.27,0,0,0,.32.265l.878-.169.018,0,.924-.179V359.24L191,359.3v1.044Zm-.921.176-.532.1a1.4,1.4,0,0,1,.032-.162,1.434,1.434,0,0,1,.055-.169,1.241,1.241,0,0,1,.077-.16.734.734,0,0,1,.1-.135.485.485,0,0,1,.123-.095.328.328,0,0,1,.145-.038v.655Z" transform="translate(-189.19 -355.688)" fill="#2e245a"/>
          <path id="Path_23966" data-name="Path 23966" d="M230.239,356.693a1.222,1.222,0,0,0-.063-.2,1.294,1.294,0,0,0-.085-.177.652.652,0,0,0-.112-.16.593.593,0,0,0-.2-.126.726.726,0,0,0-.071-.023.714.714,0,0,0-.326-.009.763.763,0,0,0-.163.055.934.934,0,0,0-.166.094v.445l.038-.047a.587.587,0,0,1,.072-.063.564.564,0,0,1,.419-.1.293.293,0,0,1,.056.019.216.216,0,0,1,.029.016.481.481,0,0,1,.074.059.519.519,0,0,1,.079.1.947.947,0,0,1,.06.116.843.843,0,0,1,.04.131.986.986,0,0,1,.021.146l-1.047.2v.383l1.377-.266c0-.049.007-.11.007-.18,0-.1-.005-.181-.007-.2a1.354,1.354,0,0,0-.029-.215h0Z" transform="translate(-226.47 -352.634)" fill="#2e245a"/>
          <path id="Path_23967" data-name="Path 23967" d="M261.093,329.188c-.043.01-.088.018-.135.026l-.035.005a.176.176,0,0,1-.094-.008.246.246,0,0,1-.1-.084.252.252,0,0,1-.024-.047.3.3,0,0,1-.019-.107v-.742l-.326.063v.844a.277.277,0,0,1-.029.12.247.247,0,0,1-.066.084.2.2,0,0,1-.084.042.145.145,0,0,1-.084,0,.137.137,0,0,1-.066-.057.2.2,0,0,1-.029-.116c0-.09,0-.408,0-.844l-.327.063c.014.428.011.744,0,.844a.358.358,0,0,1-.042.133.258.258,0,0,1-.08.088.184.184,0,0,1-.067.029.155.155,0,0,1-.031,0,.153.153,0,0,1-.1-.04.184.184,0,0,1-.041-.063.262.262,0,0,1-.01-.033.124.124,0,0,1,0-.023V328.5l-.324.063c0,.38,0,.657,0,.742a.436.436,0,0,1-.013.113.37.37,0,0,1-.041.1.341.341,0,0,1-.06.073.141.141,0,0,1-.038.027.22.22,0,0,1-.034.012l-.015,0-.146.028c-.033.007-.273.06-.474.091a.362.362,0,0,1-.157-.007.232.232,0,0,1-.115-.063.279.279,0,0,1-.057-.112.266.266,0,0,1-.012-.057.324.324,0,0,1,0-.054.584.584,0,0,1,.02-.131.381.381,0,0,1,.055-.126.353.353,0,0,1,.089-.086.305.305,0,0,1,.1-.051.286.286,0,0,1,.036,0,.311.311,0,0,1,.038,0,.347.347,0,0,1,.073.009.187.187,0,0,1,.061.032.178.178,0,0,1,.043.051l.041.056.206-.362-.027-.038a.519.519,0,0,0-.1-.074.547.547,0,0,0-.115-.05.628.628,0,0,0-.373.035,1.045,1.045,0,0,0-.12.06.862.862,0,0,0-.113.093,1.2,1.2,0,0,0-.1.1,1.328,1.328,0,0,0-.076.124.986.986,0,0,0-.059.132,1.318,1.318,0,0,0-.037.151.837.837,0,0,0-.013.146.865.865,0,0,0,0,.09c0,.029.007.057.012.085l.054.169-.082.016-.019,0-.044.009-.041.008.013-.258-.013-.193a.545.545,0,0,0-.026-.134.858.858,0,0,0-.048-.116.533.533,0,0,0-.057-.091.6.6,0,0,0-.068-.073.355.355,0,0,0-.045-.035.375.375,0,0,0-.044-.024.351.351,0,0,0-.111-.029.788.788,0,0,0-.394.068.734.734,0,0,0-.154.106.827.827,0,0,0-.12.134.89.89,0,0,0-.1.163s-.02.045-.035.09a1.025,1.025,0,0,0-.038.448.6.6,0,0,0,.093.252.493.493,0,0,0,.084.1.472.472,0,0,0,.187.1.519.519,0,0,0,.229,0l.038-.007a.786.786,0,0,0,.159-.053c-.018.04-.038.084-.06.129s-.045.09-.07.134l-.187.283.274.2c.05-.076.1-.148.136-.218s.078-.139.112-.207l.149-.369.125-.024h0c.891-.169,1.54-.294,1.607-.309a.252.252,0,0,0,.105-.044.371.371,0,0,0,.045-.038.518.518,0,0,0,.035-.039.545.545,0,0,0,.072.038.594.594,0,0,0,.075.027.368.368,0,0,0,.083.01.518.518,0,0,0,.09-.008.441.441,0,0,0,.094-.029.507.507,0,0,0,.091-.051.937.937,0,0,0,.159-.148c.024.018.048.035.072.049a.407.407,0,0,0,.082.038.319.319,0,0,0,.093.016.45.45,0,0,0,.092-.007.544.544,0,0,0,.109-.033.383.383,0,0,0,.1-.06.965.965,0,0,0,.088-.074.5.5,0,0,0,.077-.091.23.23,0,0,0,.066.047.307.307,0,0,0,.082.026.75.75,0,0,0,.09.012.378.378,0,0,0,.09-.005l.053-.01.5-.1V327.55l-.329.063v1.577Zm-4.108.763c-.04.049-.114.054-.263.065a.336.336,0,0,1-.109-.007.216.216,0,0,1-.1-.051.181.181,0,0,1-.032-.041.28.28,0,0,1-.035-.1.487.487,0,0,1,.068-.329.424.424,0,0,1,.041-.046.431.431,0,0,1,.048-.039.277.277,0,0,1,.118-.049.226.226,0,0,1,.1.006.217.217,0,0,1,.087.051.259.259,0,0,1,.06.091.561.561,0,0,1,.034.135,1.223,1.223,0,0,1,.02.134.262.262,0,0,1-.035.18h0Z" transform="translate(-252.017 -325.931)" fill="#2e245a"/>
          <path id="Path_23968" data-name="Path 23968" d="M348.36,327.081l.326-.063V325.03l-.326.063Z" transform="translate(-338.656 -323.564)" fill="#2e245a"/>
          <path id="Path_23969" data-name="Path 23969" d="M374.351,329.853a.146.146,0,0,0,.06.041.15.15,0,0,0,.076,0,.172.172,0,0,0,.075-.032.273.273,0,0,0,.062-.062.3.3,0,0,0,.041-.082.285.285,0,0,0,.013-.093.262.262,0,0,0-.017-.085.192.192,0,0,0-.04-.063.137.137,0,0,0-.059-.035.15.15,0,0,0-.072,0,.183.183,0,0,0-.07.03.244.244,0,0,0-.057.055.3.3,0,0,0-.041.074.342.342,0,0,0-.02.085.241.241,0,0,0,.009.1.2.2,0,0,0,.038.071h0Z" transform="translate(-363.015 -327.706)" fill="#2e245a"/>
          <path id="Path_23970" data-name="Path 23970" d="M381.611,328.5a.144.144,0,0,0,.061.041.141.141,0,0,0,.075,0,.173.173,0,0,0,.075-.032.273.273,0,0,0,.062-.062.3.3,0,0,0,.041-.082.283.283,0,0,0,.013-.093.262.262,0,0,0-.017-.085.182.182,0,0,0-.04-.063.136.136,0,0,0-.059-.035.143.143,0,0,0-.072,0,.182.182,0,0,0-.07.03.244.244,0,0,0-.057.055.3.3,0,0,0-.041.074.343.343,0,0,0-.02.085.241.241,0,0,0,.009.1.2.2,0,0,0,.038.071h0Z" transform="translate(-369.833 -326.431)" fill="#2e245a"/>
          <path id="Path_23971" data-name="Path 23971" d="M363.584,327.659l-1.166.225a.249.249,0,0,1-.1-.007.2.2,0,0,1-.045-.018.214.214,0,0,1-.042-.032.168.168,0,0,1-.028-.04.289.289,0,0,1-.022-.053.405.405,0,0,1-.016-.058.367.367,0,0,1-.005-.071.462.462,0,0,1,.022-.137.448.448,0,0,1,.022-.06.357.357,0,0,1,.028-.049.279.279,0,0,1,.038-.048.238.238,0,0,1,.049-.037.352.352,0,0,1,.1-.041v-.38a.648.648,0,0,0-.118.035.628.628,0,0,0-.108.059.815.815,0,0,0-.1.082.757.757,0,0,0-.159.207.806.806,0,0,0-.053.132.861.861,0,0,0-.031.137,1.094,1.094,0,0,0-.01.154.687.687,0,0,0,.005.143.567.567,0,0,0,.035.132.6.6,0,0,0,.053.11.478.478,0,0,0,.159.16.472.472,0,0,0,.1.045.537.537,0,0,0,.108.024.373.373,0,0,0,.118-.006l1.484-.287v-1.4l-.318.062v1.016Z" transform="translate(-351.311 -325.019)" fill="#2e245a"/>
          <path id="Path_23972" data-name="Path 23972" d="M408.551,349.882a.136.136,0,0,0-.059-.035.15.15,0,0,0-.072,0,.182.182,0,0,0-.07.03.244.244,0,0,0-.057.055.3.3,0,0,0-.041.074.343.343,0,0,0-.02.085.23.23,0,0,0,.01.1.2.2,0,0,0,.038.071.146.146,0,0,0,.06.041.143.143,0,0,0,.076,0,.173.173,0,0,0,.075-.032.273.273,0,0,0,.062-.062.294.294,0,0,0,.041-.082.285.285,0,0,0,.013-.093.261.261,0,0,0-.017-.085.192.192,0,0,0-.04-.063Z" transform="translate(-394.877 -346.863)" fill="#2e245a"/>
          <path id="Path_23973" data-name="Path 23973" d="M415.811,348.524a.136.136,0,0,0-.058-.035.143.143,0,0,0-.072,0,.182.182,0,0,0-.07.03.245.245,0,0,0-.057.055.3.3,0,0,0-.041.074.341.341,0,0,0-.02.085.23.23,0,0,0,.01.1.2.2,0,0,0,.038.071.144.144,0,0,0,.061.041.141.141,0,0,0,.075,0,.173.173,0,0,0,.075-.032.274.274,0,0,0,.062-.062.3.3,0,0,0,.041-.082.283.283,0,0,0,.013-.093.262.262,0,0,0-.017-.085.192.192,0,0,0-.04-.063h0Z" transform="translate(-401.694 -345.587)" fill="#2e245a"/>
          <path id="Path_23974" data-name="Path 23974" d="M401.57,312.539l-.125.024.017,0-.279.054v-1.034l-.324.063v1.034l-.234.045-.054.01-.032.006-.114.022v-1.607l-.324.063V313.2l.448-.087.017,0,.9-.173.437-.084V310.9l-.329.063v1.577Z" transform="translate(-387.241 -310.295)" fill="#2e245a"/>
          <path id="Path_23975" data-name="Path 23975" d="M470.94,301.4a.144.144,0,0,0,.061.041.136.136,0,0,0,.075,0,.178.178,0,0,0,.076-.032.273.273,0,0,0,.062-.062.294.294,0,0,0,.041-.082.285.285,0,0,0,.013-.093.263.263,0,0,0-.017-.085.2.2,0,0,0-.04-.063.141.141,0,0,0-.13-.037.19.19,0,0,0-.07.029.244.244,0,0,0-.057.055.3.3,0,0,0-.041.074.341.341,0,0,0-.02.085.24.24,0,0,0,.009.1.2.2,0,0,0,.038.071Z" transform="translate(-453.716 -300.983)" fill="#2e245a"/>
          <path id="Path_23976" data-name="Path 23976" d="M437.293,309.049a.656.656,0,0,0-.1-.24.515.515,0,0,0-.16-.167.428.428,0,0,0-.133-.054.4.4,0,0,0-.083-.009.653.653,0,0,0-.125.013.74.74,0,0,0-.125.035.518.518,0,0,0-.116.062.66.66,0,0,0-.1.087.926.926,0,0,0-.217.36.882.882,0,0,0-.032.138.951.951,0,0,0-.011.145.818.818,0,0,0,.015.176.708.708,0,0,0,.048.149l-.138.027-.524.1a.279.279,0,0,1-.157-.007.286.286,0,0,1-.149-.123.4.4,0,0,1,.041-.419.355.355,0,0,1,.089-.086.3.3,0,0,1,.251-.048.251.251,0,0,1,.087.058.285.285,0,0,1,.058.08l.206-.362-.027-.038a.518.518,0,0,0-.1-.074.545.545,0,0,0-.115-.05.645.645,0,0,0-.253,0,.659.659,0,0,0-.12.037,1.048,1.048,0,0,0-.12.06.867.867,0,0,0-.113.093,1.212,1.212,0,0,0-.1.1,1.335,1.335,0,0,0-.076.124,1.073,1.073,0,0,0-.059.132,1.317,1.317,0,0,0-.037.151.839.839,0,0,0-.013.146.857.857,0,0,0,0,.09c0,.029.007.057.012.085l.054.169-.146.028-.14.027V308.44l-.324.063v1.989l.455-.088h0l1.3-.25h0l.687-.132a.585.585,0,0,0,.238-.1.842.842,0,0,0,.1-.085.763.763,0,0,0,.087-.1c.026-.038.05-.078.073-.12a.927.927,0,0,0,.06-.135.707.707,0,0,0,.035-.14,1.014,1.014,0,0,0,.01-.141.817.817,0,0,0-.01-.145h0Zm-.346.34a.412.412,0,0,1-.056.112.372.372,0,0,1-.084.085.271.271,0,0,1-.1.047.208.208,0,0,1-.106,0,.213.213,0,0,1-.087-.051.252.252,0,0,1-.059-.091.308.308,0,0,1-.02-.123.378.378,0,0,1,.023-.124.428.428,0,0,1,.058-.109.356.356,0,0,1,.085-.081.272.272,0,0,1,.1-.043.213.213,0,0,1,.1,0,.208.208,0,0,1,.084.049.248.248,0,0,1,.057.087.318.318,0,0,1,.022.116.383.383,0,0,1-.02.126h0Z" transform="translate(-419.319 -307.985)" fill="#2e245a"/>
        </g>
        <path id="Path_23977" data-name="Path 23977" d="M399.6,113.39c.261-.055.405-.123.434-.2a.262.262,0,0,0-.063-.328.671.671,0,0,0-.279-.155,3.226,3.226,0,0,0-1.642,0,8.732,8.732,0,0,0-2.689,1.06,10.143,10.143,0,0,0-2.443,1.9,8.84,8.84,0,0,1,3.006-1.658,11.318,11.318,0,0,1,2.4-.5,10.849,10.849,0,0,0,1.281-.126h0Z" transform="translate(-368.965 -105.738)" fill="#dc2b58"/>
        <path id="Path_23978" data-name="Path 23978" d="M395.286,67.458a4.19,4.19,0,0,0-1.772.593,11.539,11.539,0,0,0-2.679,2.032,13.7,13.7,0,0,0-2.235,2.794,11.735,11.735,0,0,1,2.886-2.752,15.09,15.09,0,0,1,2.475-1.358,14.183,14.183,0,0,0,1.356-.58q.407-.223.433-.358a.246.246,0,0,0-.144-.31.65.65,0,0,0-.319-.061h0Z" transform="translate(-364.908 -63.344)" fill="#dc2b58"/>
        <path id="Path_23979" data-name="Path 23979" d="M381.555.346a.636.636,0,0,0-.187-.274.253.253,0,0,0-.346-.012c-.075.045-.128.223-.16.535a14.294,14.294,0,0,0-.017,1.464,14.952,14.952,0,0,1-.316,2.808,11.677,11.677,0,0,1-1.439,3.722,13.662,13.662,0,0,0,1.729-3.129,11.4,11.4,0,0,0,.857-3.249,4.218,4.218,0,0,0-.121-1.866h0Z" transform="translate(-355.978 0.002)" fill="#dc2b58"/>
        <path id="Path_23980" data-name="Path 23980" d="M391.184,13.512q.281-.64.063-.694a.7.7,0,0,0-.529.175,5.755,5.755,0,0,0-.751.706,14.927,14.927,0,0,0-1.392,2.152q-.962,1.664-3.155,5.017,1.068-1.292,1.919-2.475t1.464-1.874q.619-.691,1.363-1.54a6.038,6.038,0,0,0,1.017-1.466h0Z" transform="translate(-361.922 -12.028)" fill="#dc2b58"/>
        <path id="Path_23981" data-name="Path 23981" d="M363.657,15.083a11.39,11.39,0,0,0,.373,1.229,11.416,11.416,0,0,1,.454,2.41,8.712,8.712,0,0,1-.39,3.411,10.578,10.578,0,0,0,.833-2.978,8.885,8.885,0,0,0-.047-2.894,3.41,3.41,0,0,0-.621-1.524.658.658,0,0,0-.26-.193.261.261,0,0,0-.328.063q-.091.085-.015.476Z" transform="translate(-341.453 -13.629)" fill="#dc2b58"/>
        <path id="Path_23982" data-name="Path 23982" d="M4.606,22.1a1.779,1.779,0,0,0-.314-.59,2.491,2.491,0,0,0-.557-.5,5.808,5.808,0,0,0-.8-.423c-.273-.129-.413-.187-.685-.333a1.865,1.865,0,0,1-.471-.324A1.113,1.113,0,0,1,1.5,19.55a1.191,1.191,0,0,1-.086-.48,1.088,1.088,0,0,1,.086-.428,1.129,1.129,0,0,1,.223-.338,1.072,1.072,0,0,1,.3-.238.862.862,0,0,1,.652-.086.705.705,0,0,1,.181.091,1.416,1.416,0,0,0-.138.266.992.992,0,0,0-.019.852.717.717,0,0,0,.209.209.705.705,0,0,0,.271.1.8.8,0,0,0,.286-.01,1.3,1.3,0,0,0,.3-.09,1.3,1.3,0,0,0,.362-.219,1.388,1.388,0,0,0,.3-.4,1.418,1.418,0,0,0,.124-.633,1.184,1.184,0,0,0-.172-.652,1.313,1.313,0,0,0-.476-.438,1.869,1.869,0,0,0-.69-.2,2.813,2.813,0,0,0-.823.047,3.019,3.019,0,0,0-1.608.923,3.021,3.021,0,0,0-.543.861,2.761,2.761,0,0,0-.2,1.08,2.073,2.073,0,0,0,.109.7,2.167,2.167,0,0,0,.281.542,2.058,2.058,0,0,0,.4.4,2.713,2.713,0,0,0,.442.285c.6.319,1.084.394,1.506.678a1.6,1.6,0,0,1,.184.145,1.491,1.491,0,0,1,.319.438,1.417,1.417,0,0,1,.124.618,1.159,1.159,0,0,1-.119.543,1.4,1.4,0,0,1-.286.39,1.215,1.215,0,0,1-.877.374.9.9,0,0,1-.374-.107.846.846,0,0,1-.205-.158.942.942,0,0,0,.2-.107.891.891,0,0,0,.149-.131.98.98,0,0,0,.171-.294.863.863,0,0,0,.071-.243.749.749,0,0,0,0-.11,1.019,1.019,0,0,0-.09-.49.662.662,0,0,0-.252-.276c-.054-.03-.1-.054-.112-.059a.755.755,0,0,0-.216-.051,1.123,1.123,0,0,0-.342.019,1.223,1.223,0,0,0-.352.133,1.419,1.419,0,0,0-.362.281,1.473,1.473,0,0,0-.276.452,1.648,1.648,0,0,0-.114.642,1.577,1.577,0,0,0,.185.8,1.259,1.259,0,0,0,.486.494,1.8,1.8,0,0,0,.709.214,2.734,2.734,0,0,0,.827-.052,3.715,3.715,0,0,0,.838-.271,2.927,2.927,0,0,0,.761-.509,2.926,2.926,0,0,0,.59-.8,3.172,3.172,0,0,0,.3-1.147l.01-.3a2.284,2.284,0,0,0-.1-.718Zm4.668,1.032-.019-3.14a3.729,3.729,0,0,0-.109-.918,1.888,1.888,0,0,0-.362-.733,1.363,1.363,0,0,0-.633-.428,1.746,1.746,0,0,0-.932-.028,2.819,2.819,0,0,0-.923.342,2.4,2.4,0,0,0-.624.514,2.274,2.274,0,0,0-.352.566,1.6,1.6,0,0,0-.082.282,1.484,1.484,0,0,0-.027.255,1.388,1.388,0,0,0,.067.437.916.916,0,0,0,.075.179.8.8,0,0,0,.1.145.633.633,0,0,0,.262.185.6.6,0,0,0,.329.015,1.052,1.052,0,0,0,.387-.161.962.962,0,0,0,.185-.163.938.938,0,0,0,.218-.642.692.692,0,0,0-.052-.214.651.651,0,0,0-.114-.181.605.605,0,0,0-.224-.152,1.118,1.118,0,0,1,.3-.338.944.944,0,0,1,.766-.2,1.022,1.022,0,0,1,.48,1.18,1.628,1.628,0,0,1-.3.538,3.4,3.4,0,0,1-.447.514c-.445.421-.9.694-1.233.994-.056.05-.1.092-.113.108a2.87,2.87,0,0,0-.3.358,2.55,2.55,0,0,0-.3.576,2.022,2.022,0,0,0-.114.7,1.872,1.872,0,0,0,.128.757.939.939,0,0,0,.319.418.872.872,0,0,0,.423.172,1.617,1.617,0,0,0,.462-.029,1.953,1.953,0,0,0,.809-.366,2.494,2.494,0,0,0,.632-.738l.11.728,1.332-.352-.119-1.18Zm-1.342-.6a3.74,3.74,0,0,1-.142.39,2.445,2.445,0,0,1-.219.409,1.633,1.633,0,0,1-.3.347.8.8,0,0,1-.381.191.334.334,0,0,1-.356-.114.666.666,0,0,1-.129-.414.889.889,0,0,1,.119-.4,1.767,1.767,0,0,1,.281-.409,9.583,9.583,0,0,1,.737-.738c.073-.068.148-.146.225-.235a3.167,3.167,0,0,0,.208-.269,3.327,3.327,0,0,1-.043,1.237Zm6.24.694-.114-3.834.1-2.7-1.313.238a18.526,18.526,0,0,1,0,3.416c-.021.134-.07.385-.133.647a4.615,4.615,0,0,1-.29.852,1.821,1.821,0,0,1-.148.247.909.909,0,0,1-.163.194.459.459,0,0,1-.165.106.435.435,0,0,1-.22.01.54.54,0,0,1-.175-.063.615.615,0,0,1-.243-.352,2.465,2.465,0,0,1-.128-.647,9.184,9.184,0,0,1-.034-.952c.007-.344.028-.605.043-.785.008-.092.034-.4.11-.932.046-.33.113-.763.209-1.275l-1.465.134q-.138.89-.2,1.794L9.78,21.178a6.515,6.515,0,0,0,.1,1.208,2.649,2.649,0,0,0,.309.88,1.18,1.18,0,0,0,.523.5,1.094,1.094,0,0,0,.742.066,1.869,1.869,0,0,0,.221-.089,2.1,2.1,0,0,0,.226-.125,1.989,1.989,0,0,0,.414-.366,2.621,2.621,0,0,0,.213-.265,2.379,2.379,0,0,0,.2-.344l-.058.856,1.5-.276Zm5.154-9.806-1.665.314.1,2.527a1.344,1.344,0,0,0-.2-.149,1.4,1.4,0,0,0-.194-.1,1.419,1.419,0,0,0-.343-.1,1.223,1.223,0,0,0-.337-.01,1.333,1.333,0,0,0-.467.157,2.02,2.02,0,0,0-.232.14,2.084,2.084,0,0,0-.22.184,2.381,2.381,0,0,0-.4.514,3.291,3.291,0,0,0-.333.7,5.8,5.8,0,0,0-.219.961,8.1,8.1,0,0,0-.081,1.213,7.462,7.462,0,0,0,.157,1.689,3.163,3.163,0,0,0,.4,1.013,1.16,1.16,0,0,0,.542.467,1.049,1.049,0,0,0,.418.067,1.641,1.641,0,0,0,1.086-.7,3.386,3.386,0,0,0,.24-.33,3.446,3.446,0,0,0,.235-.43L17.775,22.7l1.318-.29-.038-2.246q0-1.684.072-3.354l.2-3.387Zm-1.607,7.13a1.221,1.221,0,0,1-.435.807c-.18.137-.506.323-.713.135a.6.6,0,0,1-.131-.2,4.29,4.29,0,0,1-.244-1.76,5.675,5.675,0,0,1,.085-1.165,4.739,4.739,0,0,1,.215-.771,1.056,1.056,0,0,1,.488-.579.605.605,0,0,1,.779.324q-.021,1.6-.041,3.206Zm2.1-4.9.167,2.56.047,2.5-.014,1.522,1.308-.3.029-3.436.162-3.211-1.7.366ZM6.644,32.563c0-.019,0-.045,0-.076a.328.328,0,0,1,0-.067c-.038.022-.094.049-.166.081-.379.155-.8.306-1.261.443-.369.109-.721.2-1.052.266l-.057-2.917c.223-.043.457-.084.7-.118.376-.055.733-.091,1.07-.115L5.83,28.933l.014-.2-1.727.49.024-1.962c.155-.037.312-.072.471-.1a18.421,18.421,0,0,1,2.031-.3l-.066-1.237-.914.234L2.6,26.409c.062.588.123.98.167,1.777.059,1.066.062,1.87.062,2.06,0,1.214-.057,2.14-.1,2.807-.041.636-.09,1.174-.129,1.575l2.484-.571,1.627-.309-.072-1.185Zm9.279-2.692a.692.692,0,0,0-.228-.281.658.658,0,0,0-.271-.1,1.038,1.038,0,0,0-.8.3,1.153,1.153,0,0,0-.257.323.912.912,0,0,0-.109.471.673.673,0,0,0,.052.233.616.616,0,0,0,.119.181.442.442,0,0,0,.1.081.454.454,0,0,0,.134.052.754.754,0,0,1-.157.219.717.717,0,0,1-.478.212c-.384-.027-.59-.626-.649-.8a1.854,1.854,0,0,1-.1-.628,5.84,5.84,0,0,0,1.137-.714,5.19,5.19,0,0,0,.823-.851,3.8,3.8,0,0,0,.509-.909,2.56,2.56,0,0,0,.167-.876,1.8,1.8,0,0,0-.152-.78,1.29,1.29,0,0,0-.414-.518,1.367,1.367,0,0,0-.6-.238,1.853,1.853,0,0,0-.732.019,2.23,2.23,0,0,0-.529.176,2.407,2.407,0,0,0-.518.338,2.629,2.629,0,0,0-.471.523,3.281,3.281,0,0,0-.381.723,4.542,4.542,0,0,0-.262.956,6.947,6.947,0,0,0-.1,1.213,7.147,7.147,0,0,0,.1,1.252,3.975,3.975,0,0,0,.262.9,2.164,2.164,0,0,0,.386.618,1.643,1.643,0,0,0,.48.357,1.413,1.413,0,0,0,.528.143,2.28,2.28,0,0,0,.547-.038,2.661,2.661,0,0,0,.761-.276,2.555,2.555,0,0,0,.623-.476,2.21,2.21,0,0,0,.423-.6,1.571,1.571,0,0,0,.157-.676,1.181,1.181,0,0,0-.1-.528Zm-2.611-1.96a3.373,3.373,0,0,1,.06-.7c.024-.105.227-1,.7-1.066a.525.525,0,0,1,.388.127c.184.166.184.449.183.786a2.185,2.185,0,0,1-.024.309,1.663,1.663,0,0,1-.071.31,3.008,3.008,0,0,1-.286.6,3.916,3.916,0,0,1-.433.556,4.38,4.38,0,0,1-.547.481c.008-.361.018-.84.033-1.408Zm7.439-1.128a6.224,6.224,0,0,0-.1-1.185,2.219,2.219,0,0,0-.31-.837,1.105,1.105,0,0,0-.528-.466,1.282,1.282,0,0,0-.742-.052,1.415,1.415,0,0,0-.447.171,2.282,2.282,0,0,0-.4.319,2.234,2.234,0,0,0-.212.246,2.179,2.179,0,0,0-.2.32l.033-.476-1.5.276.053,5.272-.029,1.252,1.309-.233a30.556,30.556,0,0,1,.009-3.835c.047-.317.125-.613.125-.613.065-.246.127-.416.146-.468a2.276,2.276,0,0,1,.3-.6c.115-.157.187-.252.324-.3a.516.516,0,0,1,.4.053.636.636,0,0,1,.248.352,1.911,1.911,0,0,1,.119.651c.026.538.039.807.038.947,0,.385-.025.67-.048.961-.01.137-.042.532-.109,1.056-.046.36-.112.808-.21,1.323l1.347-.109.2-.961c.034-.25.077-.6.114-1.014a19.347,19.347,0,0,0,.072-2.06ZM21.289,13.4a.7.7,0,0,0-.156-.241.536.536,0,0,0-.227-.135.574.574,0,0,0-.28-.01.716.716,0,0,0-.272.114.952.952,0,0,0-.222.213,1.106,1.106,0,0,0-.159.285,1.254,1.254,0,0,0-.077.33.957.957,0,0,0,.036.368.77.77,0,0,0,.149.274.547.547,0,0,0,.235.157.558.558,0,0,0,.291.018.7.7,0,0,0,.291-.123,1.035,1.035,0,0,0,.241-.24,1.116,1.116,0,0,0,.16-.317,1.093,1.093,0,0,0,.053-.361.992.992,0,0,0-.067-.331Z" transform="translate(-0.01 -12.205)" fill="#2e245a"/>
        <path id="Path_23983" data-name="Path 23983" d="M113.619,226.546a.968.968,0,0,1-.265.573.682.682,0,0,1-.486.224.969.969,0,0,1-.24-.056c-.018-.005-.154-.059-.168-.043a16.693,16.693,0,0,0-.773,4.756c0,.271-.018.543-.019.814l-1.793.376-.174-.768c-.232-1.031-.45-2.064-.73-3.083l-.66-2.4,1.468-.358.483,2.414.5,2.45c.012-.5.054-1.006.108-1.506a8.422,8.422,0,0,1,.877-3.424,1.734,1.734,0,0,1,.947-.8.726.726,0,0,1,.77.255.8.8,0,0,1,.152.569Z" transform="translate(-101.707 -211.936)" fill="#2e245a"/>
      </g>
      <path id="Path_23984" data-name="Path 23984" d="M343.1,173.9v0a1.907,1.907,0,0,1-1.382,1.706,2.278,2.278,0,0,1-.422.041h-.009a.94.94,0,0,1-.935-.986l.06-4.229-.9.188.043-1.34.872-.182.009-1.158,1.4-.319-.014,1.179.982-.2-.016,1.335-.986.223s-.023,3.615-.023,4.159c0,.308.083.367.155.36h0a2.056,2.056,0,0,0,.685-.887.235.235,0,0,1,.126-.121l.041-.016a.233.233,0,0,1,.321.24Z" transform="translate(-318.811 -157.41)" fill="#2e245a"/>
      <path id="Path_23985" data-name="Path 23985" d="M366.887,299.148c-.038,0-.078,0-.117,0v0A.919.919,0,0,0,366.887,299.148Z" transform="translate(-344.409 -280.902)" fill="#2e245a"/>
      <path id="Path_23986" data-name="Path 23986" d="M401.2,166.682a.848.848,0,0,1,.928-.276.533.533,0,0,1,.209.2,1.248,1.248,0,0,0-.238.271,1.088,1.088,0,0,0-.129.262.793.793,0,0,0,.043.68.719.719,0,0,0,.5.3.814.814,0,0,0,.5-.119,1.1,1.1,0,0,0,.285-.224,1.246,1.246,0,0,0,.238-.348,1.129,1.129,0,0,0,.1-.466,1.932,1.932,0,0,0-.114-.676,1.215,1.215,0,0,0-.333-.5,1.166,1.166,0,0,0-.576-.29,2.034,2.034,0,0,0-.838.014,2.666,2.666,0,0,0-.866.338,2.575,2.575,0,0,0-.657.562,2.355,2.355,0,0,0-.414.694,1.939,1.939,0,0,0-.152.742,2.415,2.415,0,0,0,.086.671,2.134,2.134,0,0,0,.257.543,2.548,2.548,0,0,0,.4.466c.278.259.488.371,1.052.794a1.215,1.215,0,0,1,.3.309,1.018,1.018,0,0,1,.134.29,1.161,1.161,0,0,1,.029.328.936.936,0,0,1-.015.176.9.9,0,0,1-.046.157.944.944,0,0,1-.157.252.717.717,0,0,1-.19.181.6.6,0,0,1-.176.071.621.621,0,0,1-.442-.062,1.161,1.161,0,0,0,.19-.238,1.048,1.048,0,0,0,.1-.214.837.837,0,0,0,.043-.2.818.818,0,0,0-.071-.39.687.687,0,0,0-.19-.262.611.611,0,0,0-.116-.075.729.729,0,0,0-.179-.058,1.155,1.155,0,0,0-.8.181,1.157,1.157,0,0,0-.39,1.475,1.191,1.191,0,0,0,.376.433,1.62,1.62,0,0,0,.652.276,2.572,2.572,0,0,0,2.141-.614,2.758,2.758,0,0,0,.362-.438,2.563,2.563,0,0,0,.238-.476,2.534,2.534,0,0,0,.129-.462,2.041,2.041,0,0,0,.034-.414,1.6,1.6,0,0,0-.085-.514,1.574,1.574,0,0,0-.262-.457,2.345,2.345,0,0,0-.438-.428c-.415-.325-.708-.434-1.19-.785a1.109,1.109,0,0,1-.309-.324,1.158,1.158,0,0,1-.134-.329,1.268,1.268,0,0,1-.029-.38,1.165,1.165,0,0,1,.057-.338,1.089,1.089,0,0,1,.157-.3h0Z" transform="translate(-375.033 -155.363)" fill="#2e245a"/>
    </g>
  </g>
</svg>
