<svg xmlns="http://www.w3.org/2000/svg" width="47.32" height="42.976" viewBox="0 0 47.32 42.976"><path d="M108.812,361.066q-.727-5.015-1.478-10.024l-3.963-26.667a.823.823,0,0,0-.815-.7H67.076a.824.824,0,0,0-.818.715l-3.5,28.478q-.579,4.767-1.17,9.532a3.835,3.835,0,0,0,.791,3.107,3.657,3.657,0,0,0,2.843,1.137q6.953.006,13.9.007,10.1,0,20.2-.024a4.914,4.914,0,0,0,2.484-.638,7.119,7.119,0,0,1,3.7-1,3.211,3.211,0,0,0,3.31-3.921m-35.841-26.59a3.479,3.479,0,0,1,.481-2.749,3.436,3.436,0,0,1,2.321-1.489,3.6,3.6,0,0,1,2.765.69,3.4,3.4,0,0,1,1.288,2.411,3.584,3.584,0,0,1-.921,2.737,2.235,2.235,0,0,1-.858.621c0,.023,0,.051,0,.085.018.435.016.874.014,1.312a14,14,0,0,0,.1,2.156,4.488,4.488,0,0,0,3.369,3.88,4.929,4.929,0,0,0,6.392-4.764v-1.1l-.006-.243a4.921,4.921,0,0,1,.016-.709.78.78,0,0,0-.439-.951,2.848,2.848,0,0,1-1.24-1.859,3.563,3.563,0,0,1,.453-2.688,3.5,3.5,0,0,1,4.5-1.27,3.38,3.38,0,0,1,1.932,3.1,3.328,3.328,0,0,1-1.856,3.094c-.008.374-.008.713-.009,1.053a21.9,21.9,0,0,1-.153,3.065,8.264,8.264,0,0,1-7.28,6.826c-.3.029-.6.043-.89.043a8.257,8.257,0,0,1-7.555-4.762,7.9,7.9,0,0,1-.8-3.464v-.529c0-.769-.006-1.537,0-2.306a3.516,3.516,0,0,1-1.625-2.189" transform="translate(-61.542 -323.673)" fill="#fff"/></svg>