<svg xmlns="http://www.w3.org/2000/svg" width="25.189" height="29.636" viewBox="0 0 25.189 29.636">
  <g id="Group_9233" data-name="Group 9233" transform="translate(-503.641 -4419.433)">
    <g id="Group_9231" data-name="Group 9231" transform="translate(472 4107)">
      <path id="Path_23995" data-name="Path 23995" d="M49.507,330.754H49.16a1.366,1.366,0,0,1-1.48-1.56c.068-1.172.163-2.343.248-3.515q.189-2.6.38-5.2c.021-.286.034-.572.062-.857a1.369,1.369,0,0,1,1.342-1.247q1.618-.016,3.238,0a1.364,1.364,0,0,1,1.363,1.317c.164,2.2.317,4.4.475,6.6.065.9.12,1.792.2,2.685a1.431,1.431,0,0,1-1.6,1.777h-.216v.34c0,2.465,0,4.929,0,7.394a1.833,1.833,0,1,1-3.665.042c-.006-2.465,0-4.929,0-7.394v-.382" fill="#fff"/>
      <path id="Path_23996" data-name="Path 23996" d="M44.464,340.83h0a.442.442,0,0,1-.442-.442V312.875a.442.442,0,0,1,.884,0v27.513a.442.442,0,0,1-.442.442" fill="#fff"/>
      <path id="Path_23997" data-name="Path 23997" d="M51.358,312.868a2.293,2.293,0,1,1-2.308,2.251,2.3,2.3,0,0,1,2.308-2.251" fill="#fff"/>
      <path id="Path_23998" data-name="Path 23998" d="M37.6,312.868a2.293,2.293,0,1,1-2.3,2.261,2.295,2.295,0,0,1,2.3-2.261" fill="#fff"/>
    </g>
    <g id="Group_9232" data-name="Group 9232" transform="translate(472 4027)">
      <path id="Path_5405" data-name="Path 5405" d="M56.8,419.1q-.389-2.668-.787-5.336l-2.11-14.195a.438.438,0,0,0-.434-.374H34.587a.439.439,0,0,0-.435.381l-1.865,15.159q-.307,2.538-.622,5.074a2.043,2.043,0,0,0,.42,1.654,1.949,1.949,0,0,0,1.514.606l7.4,0q5.376,0,10.752-.013a2.615,2.615,0,0,0,1.322-.339,3.8,3.8,0,0,1,1.968-.533A1.71,1.71,0,0,0,56.8,419.1M37.725,404.943a1.854,1.854,0,0,1,.256-1.463,1.826,1.826,0,0,1,1.236-.793,1.91,1.91,0,0,1,1.471.368,1.808,1.808,0,0,1,.686,1.283,1.909,1.909,0,0,1-.49,1.457,1.191,1.191,0,0,1-.457.33c0,.012,0,.027,0,.046.009.231.008.465.007.7a7.51,7.51,0,0,0,.05,1.147,2.391,2.391,0,0,0,1.794,2.066,2.623,2.623,0,0,0,3.4-2.536v-.585l0-.13a2.493,2.493,0,0,1,.009-.377.417.417,0,0,0-.234-.506,1.518,1.518,0,0,1-.661-.99,1.9,1.9,0,0,1,.242-1.431,1.866,1.866,0,0,1,2.4-.676,1.8,1.8,0,0,1,1.028,1.649,1.771,1.771,0,0,1-.988,1.647c0,.2,0,.38-.005.561a11.691,11.691,0,0,1-.081,1.632,4.4,4.4,0,0,1-3.875,3.633c-.16.015-.318.023-.474.023a4.4,4.4,0,0,1-4.022-2.535,4.212,4.212,0,0,1-.426-1.843v-.282c0-.409,0-.818,0-1.228a1.872,1.872,0,0,1-.865-1.165" fill="#fff"/>
    </g>
  </g>
</svg>
