<svg width="18" height="15" viewBox="0 0 18 15" fill="none" xmlns="http://www.w3.org/2000/svg">
<g opacity="0.4">
<path d="M16.6401 4.95749C16.2301 4.30749 15.7601 3.72748 15.2801 3.19748L12.1401 6.33749C12.2401 6.64749 12.3 6.97748 12.3 7.32748C12.3 9.19748 10.7901 10.6975 8.93005 10.6975C8.58005 10.6975 8.25006 10.6375 7.94006 10.5375L5.06006 13.4175C6.28006 14.0975 7.59006 14.4575 8.94006 14.4575C10.4201 14.4575 11.8601 14.0275 13.1801 13.2175C14.5001 12.3975 15.6801 11.2075 16.6501 9.6875C17.4801 8.3875 17.4801 6.25748 16.6501 4.94748" fill="white"/>
</g>
<path d="M8.93015 5.5675C9.18015 5.5675 9.42015 5.62748 9.65015 5.72748L7.33014 8.04749C7.23014 7.82749 7.17017 7.57748 7.17017 7.32748C7.17017 6.36748 7.96015 5.5675 8.93015 5.5675Z" fill="white"/>
<g opacity="0.4">
<path d="M14.1402 2.11749L11.3102 4.94748C10.7002 4.32748 9.86015 3.9675 8.93015 3.9675C7.06015 3.9675 5.56015 5.47749 5.56015 7.33749C5.56015 8.26749 5.94016 9.1075 6.54016 9.7175L3.72016 12.5475C2.80016 11.7975 1.95016 10.8375 1.22016 9.70749C0.390156 8.39749 0.390156 6.2775 1.22016 4.9675C2.19016 3.4475 3.37016 2.25748 4.69016 1.44748C6.01016 0.647479 7.45015 0.207489 8.93015 0.207489C10.7901 0.207489 12.5902 0.887482 14.1402 2.13748" fill="white"/>
</g>
<path d="M11.3203 7.32748C11.3203 8.63748 10.2503 9.70749 8.94031 9.70749C8.89031 9.70749 8.85029 9.7075 8.80029 9.6875L11.3103 7.17749C11.3303 7.22749 11.3303 7.2675 11.3303 7.3175" fill="white"/>
</svg>
