<svg width="18" height="16" viewBox="0 0 18 16" fill="none" xmlns="http://www.w3.org/2000/svg">
<path d="M16.67 7.29001H17.92V4.79001H16.67V7.29001ZM13.13 1.25C14.28 1.25 15.15 1.54001 15.73 2.07001C16.3 2.60001 16.68 3.45001 16.68 4.79001H17.93C17.93 3.21001 17.48 1.98 16.58 1.16C15.7 0.340004 14.48 0 13.13 0V1.25ZM4.79999 1.25H13.13V0H4.79999V1.25ZM1.25998 4.79001C1.25998 3.45001 1.63999 2.60001 2.20999 2.07001C2.78999 1.54001 3.65 1.25 4.81 1.25V0C3.46 0 2.24999 0.340004 1.35999 1.16C0.469985 1.99 0.00997925 3.22001 0.00997925 4.79001H1.25998ZM1.25998 4.79001H0.00997925V10.62H1.25998V4.79001ZM4.79999 14.17C3.64999 14.17 2.77998 13.88 2.19998 13.35C1.62998 12.82 1.25 11.97 1.25 10.63H0C0 12.21 0.450006 13.44 1.35001 14.27C2.23001 15.09 3.44999 15.43 4.79999 15.43V14.18V14.17ZM8.97 14.17H4.79999V15.42H8.97V14.17ZM16.68 7.29001C16.68 7.64001 16.96 7.91 17.3 7.91C17.64 7.91 17.92 7.63001 17.92 7.29001H16.67H16.68ZM8.97 15.41C9.31 15.41 9.59 15.13 9.59 14.79C9.59 14.45 9.31 14.17 8.97 14.17V15.42V15.41Z" fill="white"/>
<path d="M7.77991 6.79999L5.1799 4.72L4.3999 5.70001L6.99991 7.78L7.77991 6.79999ZM10.1299 6.79999C9.49991 7.29999 8.40991 7.29999 7.77991 6.79999L6.99991 7.78C8.08991 8.64 9.8199 8.64 10.8999 7.78L10.1199 6.79999H10.1299ZM12.7399 4.72L10.1299 6.79999L10.9099 7.78L13.5199 5.70001L12.7399 4.72ZM5.18991 4.72C4.91991 4.5 4.52991 4.55001 4.30991 4.82001C4.08991 5.09001 4.13991 5.48001 4.40991 5.70001L5.18991 4.72ZM7.3999 7.29001L7.00989 7.78L7.3999 7.29001ZM10.5199 7.29001L10.9099 7.78L10.5199 7.29001ZM13.5199 5.69C13.7899 5.48 13.8299 5.08 13.6199 4.81C13.4099 4.54 13.0099 4.49999 12.7399 4.70999L13.5199 5.69Z" fill="white"/>
<path d="M17.16 9.64999C16.72 9.20999 16.25 8.99001 15.75 9.04001C15.27 9.09001 14.9 9.37 14.61 9.66L15.32 10.37C15.55 10.14 15.72 10.05 15.85 10.04C15.96 10.03 16.15 10.06 16.45 10.36L17.16 9.64999V9.64999ZM17.16 12.21C17.44 11.93 17.73 11.55 17.78 11.07C17.83 10.56 17.6 10.09 17.16 9.64999L16.45 10.36C16.76 10.67 16.79 10.87 16.78 10.97C16.77 11.1 16.68 11.27 16.45 11.5L17.16 12.21V12.21ZM14.21 15.16L17.16 12.21L16.45 11.5L13.5 14.45L14.21 15.16ZM13.44 15.55C13.58 15.53 13.73 15.47 13.85 15.41C13.97 15.35 14.11 15.26 14.22 15.14L13.49 14.46C13.49 14.46 13.49 14.46 13.47 14.47C13.45 14.48 13.43 14.5 13.4 14.51C13.34 14.54 13.3 14.55 13.28 14.55L13.44 15.54V15.55ZM12.31 15.71L13.43 15.55L13.29 14.56L12.17 14.72L12.31 15.71ZM11.11 14.51C11.06 14.85 11.15 15.18 11.39 15.43C11.63 15.67 11.97 15.76 12.31 15.71L12.17 14.72C12.17 14.72 12.11 14.72 12.1 14.72C12.1 14.72 12.1 14.69 12.1 14.65L11.11 14.51ZM11.27 13.39L11.11 14.51L12.1 14.65L12.26 13.53L11.27 13.39ZM11.66 12.61C11.55 12.72 11.47 12.85 11.41 12.97C11.35 13.09 11.3 13.24 11.27 13.38L12.26 13.54C12.26 13.54 12.27 13.48 12.3 13.43C12.33 13.37 12.36 13.34 12.37 13.33L11.66 12.62V12.61ZM14.61 9.66L11.66 12.61L12.37 13.32L15.32 10.37L14.61 9.66ZM16.81 11.86L17.16 12.21L16.81 11.86ZM13.86 14.81L13.51 14.46H13.5L13.87 14.81H13.86ZM13.37 15.06L13.44 15.55L13.36 15.06H13.37ZM12.25 15.22L12.18 14.73L12.25 15.22ZM11.62 14.59L12.11 14.66L11.62 14.59ZM11.78 13.47L11.29 13.39L11.78 13.47ZM12.03 12.98L12.38 13.33L12.03 12.98ZM14.98 10.03L14.63 9.67999L14.98 10.03Z" fill="white"/>
<path d="M14.0601 10.57C14.3601 11.64 15.1901 12.47 16.2601 12.77L16.5301 11.81C15.8001 11.61 15.2301 11.04 15.0301 10.31L14.0701 10.58L14.0601 10.57ZM16.2601 12.77C16.5301 12.84 16.8001 12.69 16.8801 12.42C16.9601 12.15 16.8001 11.88 16.5301 11.8L16.2601 12.76V12.77ZM15.0301 10.3C14.9601 10.03 14.6801 9.87999 14.4101 9.94999C14.1401 10.02 13.9901 10.3 14.0601 10.57L15.0201 10.3H15.0301Z" fill="white"/>
</svg>
