<svg xmlns="http://www.w3.org/2000/svg" width="33.563" height="42.333" viewBox="0 0 33.563 42.333"><path d="M294.155,245.168a2.028,2.028,0,0,0,1.473.625l4.82.134a2.108,2.108,0,0,0,2.187-2.053,2.135,2.135,0,0,0-2.053-2.187l-4.017-.089-2.365-2.41a5.091,5.091,0,0,0-1.964-1.25l-2.856-1.026a5.336,5.336,0,0,0-3.124-.134l-4.731,1.294a2.147,2.147,0,0,0-1.2.848l-2.812,4.24a2.1,2.1,0,0,0,.581,2.945,2.211,2.211,0,0,0,1.16.357,2.048,2.048,0,0,0,1.74-.937l2.41-3.57,1.429-.357a60.265,60.265,0,0,0-1.518,6.56,6.809,6.809,0,0,0,.625,4.419l-3.034,3.079-6.338-.268a2.412,2.412,0,0,0-.178,4.82l7.408.312h.09a2.439,2.439,0,0,0,1.7-.714l3.3-3.347,1.607,2.723,1.116,7.72a2.4,2.4,0,0,0,2.365,2.053,1,1,0,0,0,.357-.044,2.411,2.411,0,0,0,2.053-2.722l-1.2-8.212a1.954,1.954,0,0,0-.313-.848l-2.9-4.954,2.9-8.39Zm-1.606-8.747a4.885,4.885,0,1,0-4.419-5.356,4.969,4.969,0,0,0,4.419,5.356m8.97,24.367a4.106,4.106,0,1,0,4.106,4.106,4.1,4.1,0,0,0-4.106-4.106" transform="translate(-272.063 -226.667)" fill="#fff"/></svg>