<svg xmlns="http://www.w3.org/2000/svg" width="30.83" height="29.261" viewBox="0 0 30.83 29.261">
  <g id="Group_9224" data-name="Group 9224" transform="translate(-29.136 -679.539)">
    <path id="Path_5440" data-name="Path 5440" d="M59.966,688.009c-.5.5-.991,1-1.5,1.48a.476.476,0,0,0-.165.5c.122.6.223,1.2.313,1.807a.479.479,0,0,1-.094.369c-.055.054-.245.015-.348-.036-.573-.287-1.135-.6-1.711-.881a.481.481,0,0,0-.374,0c-.575.284-1.136.6-1.71.883a.423.423,0,0,1-.35.029.427.427,0,0,1-.085-.344c.094-.634.216-1.265.307-1.9a.486.486,0,0,0-.111-.358c-.447-.46-.918-.9-1.368-1.357a.428.428,0,0,1-.14-.326c.026-.086.187-.167.3-.186q.935-.158,1.875-.276a.4.4,0,0,0,.359-.259q.391-.828.816-1.642a1.6,1.6,0,0,1,.291-.31,1.634,1.634,0,0,1,.314.326c.284.541.536,1.1.824,1.638a.522.522,0,0,0,.331.232c.592.1,1.191.172,1.785.269a2.379,2.379,0,0,1,.44.161Z" fill="#fff"/>
    <path id="Path_5441" data-name="Path 5441" d="M51.288,689.445c.264.3.523.582.76.879a.466.466,0,0,1,.049.3c-.046.577-.147,1.153-.139,1.728a3.683,3.683,0,0,0,.306.979c-.134.114-.316.267-.494.423a18.82,18.82,0,0,0-4.262,5.671,35.68,35.68,0,0,0-3.029,8.946c-.008.039-.013.079-.023.118-.05.193-.148.342-.374.3-.2-.033-.269-.185-.267-.377.007-.583,0-1.166.02-1.747a29.918,29.918,0,0,1,1.122-7.147,20.235,20.235,0,0,1,5.535-9.366c.227-.212.463-.415.8-.712" fill="#fff"/>
    <path id="Path_5442" data-name="Path 5442" d="M36.7,679.764c-.094,1-.168,1.907-.272,2.814a.5.5,0,0,0,.212.508q1,.817,1.986,1.663a1.7,1.7,0,0,1,.25.377,1.55,1.55,0,0,1-.386.227c-.868.209-1.741.392-2.608.6a.519.519,0,0,0-.311.258c-.352.831-.676,1.673-1.025,2.505-.051.123-.174.292-.273.3s-.245-.142-.315-.256q-.688-1.131-1.348-2.28a.492.492,0,0,0-.452-.273q-1.338-.076-2.674-.185a.474.474,0,0,1-.338-.176c-.037-.066.054-.241.13-.33q.886-1.026,1.792-2.035a.434.434,0,0,0,.115-.457c-.231-.862-.444-1.729-.649-2.6-.03-.131-.03-.338.049-.405s.28-.028.4.024c.815.338,1.626.684,2.431,1.048a.474.474,0,0,0,.518-.046q1.138-.732,2.3-1.437a.43.43,0,0,1,.326-.061c.083.035.122.178.142.212" fill="#fff"/>
    <path id="Path_5443" data-name="Path 5443" d="M39.244,687.255c.342,1.119.705,2.2,1,3.3a51.744,51.744,0,0,1,1.344,6.871,77.475,77.475,0,0,1,.594,10.212c0,.061.02.131-.005.179a3.152,3.152,0,0,1-.2.317c-.073-.093-.2-.178-.213-.28-.229-1.3-.415-2.615-.665-3.915a51.953,51.953,0,0,0-3.091-11.006c-.433-1-1-1.938-1.534-2.891a.6.6,0,0,1-.048-.606c.215-.485.407-.981.6-1.477a.408.408,0,0,1,.333-.292c.608-.124,1.213-.264,1.89-.414" fill="#fff"/>
    <path id="Path_5444" data-name="Path 5444" d="M52.166,701.871c.288.52.515.937.751,1.349a.45.45,0,0,1-.26.634,8.964,8.964,0,0,0-5.256,3.155c-.3.345-.575.72-.855,1.087-.162.214-.355.345-.617.206s-.264-.365-.184-.624a7.731,7.731,0,0,1,4.038-4.779c.788-.4,1.629-.706,2.383-1.028" fill="#fff"/>
    <path id="Path_5445" data-name="Path 5445" d="M30.828,696.569c.436.064.864.112,1.287.194a.385.385,0,0,0,.412-.153c.238-.271.482-.538.74-.79a1.7,1.7,0,0,1,.367-.213,1.665,1.665,0,0,1,.212.4c.079.351.135.708.18,1.066a.387.387,0,0,0,.264.351c.351.147.7.308,1.033.486a.494.494,0,0,1,.255.284c.012.077-.132.208-.234.267a10.593,10.593,0,0,1-.986.512.462.462,0,0,0-.3.434c-.035.369-.076.738-.137,1.1-.019.114-.09.276-.177.307s-.24-.055-.327-.132a7.149,7.149,0,0,1-.729-.716.585.585,0,0,0-.682-.2,9.177,9.177,0,0,1-1,.2c-.106.016-.279,0-.319-.065a.443.443,0,0,1,0-.353,10.583,10.583,0,0,1,.494-.995.47.47,0,0,0,0-.548c-.208-.33-.389-.678-.568-1.024-.125-.242-.027-.409.213-.412" fill="#fff"/>
    <path id="Path_5446" data-name="Path 5446" d="M49.716,680.225c-.1.409-.19.841-.309,1.265a.389.389,0,0,0,.106.427c.27.284.532.575.782.876.069.082.146.24.111.308a.436.436,0,0,1-.3.182,9.608,9.608,0,0,1-1.11.08.469.469,0,0,0-.468.292,9.156,9.156,0,0,1-.515.883,1.741,1.741,0,0,1-.334.3,1.9,1.9,0,0,1-.283-.352,8.934,8.934,0,0,1-.386-.946.459.459,0,0,0-.4-.333c-.374-.069-.747-.149-1.115-.245-.1-.027-.241-.112-.262-.2a.394.394,0,0,1,.137-.3c.295-.271.6-.53.915-.782a.361.361,0,0,0,.156-.382c-.06-.4-.1-.8-.121-1.2a.4.4,0,0,1,.107-.313.394.394,0,0,1,.327.034q.511.286,1,.614a.421.421,0,0,0,.47.038c.369-.179.748-.34,1.127-.5a.247.247,0,0,1,.375.245" fill="#fff"/>
    <path id="Path_5447" data-name="Path 5447" d="M43.954,684.533c.455.157.846.3,1.244.423a.543.543,0,0,1,.326.257,1.274,1.274,0,0,1-.009,1.358A21.648,21.648,0,0,0,44,692.091c-.116.733-.19,1.472-.3,2.206-.017.109-.138.2-.211.3-.076-.1-.206-.187-.219-.292a24.209,24.209,0,0,1,.2-7.966c.134-.624.333-1.235.49-1.808" fill="#fff"/>
    <path id="Path_5448" data-name="Path 5448" d="M55.343,701.391c.589.237.947-.12,1.237-.631a2.4,2.4,0,0,1,.32-.436c.088-.1.245-.243.313-.217a.553.553,0,0,1,.255.324c.126.359.209.733.337,1.091a.507.507,0,0,0,.264.271c.374.143.764.244,1.139.383a.441.441,0,0,1,.257.243c.019.074-.091.211-.177.275-.313.234-.634.459-.965.668a.417.417,0,0,0-.214.418c.015.371.016.744,0,1.114-.006.124-.059.311-.144.348s-.26-.038-.364-.11c-.3-.206-.582-.429-.861-.658a.436.436,0,0,0-.489-.089,10.859,10.859,0,0,1-1.058.341c-.121.032-.313.039-.378-.031s-.049-.26-.012-.38c.115-.373.268-.735.38-1.109a.467.467,0,0,0-.053-.348c-.226-.344-.484-.665-.713-1.007a.388.388,0,0,1-.065-.319.425.425,0,0,1,.3-.135c.209-.02.421-.006.694-.006" fill="#fff"/>
    <path id="Path_5449" data-name="Path 5449" d="M37.213,699.52a15.84,15.84,0,0,1,2.308,4.892c.346,1.211.591,2.452.884,3.679.044.187.028.35-.174.42-.225.078-.323-.071-.406-.251-.491-1.064-.959-2.139-1.487-3.184a18.008,18.008,0,0,0-2.294-3.486.941.941,0,0,1,.257-1.357,3.424,3.424,0,0,0,.48-.307,5.873,5.873,0,0,0,.432-.406" fill="#fff"/>
  </g>
</svg>
