<svg xmlns="http://www.w3.org/2000/svg" width="52.526" height="42.976" viewBox="0 0 52.526 42.976"><path d="M315.107,445.248a.2.2,0,0,0-.053-.16,32.055,32.055,0,0,0-10.613-5.386,40.936,40.936,0,0,0-12.584-1.6c-.054,0-.107.053-.16.107-3.947,10.772-4.427,21.864-1.227,28.263a7.683,7.683,0,0,0,4.319,4.212,8.163,8.163,0,0,0,6.826-1.226C307.748,465.778,313.4,455.593,315.107,445.248Zm-15.785,1.6a1.07,1.07,0,0,1-1.12.213c-1.28-.373-2.506-2.826-3.146-4a2.988,2.988,0,0,0-.266-.479.162.162,0,0,1,0-.214c.053-.053.106-.053.213-.053.053,0,4.373,2.08,4.586,3.679a.735.735,0,0,1-.267.854m-7.145,1.653a.193.193,0,0,1,.16-.054,14.254,14.254,0,0,0,6.239.587.2.2,0,0,1,.16.053v.16a3.76,3.76,0,0,1-1.6,2.293,3.248,3.248,0,0,1-2.559.213,2.253,2.253,0,0,1-.747-.32,3.532,3.532,0,0,1-1.76-2.773c.053-.053.053-.106.107-.159m9.971,17.65a9.842,9.842,0,0,0-4.692-3.679,9.74,9.74,0,0,0-5.973.373c.853-1.173,3.466-4,6.772-2.986S302.1,464.712,302.148,466.151ZM305.4,455.06a3.423,3.423,0,0,1-2.026-1.6,3.481,3.481,0,0,1,0-2.773.114.114,0,0,1,.107-.106.2.2,0,0,1,.16.053,13.777,13.777,0,0,0,5.492,3.04.114.114,0,0,1,.107.106.2.2,0,0,1-.053.16,3.5,3.5,0,0,1-3.04,1.28C305.935,455.167,305.668,455.113,305.4,455.06Zm-.959-7.466c1.066-1.173,5.812-.427,5.865-.427s.107.054.107.16c0,.054-.053.16-.107.16s-.213.107-.48.214c-1.173.64-3.519,1.92-4.852,1.546a1.2,1.2,0,0,1-.8-.8A1.1,1.1,0,0,1,304.442,447.594Zm-17.7-18.77a.114.114,0,0,0-.106-.107,31.027,31.027,0,0,0-11.892-.32,41.045,41.045,0,0,0-12.052,3.946c-.053.054-.106.107-.106.16,1.066,11.412,5.386,21.651,11.038,26.077a7.5,7.5,0,0,0,5.706,1.92,8.034,8.034,0,0,0,5.546-3.946C288.764,450.688,289.563,439.009,286.737,428.824Zm-13.917,6.025c-.48,1.547-5.066,2.88-5.12,2.933a.2.2,0,0,1-.16-.053.163.163,0,0,1,0-.213c.054-.054.16-.214.32-.427.747-1.067,2.4-3.253,3.68-3.466a1.09,1.09,0,0,1,1.067.426A.744.744,0,0,1,272.82,434.849Zm-4.213,5.813a3.212,3.212,0,0,1,2.24-1.28,4.058,4.058,0,0,1,.8-.053,3.614,3.614,0,0,1,2.773,1.76c0,.053.053.106,0,.16a.115.115,0,0,1-.107.106,13.781,13.781,0,0,0-5.866,2.187h-.16a.116.116,0,0,1-.107-.107,3.264,3.264,0,0,1,.427-2.773M278.9,454.9c-3.466.48-5.546-2.719-6.239-4a9.936,9.936,0,0,0,5.865,1.28,9.589,9.589,0,0,0,5.226-2.88C283.432,450.741,282.365,454.421,278.9,454.9Zm-.533-14.5a.19.19,0,0,1-.214-.214,3.6,3.6,0,0,1,2.187-2.453,3.966,3.966,0,0,1,.746-.213,3.129,3.129,0,0,1,3.733,3.093.2.2,0,0,1-.053.16l-.053.053h-.054a14.334,14.334,0,0,0-6.292-.426m-.267-7.146a1.121,1.121,0,0,1,.907-.693c1.333-.214,3.466,1.44,4.532,2.24.214.16.374.266.427.32s.107.107.053.16a.115.115,0,0,1-.106.107c-.054,0-4.853,0-5.706-1.334a.741.741,0,0,1-.107-.8" transform="translate(-262.581 -428.008)" fill="#fff"/></svg>