<svg xmlns="http://www.w3.org/2000/svg" width="23.23" height="15.646" viewBox="0 0 23.23 15.646">
  <g id="Layer_15" transform="translate(-2 -6.57)">
    <path id="Path_25000" data-name="Path 25000" d="M24.657,12.27h.572V9.237A2.667,2.667,0,0,0,22.562,6.57H18.043v2.9a.747.747,0,0,1-1.493,0V6.57H4.667A2.667,2.667,0,0,0,2,9.237V12.27h.572a2.124,2.124,0,1,1,0,4.248H2V19.55a2.667,2.667,0,0,0,2.667,2.667H16.549v-2.9a.747.747,0,1,1,1.493,0v2.9h4.519a2.667,2.667,0,0,0,2.667-2.667V16.517h-.572a2.124,2.124,0,1,1,0-4.248ZM18.045,15.9a.746.746,0,0,1-1.493,0v-3a.746.746,0,0,1,1.493,0Z" transform="translate(0 0)" fill="#fff"/>
  </g>
</svg>
