<?xml version="1.0" encoding="UTF-8"?>
<svg id="Layer_2" data-name="Layer 2" xmlns="http://www.w3.org/2000/svg" xmlns:xlink="http://www.w3.org/1999/xlink" viewBox="0 0 18.11 18.11">
  <defs>
    <clipPath id="clippath">
      <rect class="cls-1" width="18.11" height="18.11"/>
    </clipPath>
  </defs>
  <g id="Layer_1-2" data-name="Layer 1">
    <g class="cls-2">
      <path class="cls-3" d="m9.45.01c.99-.01,1.97,0,2.95-.01.06,1.15.48,2.33,1.32,3.15.85.84,2.04,1.22,3.2,1.35v3.04c-1.09-.04-2.18-.26-3.17-.73-.43-.2-.83-.45-1.22-.7,0,2.2,0,4.41-.01,6.6-.06,1.06-.41,2.11-1.02,2.97-.99,1.45-2.7,2.39-4.46,2.42-1.08.06-2.16-.23-3.08-.78-1.52-.9-2.6-2.54-2.75-4.31-.01-.38-.02-.75,0-1.12.14-1.43.85-2.81,1.95-3.74,1.25-1.09,3-1.61,4.64-1.3.02,1.12-.03,2.23-.03,3.35-.75-.24-1.62-.17-2.28.28-.47.31-.84.78-1.03,1.32-.16.38-.11.81-.11,1.22.18,1.24,1.37,2.28,2.64,2.17.85,0,1.65-.5,2.09-1.22.14-.25.3-.51.31-.8.08-1.35.05-2.69.05-4.05,0-3.04,0-6.08.01-9.11Z"/>
    </g>
  </g>
</svg>