<svg xmlns="http://www.w3.org/2000/svg" width="21.538" height="28.397" viewBox="0 0 21.538 28.397">
  <g id="Group_9226" data-name="Group 9226" transform="translate(-33.467 -312.433)">
    <path id="Path_5407" data-name="Path 5407" d="M39.881,330.783v8.074a1.39,1.39,0,0,1-1.528,1.528c-.544,0-1.089,0-1.633,0a1.371,1.371,0,0,1-1.423-1.43q-.006-3.912,0-7.824v-.352c-.122-.026-.232-.045-.339-.072a1.364,1.364,0,0,1-1.034-1.26q-.228-4.709-.452-9.417a1.412,1.412,0,0,1,1.592-1.658q2.578,0,5.158,0a1.373,1.373,0,0,1,1.488,1.531q-.219,4.78-.456,9.56c-.034.7-.5,1.14-1.371,1.32" fill="#fff"/>
    <path id="Path_5408" data-name="Path 5408" d="M49.507,330.754H49.16a1.366,1.366,0,0,1-1.48-1.56c.068-1.172.163-2.343.248-3.515q.189-2.6.38-5.2c.021-.286.034-.572.062-.857a1.369,1.369,0,0,1,1.342-1.247q1.618-.016,3.238,0a1.364,1.364,0,0,1,1.363,1.317c.164,2.2.317,4.4.475,6.6.065.9.12,1.792.2,2.685a1.431,1.431,0,0,1-1.6,1.777h-.216v.34c0,2.465,0,4.929,0,7.394a1.833,1.833,0,1,1-3.665.042c-.006-2.465,0-4.929,0-7.394v-.382" fill="#fff"/>
    <path id="Path_5409" data-name="Path 5409" d="M44.464,340.83h0a.442.442,0,0,1-.442-.442V312.875a.442.442,0,0,1,.884,0v27.513a.442.442,0,0,1-.442.442" fill="#fff"/>
    <path id="Path_5410" data-name="Path 5410" d="M51.358,312.868a2.293,2.293,0,1,1-2.308,2.251,2.3,2.3,0,0,1,2.308-2.251" fill="#fff"/>
    <path id="Path_5411" data-name="Path 5411" d="M37.6,312.868a2.293,2.293,0,1,1-2.3,2.261,2.295,2.295,0,0,1,2.3-2.261" fill="#fff"/>
  </g>
</svg>
