<?xml version="1.0" encoding="UTF-8"?>
<svg id="Layer_2" data-name="Layer 2" xmlns="http://www.w3.org/2000/svg" xmlns:xlink="http://www.w3.org/1999/xlink" viewBox="0 0 18.11 18.11">
  <defs>
    <clipPath id="clippath">
      <rect class="cls-1" x="0" width="18.11" height="18.11"/>
    </clipPath>
  </defs>
  <g id="Layer_1-2" data-name="Layer 1">
    <g class="cls-2">
      <path class="cls-3" d="m5.69,16.98c6.84,0,10.57-5.66,10.57-10.57,0-.16,0-.32,0-.48.73-.53,1.36-1.18,1.86-1.93-.68.3-1.4.5-2.14.59.78-.46,1.36-1.2,1.64-2.06-.73.43-1.53.74-2.36.9-.56-.6-1.3-.99-2.11-1.12-.81-.13-1.64,0-2.36.39-.72.39-1.3,1-1.63,1.74-.34.75-.42,1.58-.23,2.38-1.48-.07-2.92-.46-4.24-1.13-1.32-.67-2.48-1.61-3.42-2.76-.47.82-.62,1.79-.4,2.71.21.92.77,1.73,1.56,2.25-.59-.02-1.17-.18-1.68-.46v.05c0,.86.3,1.69.84,2.35s1.3,1.12,2.14,1.29c-.32.09-.65.13-.98.13-.23,0-.47-.02-.7-.06.24.74.7,1.38,1.32,1.85.62.46,1.37.72,2.15.73-1.32,1.03-2.94,1.6-4.62,1.59-.3,0-.59-.02-.88-.05,1.7,1.08,3.67,1.66,5.69,1.66Z"/>
    </g>
  </g>
</svg>