<svg xmlns="http://www.w3.org/2000/svg" width="20.071" height="20.071" viewBox="0 0 20.071 20.071">
  <g id="Group_9219" data-name="Group 9219" transform="matrix(1, 0.017, -0.017, 1, -162.579, -479.857)">
    <path id="Path_24719" data-name="Path 24719" d="M183.95,495.356a9.865,9.865,0,1,1,9.865-9.865,9.876,9.876,0,0,1-9.865,9.865m0-18.576a8.711,8.711,0,1,0,8.711,8.711,8.721,8.721,0,0,0-8.711-8.711" transform="translate(-2.812 1.315)" fill="#fff"/>
    <path id="Path_24720" data-name="Path 24720" d="M189.508,486.128h-6.716v-6.217a.577.577,0,1,1,1.154,0v5.063h5.562a.577.577,0,0,1,0,1.154" transform="translate(-2.953 2.254)" fill="#fff"/>
  </g>
</svg>
